<?xml version="1.0" encoding="utf-8"?>
<!-- Generator: Adobe Illustrator 22.1.0, SVG Export Plug-In . SVG Version: 6.00 Build 0)  -->
<svg version="1.1" id="圖層_1" xmlns="http://www.w3.org/2000/svg" xmlns:xlink="http://www.w3.org/1999/xlink" x="0px" y="0px"
	 viewBox="0 0 512 512" style="enable-background:new 0 0 512 512;" xml:space="preserve" fill="#4dc97d">
<circle cx="256" cy="350" r="7"/>
<path d="M196,509c-3.9,0-7-3.1-7-7v-96c0-1.7-1.3-3-3-3h-10c-3.9,0-7-3.1-7-7s3.1-7,7-7h10c1.7,0,3-1.3,3-3v-36
	c0-27.8-26.3-53.4-50.7-65.5c-1.7-0.8-3-2.4-3.6-4.2c-0.6-1.8-0.4-3.8,0.5-5.5L241.7,81.4c0.5-0.9,0.5-2.1,0-3
	c-0.5-0.9-1.5-1.5-2.6-1.5H226c-3.9,0-7-3.1-7-7V54c0-0.9-0.4-1.8-1.1-2.3c-0.5-0.4-1.2-0.7-1.9-0.7c-0.2,0-0.4,0-0.6,0.1
	C129,68.4,62.3,136.1,49.3,219.5c-0.1,0.9,0.1,1.7,0.7,2.4c0.6,0.7,1.4,1,2.3,1H70c3.9,0,7,3.1,7,7v60c0,3.9-3.1,7-7,7H10
	c-3.9,0-7-3.1-7-7v-60c0-3.9,3.1-7,7-7h22.1c1.5,0,2.8-1.1,3-2.6C45.2,148.4,95,84.2,165,52.7c1.3-0.6,2-2,1.7-3.4
	c-0.3-1.4-1.5-2.4-2.9-2.4h-85c-1.4,0-2.6,0.9-2.9,2.2C71.6,65.6,56.9,77,40,77C19.6,77,3,60.4,3,40S19.6,3,40,3
	c16.9,0,31.6,11.4,35.8,27.8c0.3,1.3,1.5,2.2,2.9,2.2H216c1.7,0,3-1.3,3-3V10c0-3.9,3.1-7,7-7h60c3.9,0,7,3.1,7,7v20
	c0,1.7,1.3,3,3,3h137.3c1.4,0,2.6-0.9,2.9-2.2C440.4,14.4,455.1,3,472,3c20.4,0,37,16.6,37,37s-16.6,37-37,37
	c-16.9,0-31.6-11.4-35.8-27.8c-0.3-1.3-1.5-2.2-2.9-2.2h-85c-1.4,0-2.6,1-2.9,2.4c-0.3,1.4,0.4,2.8,1.7,3.4
	c70,31.4,119.8,95.7,129.9,167.7c0.2,1.5,1.5,2.6,3,2.6H502c3.9,0,7,3.1,7,7v60c0,3.9-3.1,7-7,7h-60c-3.9,0-7-3.1-7-7v-60
	c0-3.9,3.1-7,7-7h17.7c0.9,0,1.7-0.4,2.3-1c0.6-0.7,0.8-1.5,0.7-2.4c-13-83.5-79.7-151.2-166.1-168.5c-0.2,0-0.4-0.1-0.6-0.1
	c-0.7,0-1.4,0.2-1.9,0.7c-0.7,0.6-1.1,1.4-1.1,2.3v16c0,3.9-3.1,7-7,7h-13.1c-1.1,0-2,0.6-2.6,1.5c-0.5,0.9-0.6,2,0,3l106.5,193.4
	c0.9,1.7,1.1,3.7,0.5,5.5c-0.6,1.8-1.9,3.3-3.6,4.2C349.3,296.6,323,322.2,323,350v36c0,1.7,1.3,3,3,3h10c3.9,0,7,3.1,7,7
	s-3.1,7-7,7h-10c-1.7,0-3,1.3-3,3v96c0,3.9-3.1,7-7,7H196z M206,403c-1.7,0-3,1.3-3,3v86c0,1.7,1.3,3,3,3h100c1.7,0,3-1.3,3-3v-86
	c0-1.7-1.3-3-3-3H206z M246,105.9c-1.1,0-2.1,0.6-2.6,1.6l-91.1,165.4c-0.8,1.4-0.3,3.2,1.1,4c24,14.5,49.6,41.3,49.6,73.2v36
	c0,1.7,1.3,3,3,3h100c1.7,0,3-1.3,3-3v-36c0-31.9,25.6-58.7,49.6-73.2c1.4-0.8,1.9-2.6,1.1-4l-91.1-165.4c-0.5-1-1.6-1.6-2.6-1.6
	c-0.2,0-0.5,0-0.7,0.1c-1.3,0.3-2.3,1.5-2.3,2.9v112.8c0,1.3,0.8,2.4,2,2.8c10.8,3.8,18,14,18,25.5s-7.2,21.6-18,25.5
	c-1.2,0.4-2,1.6-2,2.8V310c0,3.9-3.1,7-7,7c-3.9,0-7-3.1-7-7v-31.7c0-1.3-0.8-2.4-2-2.8c-10.8-3.8-18-14-18-25.5s7.2-21.6,18-25.5
	c1.2-0.4,2-1.6,2-2.8V108.9c0-1.4-0.9-2.6-2.3-2.9C246.5,105.9,246.2,105.9,246,105.9z M452,237c-1.7,0-3,1.3-3,3v40
	c0,1.7,1.3,3,3,3h40c1.7,0,3-1.3,3-3v-40c0-1.7-1.3-3-3-3H452z M20,237c-1.7,0-3,1.3-3,3v40c0,1.7,1.3,3,3,3h40c1.7,0,3-1.3,3-3v-40
	c0-1.7-1.3-3-3-3H20z M256,237c-7.2,0-13,5.8-13,13s5.8,13,13,13s13-5.8,13-13S263.2,237,256,237z M472,17c-12.7,0-23,10.3-23,23
	s10.3,23,23,23s23-10.3,23-23S484.7,17,472,17z M236,17c-1.7,0-3,1.3-3,3v40c0,1.7,1.3,3,3,3h40c1.7,0,3-1.3,3-3V20c0-1.7-1.3-3-3-3
	H236z M40,17c-12.7,0-23,10.3-23,23s10.3,23,23,23s23-10.3,23-23S52.7,17,40,17z"/>
</svg>
