<?xml version="1.0" encoding="utf-8"?>
<!-- Generator: Adobe Illustrator 22.1.0, SVG Export Plug-In . SVG Version: 6.00 Build 0)  -->
<svg version="1.1" id="圖層_1" xmlns="http://www.w3.org/2000/svg" xmlns:xlink="http://www.w3.org/1999/xlink" x="0px" y="0px"
	 viewBox="0 0 512 512" style="enable-background:new 0 0 512 512;" xml:space="preserve" fill="#967958">
<path d="M30.5,453C15.3,453,3,440.7,3,425.5v-339C3,71.3,15.3,59,30.5,59h451c15.2,0,27.5,12.3,27.5,27.5v339
	c0,15.2-12.3,27.5-27.5,27.5H30.5z M30.5,73C23.1,73,17,79.1,17,86.5v339c0,7.4,6.1,13.5,13.5,13.5h451c7.4,0,13.5-6.1,13.5-13.5
	v-339c0-7.4-6.1-13.5-13.5-13.5H30.5z"/>
<path d="M250,412.3c-3.9,0-7-3.1-7-7s3.1-7,7-7h204.4v-226H57.6v226h112c3.9,0,7,3.1,7,7s-3.1,7-7,7h-119c-3.9,0-7-3.1-7-7v-240
	c0-3.9,3.1-7,7-7h410.7c3.9,0,7,3.1,7,7v240c0,3.9-3.1,7-7,7H250z"/>
<path d="M191,122.3c-3.9,0-7-3.1-7-7s3.1-7,7-7h258c3.9,0,7,3.1,7,7s-3.1,7-7,7H191z"/>
<path d="M60.3,122.3c-1.8,0-3.6-0.7-4.9-2c-1.3-1.3-2.1-3.1-2.1-5c0-0.4,0-0.9,0.1-1.3c0.1-0.5,0.2-0.9,0.4-1.3
	c0.2-0.4,0.4-0.9,0.6-1.2c0.3-0.4,0.6-0.7,0.9-1.1c0.3-0.3,0.7-0.6,1-0.9c0.4-0.3,0.8-0.5,1.2-0.7c0.4-0.2,0.9-0.3,1.3-0.4
	c0.5-0.1,0.9-0.1,1.4-0.1c0.5,0,0.9,0,1.4,0.1c0.5,0.1,0.9,0.2,1.3,0.4c0.4,0.2,0.8,0.4,1.2,0.6c0.4,0.3,0.7,0.5,1.1,0.9
	c0.3,0.3,0.6,0.7,0.9,1.1c0.2,0.4,0.5,0.8,0.6,1.2c0.2,0.4,0.3,0.9,0.4,1.3c0.1,0.4,0.1,0.9,0.1,1.4c0,1.9-0.7,3.7-2,4.9
	c-0.3,0.3-0.7,0.6-1.1,0.9c-0.4,0.3-0.8,0.5-1.2,0.6c-0.4,0.2-0.9,0.3-1.3,0.4C61.3,122.3,60.8,122.3,60.3,122.3z"/>
<path d="M100.3,122.3c-1.8,0-3.6-0.7-4.9-2c-0.3-0.3-0.6-0.7-0.9-1c-0.3-0.4-0.5-0.8-0.7-1.2c-0.2-0.4-0.3-0.9-0.4-1.3
	c-0.1-0.5-0.1-0.9-0.1-1.4c0-0.4,0-0.9,0.1-1.4c0.1-0.5,0.2-0.9,0.4-1.3c0.2-0.4,0.4-0.9,0.7-1.2c0.2-0.4,0.5-0.7,0.8-1
	c1.3-1.3,3.1-2.1,5-2.1c0.4,0,0.9,0,1.3,0.1c0.5,0.1,0.9,0.2,1.3,0.4c0.4,0.2,0.8,0.4,1.2,0.6c0.4,0.3,0.7,0.5,1.1,0.9
	c0.3,0.3,0.6,0.7,0.9,1.1c0.2,0.4,0.5,0.8,0.6,1.2c0.2,0.4,0.3,0.9,0.4,1.3c0.1,0.4,0.1,0.9,0.1,1.4c0,0.5,0,0.9-0.1,1.4
	c-0.1,0.4-0.2,0.9-0.4,1.3c-0.2,0.4-0.4,0.8-0.6,1.2c-0.3,0.4-0.6,0.8-0.8,1l-0.1,0.1c-0.3,0.3-0.6,0.6-1,0.8
	c-0.4,0.3-0.8,0.5-1.2,0.6c-0.4,0.2-0.9,0.3-1.3,0.4C101.3,122.3,100.8,122.3,100.3,122.3z"/>
<path d="M140.3,122.3c-0.5,0-0.9,0-1.4-0.1c-0.5-0.1-0.9-0.2-1.3-0.4c-0.5-0.2-0.9-0.4-1.2-0.6c-0.4-0.3-0.8-0.6-1-0.8
	c-0.4-0.4-0.6-0.7-0.9-1.1c-0.3-0.4-0.5-0.8-0.7-1.2c-0.2-0.4-0.3-0.9-0.4-1.3c-0.1-0.5-0.1-0.9-0.1-1.4c0-0.4,0-0.9,0.1-1.3
	c0.1-0.5,0.2-0.9,0.4-1.3c0.2-0.4,0.4-0.9,0.6-1.2c0.3-0.4,0.5-0.7,0.9-1.1c0.3-0.3,0.7-0.6,1-0.9c0.4-0.3,0.8-0.5,1.2-0.7
	c0.4-0.2,0.9-0.3,1.3-0.4c0.5-0.1,0.9-0.1,1.4-0.1c0.5,0,0.9,0,1.4,0.1c0.5,0.1,0.9,0.2,1.3,0.4c0.4,0.2,0.8,0.4,1.2,0.6
	c0.4,0.3,0.7,0.5,1.1,0.9c0.3,0.3,0.6,0.7,0.9,1.1c0.2,0.4,0.5,0.8,0.6,1.2c0.2,0.4,0.3,0.9,0.4,1.3c0.1,0.4,0.1,0.9,0.1,1.4
	c0,0.5,0,0.9-0.1,1.4c-0.1,0.4-0.2,0.9-0.4,1.3c-0.2,0.4-0.4,0.8-0.6,1.2c-0.3,0.4-0.6,0.7-0.9,1.1c-0.3,0.3-0.7,0.6-1.1,0.9
	c-0.4,0.3-0.8,0.5-1.2,0.6c-0.4,0.2-0.9,0.3-1.3,0.4C141.3,122.3,140.8,122.3,140.3,122.3z"/>
<path d="M169.7,343.5c-1.6,0-3.2-0.6-4.5-1.6l-60-49.7c-1.6-1.3-2.5-3.3-2.5-5.3c0-2.1,0.9-4,2.4-5.4l59.3-50.8
	c1.3-1.1,2.9-1.7,4.5-1.7c2.1,0,4,0.9,5.3,2.4c2.5,2.9,2.2,7.4-0.8,9.9l-53,45.4l53.6,44.4c1.4,1.2,2.3,2.9,2.5,4.7
	s-0.4,3.7-1.6,5.1C173.7,342.6,171.8,343.5,169.7,343.5z"/>
<path d="M330.3,343c-2.1,0-4-0.9-5.3-2.5c-1.2-1.4-1.8-3.2-1.7-5.1c0.1-1.9,1-3.6,2.4-4.8l53-45.1l-53.6-44.1
	c-3-2.5-3.4-6.9-0.9-9.9c1.3-1.6,3.3-2.5,5.4-2.5c1.6,0,3.2,0.6,4.4,1.6l60,49.5c1.6,1.3,2.5,3.3,2.5,5.3c0,2.1-0.9,4-2.5,5.4
	l-59.3,50.6C333.6,342.4,332,343,330.3,343z"/>
<path d="M220.3,343c-1.2,0-2.5-0.3-3.6-1c-1.6-1-2.8-2.5-3.2-4.3c-0.5-1.8-0.2-3.7,0.8-5.3l59.3-100.3c1.3-2.1,3.6-3.4,6-3.4
	c1.2,0,2.5,0.3,3.6,1c1.6,1,2.8,2.5,3.2,4.3c0.5,1.8,0.2,3.7-0.8,5.3l-59.3,100.3C225.1,341.7,222.8,343,220.3,343z"/>
<path d="M210,413c-1.8,0-3.6-0.7-4.9-2.1c-1.3-1.3-2.1-3.1-2.1-4.9c0-0.4,0-0.9,0.1-1.4c0.1-0.4,0.2-0.9,0.4-1.3
	c0.2-0.4,0.4-0.8,0.6-1.2c0.3-0.4,0.5-0.8,0.9-1.1c1.3-1.3,3.1-2,5-2c0.4,0,0.9,0,1.3,0.1c0.4,0.1,0.9,0.2,1.3,0.4
	c0.4,0.2,0.8,0.4,1.2,0.6c0.4,0.3,0.8,0.5,1.1,0.9c0.3,0.3,0.6,0.7,0.8,1c0.3,0.4,0.5,0.8,0.7,1.2c0.2,0.5,0.3,0.9,0.4,1.3
	c0.1,0.5,0.1,1,0.1,1.4s0,0.9-0.1,1.4c-0.1,0.4-0.2,0.9-0.4,1.3c-0.2,0.4-0.4,0.8-0.6,1.2c-0.3,0.4-0.5,0.8-0.9,1.1
	c-0.3,0.3-0.7,0.6-1,0.8c-0.4,0.3-0.8,0.5-1.2,0.7c-0.5,0.2-0.9,0.3-1.3,0.4C210.9,413,210.5,413,210,413z"/>
</svg>
