<svg xmlns="http://www.w3.org/2000/svg" viewBox="0 0 951.44 775.57"><defs><style>.cls-1{opacity:0.5;}.cls-2{fill:#998675;}.cls-3{fill:none;}.cls-4{fill:#6d6a66;}.cls-5{fill:#3f372e;}.cls-6{fill:#fff;}.cls-7{fill:#a5a5a5;}.cls-8{fill:#b5b1ac;}.cls-9{fill:#1a1a1a;}.cls-10{fill:#333;}.cls-11{fill:#4f473e;}.cls-12{fill:#4d4d4d;}.cls-13{fill:#7e6a52;}.cls-14{fill:#f2f2f2;}</style></defs><title>工作區域 3</title><g id="圖層_3" data-name="圖層 3"><g class="cls-1"><path class="cls-2" d="M367.14,188.29c152.74-94.75,286.59,43.38,437,68.33,37.31,6.18,71.84,4.94,98.06,43.43,22.27,32.69,48.61,87.1,35.73,130.4-17,57.18-77.58,129.35-122.5,143.51-55.29,17.43-113.05,23.32-167.83,43.22-60.33,21.9-117.31,58.54-177.4,81.56-63,24.14-137.56,13.17-202.26,3.85C173.73,689,148.14,625.45,118.05,521c-14.81-51.4-35.67-112.56-66.36-151.86C31.89,343.8,7.39,337,6.32,293.67c-1.1-44,31.29-70.37,57.68-90.74,43.92-33.87,85.65-45.56,136.64-44.83C259.33,158.94,309.57,224,367.14,188.29Z"/></g><path class="cls-2" d="M389.74,689.9c-37.49,0-75.58-5.49-111.09-10.61l-1.29-.18c-44.59-6.43-76.18-24.53-99.4-57-20.94-29.26-34.55-68-51-125.06-13.09-45.45-34.2-110.62-66.26-151.66-5.54-7.09-11.43-12.7-17.12-18.14C28.78,313.18,16,301,15.22,269.61c-1.14-45.67,34.4-73.09,57.91-91.23,41.86-32.29,82.82-45.73,137-45,23.35.34,45.5,10.84,66.91,21,33.3,15.79,64.75,30.71,99.27,9.29l.31.51-.31-.51c45.87-28.45,94.36-38.27,148.23-30,48.13,7.38,96.49,28.29,143.26,48.5C715,202.58,763.72,223.65,813.74,232c5.48.91,11,1.66,16.25,2.39,30.7,4.24,59.7,8.25,82.21,41.3C924.41,293.56,963.06,356,948,406.55c-17.43,58.57-78.3,129.85-122.9,143.91-25,7.88-50.93,13.5-76,18.93-30.38,6.58-61.8,13.39-91.79,24.28-31.32,11.37-62.26,27-92.18,42.07-27.69,14-56.32,28.42-85.21,39.49C451.5,686.12,420.82,689.9,389.74,689.9Zm-184-555.31c-51.74,0-91.4,13.5-131.9,44.74-23.33,18-58.57,45.19-57.46,90.25.77,30.88,13.39,42.91,28,56.85,5.73,5.46,11.66,11.1,17.25,18.26C93.84,385.9,115,451.21,128.13,496.76,158,600.38,182.93,664.29,277.54,677.92l1.28.18c64.8,9.34,138.25,19.93,200.68-4,28.83-11.05,57.44-25.48,85.1-39.44,29.95-15.11,60.92-30.74,92.31-42.13,30.06-10.92,61.52-17.74,92-24.33,25-5.42,50.94-11,75.89-18.9,21.16-6.67,47.2-26.87,71.44-55.44,24-28.33,42.52-60.29,50.67-87.66,14.9-50.09-23.52-112.09-35.65-129.9-22.21-32.61-51-36.57-81.39-40.78-5.3-.73-10.78-1.49-16.28-2.4-50.16-8.32-99-29.42-146.2-49.83-97.08-42-188.78-81.61-290.39-18.58-35.07,21.76-66.81,6.71-100.41-9.22-21.3-10.1-43.33-20.55-66.41-20.88Z"/><path class="cls-3" d="M902.34,661l-21.65-12.24h-7.12c8.92,5.42,16.22,9.83,20.28,12.24Z"/><path class="cls-3" d="M466.35,648.77H440.58C449.13,649.17,457.75,648.9,466.35,648.77Z"/><path class="cls-3" d="M843.06,706.83h-6.53c1.66,4.27,3.27,8.74,4.68,12.78h6l-2.76-8.7A41.67,41.67,0,0,0,843.06,706.83Z"/><path class="cls-3" d="M498.2,648.77H479.61C485.8,648.87,492,648.93,498.2,648.77Z"/><path class="cls-3" d="M132.48,661c8.83-5.63,16.18-10,18.23-10.42a25.18,25.18,0,0,0,4.26-1.82h-7.5L125.16,661Z"/><path class="cls-3" d="M93.56,687.84c4.72-4,23.94-17.28,38.92-26.83h-7.32l-22.43,12.3c-.17.07-12.24,5.27-20.82,28.88h4.41C88.81,695.29,91.35,689.74,93.56,687.84Z"/><path class="cls-3" d="M40.09,706.83c-.48,1.31-.94,2.66-1.39,4.08l-2.76,8.7h4.39c1.32-4.41,2.73-8.82,4.16-12.78Z"/><path class="cls-3" d="M877.19,675.22,852.05,661h-8.5c1.53.9,2.62,1.53,3.14,1.81,6.77,3.63,34.1,15,40.21,26.39a126,126,0,0,1,5.72,13h6.53C892.55,685.48,877.31,675.27,877.19,675.22Z"/><path class="cls-4" d="M478.07,648.74c-3.89-.07-7.8,0-11.72,0h13.26Z"/><path class="cls-4" d="M846.69,659.63c-.52-.3-1.61-1-3.14-2H132.48c-15,10.33-34.2,24.64-38.92,29-2.21,2.05-4.75,8.06-7.24,15.51h806.3a141.49,141.49,0,0,0-5.72-14C880.79,675.88,853.46,663.56,846.69,659.63Z"/><path class="cls-4" d="M436.31,648.52a59.4,59.4,0,0,1-20.61-4.93c-.93-.17-1.87-.31-2.8-.5-12.81-2.49-25.53-7.28-36-15.53-9.64-7.57-17.75-17-25.67-26.57-11.57-5.22-23.79-11-26.38-13.77-4.26-4.5-26.27-6.42-31.83-6.84a7.68,7.68,0,0,0-2.48.22c-5.85,1.49-31.11,7.91-32.15,7.89s-43,26.33-43,26.33-45.5,26.61-60.4,33.95H440.58C439.15,648.7,437.73,648.63,436.31,648.52Z"/><path class="cls-4" d="M82.16,719.61c-2.47,9.74-4.61,19.48-6,25.83-.95,4.46.55,9.2,3.7,11.54q1.74,1.29,3.63,2.5H464.47V719.61Z"/><rect class="cls-4" x="472.98" y="719.61" width="55.52" height="39.87"/><path class="cls-4" d="M902.09,735.81c-.54-1.36-2.38-8-4.79-16.2H571.56v39.87H856.73c25.2-2.25,42.63-4.11,44.32-5.61C907.1,748.52,903.3,738.86,902.09,735.81Z"/><path class="cls-4" d="M741.61,598.8a7.67,7.67,0,0,0-3.47-1.14l-84-6.69a6.93,6.93,0,0,1-.78-.1l-27.3-5c-2.71,7-9.49,12.84-14.85,17.27-3.38,2.79-6.88,5.34-10.45,7.74-5.35,8.76-18,13-26.31,16.31-5.92,2.38-12.1,5.83-18.83,8.84a146.06,146.06,0,0,1-24.28,8.76,154.85,154.85,0,0,1-33.18,4H823.27C795,631.59,750.59,604.31,741.61,598.8Z"/><path class="cls-4" d="M44.49,706.83c-1.43,5.57-2.84,11.75-4.16,17.94H274.24V706.83Z"/><path class="cls-4" d="M831.78,706.83H286.51v17.94H836.45C835,719.1,833.44,712.82,831.78,706.83Z"/><rect class="cls-4" x="688.71" y="648.77" width="5.95" height="12.24"/><path class="cls-4" d="M873.57,648.77H699.26V661H893.85C889.79,658.6,882.49,654.19,873.57,648.77Z"/><path class="cls-4" d="M205.26,648.77a25.18,25.18,0,0,1-4.26,1.82c-2,.44-9.4,4.79-18.22,10.42h67.51V648.77Z"/><rect class="cls-4" x="263.54" y="648.77" width="79.49" height="12.24"/><rect class="cls-4" x="356.28" y="648.77" width="10.67" height="12.24"/><path class="cls-4" d="M546.66,648.8c-5.58.11-11.17.06-16.75,0H516.64c-8.59.13-17.22.4-25.77,0H380.2V661H546.66Z"/><path class="cls-4" d="M372,762.71c24.76-.52,90.88,0,116.16,2.06s158.1,7.23,197.49,9.3,70.45,4.12,115.87-9.3c14.15-4.18,43.84-7.86,78.22-11.1H270.2C307.16,762.66,354.47,763.07,372,762.71Z"/><polygon points="256.51 588.94 256.07 588.05 145.42 648.77 147.47 648.77 256.51 588.94"/><polygon points="70.85 746.08 71.74 746.53 77.77 719.61 76.77 719.61 70.85 746.08"/><path d="M102.73,673.31,125.16,661h-2L102.35,672.4c-.54.22-12.73,5.43-21.45,29.79h1C90.49,678.58,102.56,673.38,102.73,673.31Z"/><path d="M40.09,706.83h-1c-.43,1.21-.86,2.45-1.27,3.76l-2.86,9h1l2.76-8.7C39.15,709.49,39.61,708.14,40.09,706.83Z"/><polygon points="197.76 648.77 195.71 648.77 173.41 661 175.46 661 197.76 648.77"/><polygon points="904.34 661 882.69 648.77 880.69 648.77 902.34 661 904.34 661"/><path d="M877.19,675.22c.12,0,15.36,10.26,22,27h1.16c-6.1-17.21-22.25-27.69-22.73-27.88L854.05,661h-2Z"/><polygon points="909.33 746.53 910.23 746.08 904.31 719.61 903.31 719.61 909.33 746.53"/><path d="M844.46,710.91l2.76,8.7h1l-2.86-9c-.32-1.29-.71-2.54-1.14-3.76h-1.16A41.67,41.67,0,0,1,844.46,710.91Z"/><polygon points="725 588.05 724.57 588.94 830.4 648.77 832.4 648.77 725 588.05"/><path class="cls-5" d="M412.53,240.8c-1.58-.23-3.14-.55-4.69-.86-2,0-4-.25-5.55-.33-2.68-.14-5.4,0-8.08,0a7.86,7.86,0,0,1-1.41-.13c-1.08.19-2.16.37-3.24.52-.1.11-.22.21-.31.32-1.69,2.08-2.65,3.22-3.35,5.87a13.48,13.48,0,0,0,0,6.85,16.13,16.13,0,0,0,1.81,4.69,13.9,13.9,0,0,0,8.28,6.42,15.66,15.66,0,0,0,7.81.11,15,15,0,0,0,9.76-7.61A15.55,15.55,0,0,0,415,245.89,12.84,12.84,0,0,0,412.53,240.8Z"/><path class="cls-5" d="M569.62,239.91a73.29,73.29,0,0,1-8.35-.16c-4.95-.13-9.86.71-14.79,1.25a12,12,0,0,0-2.8,5.19,13.48,13.48,0,0,0,0,6.85,16.44,16.44,0,0,0,1.82,4.69,13.9,13.9,0,0,0,8.28,6.42,15.62,15.62,0,0,0,7.8.11,15,15,0,0,0,9.76-7.61,15.5,15.5,0,0,0,1.39-10.76A13.87,13.87,0,0,0,569.62,239.91Z"/><path class="cls-6" d="M696.27,273.39c-2.14-10.3-8.26-20.8-15.72-28.24a57.07,57.07,0,0,0-17.9-12L662,232c-1.62-4.41-3.09-8.88-4.63-13.33-3.85-11.13-8.52-22-13.45-32.71a338,338,0,0,0-25.38-44.6c-9.24-14-19-27.65-29.06-41.08-6.47-8.66-12.83-17.66-21.34-24.48-10.46-8.4-15.43-11.48-28-16.27-7.16-2.74-15.06-3.62-22.7-3.79a43.76,43.76,0,0,0-10.6,1.16A49.33,49.33,0,0,0,474,44.15C450.75,43.91,428,55.2,412.83,72.53c-11.78,13.5-20.92,28.68-30.46,43.73L356.54,157l-.39.61a14.87,14.87,0,0,1-1.67,10.11c-3.9,6.81-6.44,16-11.83,23.74-2.27,3.25-4.66,6.41-6.61,9.86-.83,1.48-1.59,3-2.29,4.54,0,0-1.34,3.47-1.48,3.86-5.8,15.74-11.3,31.77-27.83,39.18-2.24,1-4.52,1.91-6.79,2.86.42-.16-3.19,1.44-3.58,1.64a26.27,26.27,0,0,0-6.8,4.67,55,55,0,0,0-6.67,7c-.57,9.53-3.23,18.5-6.27,27.42a15.92,15.92,0,0,1,.6,3.63c.54,14.17,5.46,28.64,10.54,43.23,8,.13,13.58,7.33,14.09,14.77.05.9.13,1.8.22,2.7,0,.25.1.59.17,1,.31,1.51.61,3,1,4.53a85.06,85.06,0,0,0,3.12,9.71,76.82,76.82,0,0,0,3.38,7.49c1.57,3.18,3.25,6.3,5,9.41,6.79,12.2,14.5,24,20.2,36.73,8.8,19.73,12.36,40.7,13.88,61.94a15.71,15.71,0,0,1,10.67,7.06c7.82,12.38,10.09,30.84,5,44.59-2.94,7.9-7.87,13.64-13.59,19.7-.41.42-2.39,3.14-2.37,2.91-.29.54-.6,1.15-.72,1.32-.32,1.31-.8,3.46-.78,2.87-.16,1.55-.2,3.12-.23,4.68-.09,4.08-.06,7.87.1,11.53-4.24,5.06-3.05,11.53.87,16.48,25.2,31.82,66.55,43,105.5,47.87,40,5,82.32,1.09,120.27-12.69,12.16-4.42,21.66-10.93,31.59-19,9.37-7.62,19.79-14.17,24.59-25.56,2.24-5.31-1.48-11.55-6.36-14.19a66.19,66.19,0,0,1-3-11.08c-1.07-5.7-1.75-11.46-2.42-17.21-.05-.42-.09-.85-.13-1.27-.19-.28-1.27-4.48-1.41-5-1.3-4.69-2.91-9.28-4.32-13.93-2.84-9.37-5.21-19.41-4.38-29.25.79-9.43,3.72-17.78,7.51-26.4,3.71-8.42,7.2-15,10-23.47,1.14-3.46,2.15-6.95,3.06-10.47a16.42,16.42,0,0,1-2.49-12.78c2.72-12.16,9.5-23.69,17-33.54,5.41-7.1,11.58-14.47,18.89-20.1l.5-.69c5.64-7,11.35-14,16.8-21.12,7.31-9.63,12.11-19.44,16.57-30.77C698.78,303.89,699.36,288.2,696.27,273.39Z"/><path class="cls-7" d="M581.51,590.23a46.39,46.39,0,0,1-9.19,2.75A20.59,20.59,0,0,0,581.51,590.23Z"/><path class="cls-8" d="M618.76,586.65c-.67,1.24-1.33,2.48-2,3.72.64.76,1.31,1.53,2,2.32.51-1.65,1-3.3,1.54-4.94A7.65,7.65,0,0,1,618.76,586.65Z"/><path class="cls-8" d="M723.43,458.33c-6.75-8.74-20.44-15-31.54-10.75q-9.89,3.8-19.7,7.8a231.61,231.61,0,0,1,8.91-31.33q1.49-3.21,3.16-6.36c5.22-9.76,5-22.32-.74-31.59,3.86-14.16,7.33-28.44,11-42.6a7.92,7.92,0,0,0,.26-2.21c.71-2.41,1.42-4.82,2.15-7.22a6.88,6.88,0,0,0-.3-5.15,25.84,25.84,0,0,1,3.21-6c0-6.23-.17-12.48-.34-17.36-.47-13-1.44-27.41-3-40s-11.32-41.64-13.05-52.74-11.74-65-14.72-84.32S639.15,69.86,632,63.28s-53.68-39.49-75.44-46.14-61.27-5.93-61.27-5.93C453.28-1.18,414.71,20.89,376.5,39s-56,66.31-72.35,92.57-25.6,134.38-25.6,134.38,2.53-6,3.44-7.44,6.54-7.06,6.54-7.06A91.37,91.37,0,0,1,286.39,273c-2.54,10.77-2.73,53.3-2.73,53.3l-6.24-17.37s-2.88,21.11-5.66,39.7-25.49,81.37-28.5,99.53.4,21.63,1,35.29,3,20.41-1,35.83-20.7,27.87-25.51,32.79,2.31,15.68,2.31,15.68-4.41,19.87-8.08,26.83a37.16,37.16,0,0,1-9.82,11.4s13.74-1.1,16.65,2.13,33.2-3.2,34.32-1.34,37.76,2.84,37.76,2.84,36.41-6.14,48.29-4.59S361.23,596,361.23,596s13.53-42.08,13.3-34.71-1.56,19,9.74,37.06a52.22,52.22,0,0,0,29.34,22.29s-2.58-.87-14.67-7.49-9.74-15.92-11.85-28.47,1.68-24.06,2.44-45S378.17,503,369.25,482c-3-7.12-7.28-17.08-12-28a25.14,25.14,0,0,1-2.58-3.09c-2.3-3.31-4.24-7.28-4.35-11.38l-.09-.17a8,8,0,0,1-.75-2.11,7,7,0,0,1-1.55-4.64c0-5.23.14-10.47.35-15.7l-.87-2.11c-2.42-5.9-5.36-11.6-7.48-17.62-2-5.54-2.05-12.18-4.58-17.43a7.78,7.78,0,0,1-.81-3.55c-4.16.21-8.54.57-11.89-2.22-3.74-3.09-5-8.32-6.67-12.7-4.3-11.26-2.68-22.75-2.05-34.48,0-.24.05-.48.08-.71-.13-1.11-.27-2.22-.4-3.35-3.24-28,9.06-77.29,11-86.36s22.91-44.77,22.91-44.77,32.64-61.45,63.69-88.23S471,76.5,474.52,77.93l4,2.57a49.75,49.75,0,0,0,12.32-1.84c6.35-1.84,9.82.41,14.42.81s25,1.81,30,4.13,23.45,8,30.45,12.63,31.88,29.07,45,43.11,26,50.35,33,66.78,11,27.94,11.15,29.2,1.19,25.36,1.19,25.36l11.36-10.6s8.85-.8,10.78.46,6.35,8.4,8.33,10.27,6.29,20.4,5.91,28.94-5.21,21.07-5.14,24.35-3.76,8.45-4,9.26c-.14.42-3.46,8.31-6.65,15.84a7.88,7.88,0,0,0-1,1.61,53.74,53.74,0,0,1-15.56,19.91c-7.09,5.46-15.62,9.26-23.6,13.34l-4.92-1.4-13,37.44-.19,1.1c-2.74,9.09-3.32,18.72-4.28,28.37,0,.36-.05.73-.06,1.1s-.11.51-.17.76c-3.45,15.63-6.53,31.4-12.21,46.39-1,2.14-2,4.25-3.15,6.34-6.08,11.37-5.3,27.17,4.69,36.35,10.38,9.53,23.87,10.77,36.36,4.69l1.7-.81c-.19.52-.39,1-.57,1.55-5.3,14.79,6,33.49,20.95,36.9,16.85,3.84,31.23-5.11,36.9-21q3.84-10.71,8.17-21.23,8.64-19.93,19.06-39A30.29,30.29,0,0,0,723.43,458.33Z"/><path class="cls-9" d="M655.2,258.33a2.37,2.37,0,0,0-.63-1.56,28.83,28.83,0,0,0,.15-8.35s0-.1,0-.15c.05-.52.09-1.05.14-1.57,0-.09,0-.17,0-.25.87-2.9-1.33-5.23-4.22-6.19-4.08-1.35-8.08-3.67-12.49-3.6a2.46,2.46,0,0,0-1.05.24l-.25,0a4.42,4.42,0,0,0-2.44-1.21,4.7,4.7,0,0,0-1.31-.44,4.1,4.1,0,0,0-2.95-.81,5,5,0,0,0-1.45-.52c-.86-.16-1.58-.28-2.29-.35a5.31,5.31,0,0,0-1.59-.55,316.08,316.08,0,0,0-41.61-4.55c-14.11-.49-28.11,1.51-42.2,1.22a4.73,4.73,0,0,0-2.86.81H538c-7.31.48-14.74.64-21.92,2.14a5.23,5.23,0,0,0-3.29.33l-.39.17a2.44,2.44,0,0,0-1.14,0c-7.73,1.7-14.65,5.31-22.19,7.52-8.05,2.37-17.77.21-25.66-1.89-3.09-.83-4.41,3.92-1.32,4.75,1.47.39,3,.77,4.54,1.13,0,3,1.64,5.51,1.39,8.56a2.18,2.18,0,0,0,.19,1.07,9.25,9.25,0,0,0-3.79,4.58c-.81,2.11,1.9,3.75,3.65,2.78a31.52,31.52,0,0,1,16-4.29,27.8,27.8,0,0,1,4.33,1.22c3.53,1.32,4.25,2.3,5.14,5.69a2.22,2.22,0,0,0,1.09,1.46c1.85,8.13,3.69,16.51,6.21,24.55a1.56,1.56,0,0,0-.23.28,3.76,3.76,0,0,1,.29,1.83c-.21,2.12.82,4.05,1.41,6.06.21.72.39,1.45.54,2.18a2.75,2.75,0,0,0,1,.35c.3,1,.6,2,.93,3a7.88,7.88,0,0,1,.54,1,24.82,24.82,0,0,0,3.44,5.12,32,32,0,0,0,3.27,3.41c.38.2.76.38,1.14.59,2,2.57,6.48,3.63,9.25,4.75a31.32,31.32,0,0,0,3.54,1.19c4.47.6,8.88,1.71,13.4,1.9a2.17,2.17,0,0,0,.67-.3c.57,0,1.15.08,1.73.09a19.71,19.71,0,0,1,2.95.27c1.29,0,2.59.12,3.92.16,4.28.14,8.6,0,12.87-.28,1.51-.1,3-.23,4.52-.36a1.94,1.94,0,0,0,.42.48c5.15-.3,10.24-.87,15.44-.88l.13-.13c.9.08,1.8.18,2.7.31,2.35-.11,4.75,0,7.09,0a5,5,0,0,0,2.12-.46,37.3,37.3,0,0,0,16.61-2.19c2-.69,3.94-1.65,5.8-2.41,2.4-1,3.6-2.81,5.69-4.09a4.88,4.88,0,0,0,1.85-1.94,5.29,5.29,0,0,0,1.34-1.4c1.12-1.73,3-2.49,4.27-4.07a13.52,13.52,0,0,0,2.07-4.55,65.65,65.65,0,0,0,2.51-12.41,5.29,5.29,0,0,0,.8-2.29c.46-4.39,1.38-8.65,2-13a4,4,0,0,0,1.35-.95,14,14,0,0,1,1.51-1.47c.31-.21.63-.41,1-.6a5.51,5.51,0,0,0,3.74-.57,2,2,0,0,1-.07-.26c2.83-.35,6.19.63,8.62-.85S655.31,260.86,655.2,258.33Zm-22,11.1c-.91,7-1.57,14.31-3.55,21.13h0A22.45,22.45,0,0,1,624,303.94c-5.17,9.14-18.21,11.56-28.09,12.14a70.44,70.44,0,0,1-12.2,1.18l-2,.05a2.3,2.3,0,0,0-1.39-.36q-3,.1-5.94.26c-2.28,0-4.55-.1-6.82,0-5.57.13-11.09,1-16.66,1-3.46,0-6.93-.21-10.39-.44a31.12,31.12,0,0,1-12-2h0c-.38-.09-.75-.18-1.11-.29a42.19,42.19,0,0,1-4.22-1.62c-.45-.18-2.09-.69-3.51-1.2a30.43,30.43,0,0,1-3.75-2.73,32,32,0,0,1-8-10.48c-.39-.79-.74-1.59-1.08-2.4-.37-1.92-1.43-3.62-1.82-5.58a1.91,1.91,0,0,0-.33-.74,66.46,66.46,0,0,1-2.12-14.11c-.15-.71-.3-1.43-.42-2.14s-.3-1.48-.47-2.22a5.29,5.29,0,0,1-.12-1.56c-.08-.38-.18-.75-.26-1.13a18.16,18.16,0,0,1-1.24-5.49,5.35,5.35,0,0,1,.15-1.48c-.23-2.3-.34-4.62-.34-7,0-4.5.24-9.22,3.81-12.42a24.36,24.36,0,0,1,8.9-5,4.91,4.91,0,0,1,1.61-.67l1-.22a4.7,4.7,0,0,1,3.08-1l.38,0c4.32-1.45,9.22-1.44,13.68-1.7,2.61-.16,5.39-.65,8.13-.79a5.12,5.12,0,0,1,1.06-.14c7.31-.13,14.59-1.22,21.9-1.53a54.68,54.68,0,0,1,8.41-.24h.09a56.65,56.65,0,0,1,13.13.94c4.34.79,9.48.32,13.59,1.91a4.85,4.85,0,0,1,.69.32,30.26,30.26,0,0,1,10.38,2.72l.12.08a39.18,39.18,0,0,1,8.06,2.14c2.72,1,5.8,1.1,8,3.17l1.5.47a4.64,4.64,0,0,1,3.24,3.07,4.39,4.39,0,0,1,1.29,4.49c.84,2.33,2,4.38,2.08,7.12A73,73,0,0,1,633.25,269.43Z"/><path class="cls-9" d="M468.1,243.48c-2.53-3.46-7.72-7-12.44-7.8a4.3,4.3,0,0,0-.87-.5l-5.13-2.24a5.24,5.24,0,0,0-3.29-.33c-7.18-1.5-14.61-1.66-21.93-2.14h-.05a4.73,4.73,0,0,0-2.86-.81c-14.09.29-28.09-1.71-42.2-1.22A316.08,316.08,0,0,0,337.72,233a5.31,5.31,0,0,0-1.59.55c-.71.07-1.43.19-2.29.35a5,5,0,0,0-1.45.52,4.1,4.1,0,0,0-2.95.81,4.7,4.7,0,0,0-1.31.44,4.42,4.42,0,0,0-2.44,1.21,5.56,5.56,0,0,0-1.51.26q-.1.26-.24.51c-1.19,2.2-.88,5.89-1.24,8.28-.52,3.4-1.8,6.63-2.35,10-.66,4.1-1.14,8.75-2.36,13a5.51,5.51,0,0,0,3.74.57c.33.19.66.39,1,.6a14,14,0,0,1,1.51,1.47,4,4,0,0,0,1.35.95c.6,4.32,1.52,8.58,2,13a5.29,5.29,0,0,0,.8,2.29,64.88,64.88,0,0,0,2.51,12.41,13.52,13.52,0,0,0,2.07,4.55c1.28,1.58,3.14,2.34,4.27,4.07a5.29,5.29,0,0,0,1.34,1.4,4.88,4.88,0,0,0,1.85,1.94c2.09,1.28,3.28,3.11,5.68,4.09,1.86.76,3.82,1.72,5.8,2.41a37.33,37.33,0,0,0,16.61,2.19,5.06,5.06,0,0,0,2.13.46c3.69,0,7.5-.27,11.11.51a41.2,41.2,0,0,0,11,.74,5.28,5.28,0,0,0,1.74-.37c6,.6,12.7,1.61,18.59.67a50.59,50.59,0,0,1,7.57-1.1,15.77,15.77,0,0,0,6.79-1.36,32.88,32.88,0,0,0,3.84,0,5.61,5.61,0,0,0,3.17-1.23c.24-.06.49-.15.74-.24.54,0,1.08,0,1.61,0a4.39,4.39,0,0,0,3.53-1.48,31,31,0,0,0,3.09-.67c2.8-.81,5.39-2.53,8-3.78,5.06-2.45,6-8.91,7.71-13.74a4.55,4.55,0,0,0,.23-2.43c4.42-11.66,6.85-24.48,9.69-36.43C470.35,254.76,471.83,248.56,468.1,243.48Zm-8,30.65c-.18,8.67-1.6,17.43-5.44,25.29a32,32,0,0,1-8,10.48,26.89,26.89,0,0,1-5.89,3.9,12.62,12.62,0,0,1-3.36.81l-.13.06a14.72,14.72,0,0,1-3.07,1l-.39.06a6.16,6.16,0,0,1-.77.24,4.88,4.88,0,0,1-3.15,1.27c-6.08.23-12.16.9-18.25.9-5.56,0-11.08-.85-16.65-1-5.38-.13-10.79.29-16.17.09-4.21-.16-9.42-.34-13.6-1.53-3.52-.74-7.38-.76-10.72-2a54.82,54.82,0,0,1-10.59-5.07c-6.16-4.08-10.67-10.69-11.1-18.08h0c-2-6.82-2.64-14.12-3.55-21.13a73,73,0,0,1-.69-11.16c.08-2.74,1.24-4.79,2.08-7.12a4.39,4.39,0,0,1,1.29-4.49,4.63,4.63,0,0,1,3.24-3.07l1.5-.47c2.19-2.07,5.27-2.13,8-3.17a39,39,0,0,1,8.06-2.14l.12-.08A30.26,30.26,0,0,1,363.21,235a5.29,5.29,0,0,1,.68-.32c4.12-1.59,9.26-1.12,13.6-1.91a56.65,56.65,0,0,1,13.13-.94h.09a54.68,54.68,0,0,1,8.41.24c7.31.31,14.59,1.4,21.9,1.53a4.93,4.93,0,0,1,1.05.14c2.75.14,5.53.63,8.14.79,5.06.29,10.68.24,15.38,2.36.93.18,1.86.36,2.79.58a4.91,4.91,0,0,1,1.61.67,24.36,24.36,0,0,1,8.9,5c3.56,3.2,3.82,7.92,3.81,12.42A63.81,63.81,0,0,1,460.09,274.13Z"/><path class="cls-9" d="M416.2,318.57c-3.34,0-6.65-.11-9.84-.22l-.55,0c-1.4,0-2.85,0-4.29,0h-.67c-6.51-.06-13.45-.14-20.38-.39l-.91,0-3.25-.16c-17.2-.78-37.72-4.32-43.7-25-.11-.38-.29-.95-.5-1.62a54.49,54.49,0,0,1-1.81-6.61c-.68-5.87-1-10.57-1-10.61-.08-.48-1.94-12.73-.95-16a28.61,28.61,0,0,0,.65-3.2c.58-3.5,1.37-8.28,4.36-10.71,3.78-3.07,31.7-12.73,59.51-12.73h0c1.83.08,44.78,2.13,51.56,4.23,9.53,3,15.18,6.22,16.8,9.73s3.17,10.55,1,23.42c-.23,1.36-.45,2.73-.67,4.09-1,5.93-2,12-3.47,18-.28.92-.56,1.83-.84,2.71-.19.6-.38,1.18-.55,1.75C450.35,315.71,432.86,318.57,416.2,318.57Zm-23.37-86.34c-26.4,0-54.91,9.3-58.87,12.51-2.7,2.2-3.43,6.58-4,10.11a27.88,27.88,0,0,1-.68,3.33c-.93,3,1,15.43,1,15.56s.35,4.76,1,10.6a56.94,56.94,0,0,0,1.77,6.44c.22.68.4,1.26.51,1.64,5.81,20.09,25.92,23.55,42.79,24.31l3.26.15.9.05c6.92.25,13.85.33,20.35.39h.66l4.31,0,.57,0c19.66.69,42,1.46,49.35-22.51.17-.57.36-1.16.55-1.75.28-.88.56-1.78.83-2.68,1.49-5.85,2.48-11.95,3.45-17.86.22-1.36.44-2.73.67-4.09,2.12-12.63.66-19.4-.93-22.85-1.5-3.24-6.95-6.34-16.2-9.2C437.51,234.37,393.76,232.28,392.83,232.23Z"/><path class="cls-9" d="M401.75,323.18c-8.71,0-17.36-.48-25.89-.95-4.73-.26-9.63-.53-14.41-.71-10.9-1.07-19.61-5.51-25.23-12.85-.88-1.28-1.76-2.38-2.53-3.35a22.53,22.53,0,0,1-2.49-3.53,120.94,120.94,0,0,1-5.73-27.45c-1.09-3.71-4.3-4.23-7.78-4.46l.07-1c3.69.25,7.4.86,8.68,5.26a121.37,121.37,0,0,0,5.67,27.26,23.35,23.35,0,0,0,2.36,3.3c.78,1,1.67,2.09,2.55,3.39,5.44,7.09,13.91,11.4,24.5,12.43,4.76.18,9.66.45,14.4.72,20.94,1.15,42.61,2.35,63.95-3.62,14.34-4,17.66-10.3,21.65-29.88,2.33-11.45,5.57-25.42,7.85-27.28a17.77,17.77,0,0,1,11.79-3.63l0,1a16.79,16.79,0,0,0-11.14,3.4c-1.55,1.27-4.35,11.24-7.49,26.66-4,19.77-7.64,26.57-22.37,30.69C427.36,322.15,414.5,323.18,401.75,323.18Z"/><path class="cls-9" d="M481.15,241.7c-13.51,0-21.1-3.72-29.13-7.66a14.51,14.51,0,0,0-4.67-1.37c-28.66-3.28-51.84-4.42-72.94-3.59-20.58,1.18-36,3.6-50.05,7.85l-.29-.94c14.11-4.27,29.62-6.71,50.29-7.9,21.17-.83,44.39.32,73.1,3.6a15.16,15.16,0,0,1,5,1.47c8.27,4.05,15.41,7.55,28.69,7.55Z"/><path class="cls-9" d="M553,322.45c-32.34,0-45-4.15-51.95-27.46-.28-.94-.46-1.88-.64-2.78-.08-.37-.15-.73-.22-1.09-4.07-18.89-6.52-27.85-8.18-30-1.48-1.89-6.15-3.32-10.86-3.32v-1c5.07,0,10,1.56,11.65,3.7s4.2,11.08,8.36,30.37c.08.37.15.74.22,1.11.18.88.36,1.79.62,2.69,6.78,22.89,18.68,26.76,51,26.76,1.63,0,3.27,0,4.93-.06l1.3,0c9.63-.16,18-.38,25-.63,1.95-.08,3.88-.18,5.7-.27,8.28.31,35.61-.57,41.89-25.31.24-.88.47-1.77.72-2.71.29-1.14.6-2.33,1-3.56.46-2.73,1.11-5.5,1.73-8.17a72.17,72.17,0,0,0,1.61-8.23c.26-2.78,8.31-4.45,10.37-4.45h3.66a3.61,3.61,0,0,0,3-1.78,4.31,4.31,0,0,0,.63-2.25V247.52c0-.14.87-5-1.61-5.85l-.4-.15c-10.11-3.74-38.81-12.44-86.94-12.44-.49,0-51.44,2.14-61.92,6.27-2.95,1.16-5.12,2.19-6.87,3-4.73,2.22-7.11,3.34-15.63,3.34v-1c8.3,0,10.6-1.08,15.2-3.24,1.76-.83,3.95-1.86,6.93-3,10.63-4.19,60.17-6.26,62.27-6.35,48.31,0,77.15,8.75,87.31,12.51l.38.14c3.27,1.18,2.31,6.63,2.27,6.86V264a5.32,5.32,0,0,1-.77,2.76,4.59,4.59,0,0,1-3.9,2.25h-3.66c-2.4,0-9.21,1.78-9.38,3.57a72.93,72.93,0,0,1-1.63,8.35c-.62,2.66-1.26,5.41-1.73,8.16-.36,1.28-.67,2.46-1,3.6-.24.94-.48,1.84-.72,2.71-4.35,17.17-20.36,26.9-42.84,26-1.78.1-3.72.2-5.67.27-7,.26-15.37.47-25,.63l-1.3,0C556.28,322.42,554.63,322.45,553,322.45Z"/><path class="cls-9" d="M546.09,318.57c-16.66,0-34.14-2.86-40.49-23.43l-.55-1.75c-.28-.88-.57-1.79-.84-2.69-1.51-5.93-2.51-12.05-3.47-18-.22-1.36-.45-2.73-.67-4.09-2.16-12.87-.65-19.84,1-23.42s7.27-6.78,16.8-9.73c6.78-2.1,49.74-4.15,51.56-4.23h0c27.82,0,55.74,9.66,59.51,12.73,3,2.43,3.79,7.21,4.37,10.71a26.51,26.51,0,0,0,.65,3.2c1,3.23-.88,15.48-1,16,0,.09-1.33,6.21-2,12-.31,2.15-1.37,7.73-1.83,9.26-6.05,19.91-22.65,21.08-38.7,22.2l-4.49.33c-.94.08-1.87.11-2.82.15l-1.35.05c-6.94.25-13.87.33-20.38.39h-.67c-1.45,0-2.9,0-4.3,0l-.55,0C552.75,318.46,549.44,318.57,546.09,318.57Zm23.38-86.34c-.94.05-44.68,2.14-51.3,4.19-9.25,2.86-14.7,6-16.19,9.2-1.6,3.45-3.05,10.22-.93,22.85.22,1.36.45,2.73.67,4.09,1,5.91,2,12,3.45,17.88.27.88.55,1.78.83,2.66.19.59.37,1.18.55,1.75,7.4,24,29.69,23.2,49.35,22.51l.55,0,4.32,0h.67c6.5-.06,13.43-.14,20.35-.39l1.35-.06c.94,0,1.86-.07,2.78-.14l4.5-.33c16.44-1.15,32-2.24,37.81-21.51.44-1.44,1.5-7,1.8-9.09.67-5.86,2-12,2-12.09s1.91-12.52,1-15.53a30.28,30.28,0,0,1-.67-3.33c-.59-3.53-1.32-7.91-4-10.11C624.38,241.53,595.87,232.23,569.47,232.23Z"/><path class="cls-9" d="M481.28,379.78c-3.4,0-7.42-1.49-12.63-4.66s-8.45-1.95-11.84-.62c-2.16.84-4.39,1.72-7.1,1.3a10.55,10.55,0,0,1-7-4.6c-3.86-5.38-4.63-13.71-3.72-19.17,1.12-6.64,4.94-12.2,8.32-17.12,2.41-3.51,4.69-6.83,5.48-9.89,1.9-7.34,11.49-56.53,11.59-57l1,.19c-.09.5-9.69,49.72-11.59,57.09-.84,3.24-3.17,6.63-5.63,10.21-3.32,4.83-7.08,10.3-8.16,16.71-.88,5.27-.14,13.28,3.55,18.43a9.58,9.58,0,0,0,6.33,4.19c2.45.38,4.46-.41,6.59-1.24,3.46-1.36,7-2.76,12.71.69,5.06,3.08,8.91,4.52,12.12,4.52Z"/><path class="cls-9" d="M480.74,379.78v-1c3.21,0,7.07-1.44,12.12-4.52,5.68-3.45,9.26-2.05,12.71-.69,2.13.83,4.13,1.62,6.59,1.24a9.58,9.58,0,0,0,6.33-4.19c3.7-5.15,4.43-13.17,3.55-18.43-1.08-6.41-4.84-11.88-8.15-16.71-2.47-3.59-4.79-7-5.63-10.21-1.91-7.37-11.5-56.59-11.6-57.09l1-.19c.1.5,9.69,49.69,11.59,57,.79,3.06,3.07,6.38,5.49,9.89,3.37,4.91,7.2,10.48,8.31,17.12.92,5.46.14,13.79-3.72,19.17a10.51,10.51,0,0,1-7,4.6c-2.71.42-4.94-.46-7.1-1.3-3.38-1.33-6.58-2.58-11.83.62S484.14,379.78,480.74,379.78Z"/><path class="cls-9" d="M482.58,413.67h-3.86c-3-.17-5.69-1.26-5.53-8,0-1.36.59-6.53,1.08-11.1.33-3.13.65-6.09.65-6.49h1c0,.43-.26,2.79-.67,6.6-.46,4.32-1,9.69-1.07,11-.14,6.2,2.08,6.84,4.56,7h3.68l3.83-1.2.29,1Z"/><path class="cls-9" d="M434.36,428.09c-1.74,0-7.4-.45-11.15-.75l-1.46-.11.08-1,1.46.12c3.51.28,9.37.74,11.07.74,3.37,0,12.33-2,12.42-2,.63-.06,14-1.36,18.06-1.21a30.78,30.78,0,0,1,6.84,1c.47.11.93.23,1.4.33a10.24,10.24,0,0,1,1.87.65,12.07,12.07,0,0,0,5.73,1.09v1a13.13,13.13,0,0,1-6.13-1.17,8.35,8.35,0,0,0-1.68-.59l-1.43-.34a30,30,0,0,0-6.64-1c-4-.16-17.72,1.19-17.86,1.2C446.63,426.11,437.84,428.09,434.36,428.09Z"/><path class="cls-9" d="M480.68,428v-1a12.27,12.27,0,0,0,5.73-1.09,9.88,9.88,0,0,1,1.86-.65c.47-.1.93-.22,1.41-.33a30.67,30.67,0,0,1,6.83-1c4.08-.16,17.43,1.15,18,1.2.12,0,9.16,1.45,12.54,1.45,6.12,0,10.31-.09,12.47-.26l.08,1c-2.18.17-6.4.26-12.55.26-3.46,0-12.29-1.39-12.67-1.45-.11,0-13.8-1.36-17.82-1.2a30.15,30.15,0,0,0-6.65,1l-1.43.34a8.57,8.57,0,0,0-1.68.59A13.07,13.07,0,0,1,480.68,428Z"/><path class="cls-9" d="M465.13,443.9h-.05c-1.25,0-8.18-.58-11.3-1.81-.62-.24-1.17-.44-1.67-.61-2.27-.8-3.77-1.32-6.45-4.5a21.62,21.62,0,0,1-1.52-2.21c-.93-1.47-1.88-3-3-3.65l.5-.86c1.35.79,2.37,2.41,3.36,4a19.63,19.63,0,0,0,1.44,2.11c2.5,3,3.82,3.42,6,4.19.52.18,1.08.38,1.71.63,2.95,1.16,9.79,1.71,11,1.74h.13l1.1-.09c2.93-.22,10.71-.83,14.62-.83v1c-3.87,0-11.63.6-14.55.83l-1.12.08Z"/><path class="cls-9" d="M496.77,443.9h-.15l-1.13-.08c-2.91-.23-10.67-.83-14.54-.83v-1c3.91,0,11.69.61,14.62.83l1.11.09h.12c1.17,0,8-.58,11-1.74.63-.25,1.19-.45,1.71-.63,2.18-.77,3.5-1.23,6-4.19.48-.58,1-1.33,1.52-2.12a16.24,16.24,0,0,1,3.27-3.93l.59.8a15.93,15.93,0,0,0-3,3.69,24.84,24.84,0,0,1-1.59,2.2c-2.67,3.18-4.17,3.7-6.44,4.5-.51.17-1.06.37-1.67.61-3.12,1.23-10.05,1.78-11.3,1.81Z"/><path class="cls-9" d="M466.5,446.58l-.39-.92c.28-.12,6.94-3,11.36-3h6.28c1,.09,9,.92,10.83,3.21l-.78.63c-1.33-1.67-7.74-2.61-10.1-2.84h-6.23C473.26,443.7,466.57,446.56,466.5,446.58Z"/><path class="cls-9" d="M475.58,519.85c-10,0-32.34-1.19-45.57-11.05-18.14-13.52-38.3-27.22-38.5-27.36s-16-9.45-29.42-34.31c-13.19-24.37-20.33-38.87-28.78-66.5-4.9-16.06-17.78-93.26-17.91-94l1-.16c.13.78,13,77.92,17.89,93.91,8.41,27.55,15.53,42,28.69,66.33,13.31,24.59,28.92,33.85,29.08,33.94s20.41,13.87,38.57,27.41c17.06,12.71,49.71,10.75,50,10.73l.07,1C480.63,519.74,478.7,519.85,475.58,519.85Z"/><path class="cls-9" d="M485.77,519.85c-3.12,0-5-.11-5.13-.12l.07-1c.33,0,33,2,50-10.73,18.16-13.54,38.34-27.25,38.54-27.39s15.8-9.37,29.11-34c13.16-24.31,20.28-38.78,28.7-66.33,4.89-16,22.14-110.92,22.32-111.88l1,.18c-.18,1-17.45,95.93-22.35,112-8.45,27.63-15.59,42.14-28.78,66.5C585.81,472,570,481.37,569.81,481.46s-20.33,13.82-38.47,27.34C518.12,518.66,495.79,519.85,485.77,519.85Z"/><path class="cls-9" d="M332.05,370.42c-5.19,3.9-9.8,2.1-10.4,1.84-.22-.2-1.09-1-2.45-2.11a9.4,9.4,0,0,1,0,1.3c1.16,1,1.82,1.57,1.85,1.6l.11.07a9.73,9.73,0,0,0,3.95.77,12.41,12.41,0,0,0,7.54-2.68Z"/><path class="cls-9" d="M280.57,317.77c-3.08-9.45-5.3-17.76-5.85-20.73-1.77-9.7-.54-18.08,1.84-27.69,2.6-10.46,4.71-14.26,9.89-17.43.06-.42.12-.85.19-1.27l0,0c-5.9,3.39-8.27,7.35-11,18.45-2.42,9.72-3.66,18.23-1.85,28.09.44,2.44,2.95,12,6.52,22.79Z"/><path class="cls-9" d="M282.19,307.47c.12-.78.24-1.56.37-2.34-.59-2.14-1.08-4.12-1.42-5.76-1.37-6.53-1.31-14.61-1.28-18.5v-1.26c0-2.52,3.46-10.27,5.75-15.4l.16-.37c0-.83,0-1.67,0-2.51-.33.75-.69,1.58-1.09,2.48-2.46,5.52-5.83,13.08-5.83,15.8v1.26c0,3.91-.08,12.06,1.3,18.71C280.61,301.74,281.34,304.53,282.19,307.47Z"/><path class="cls-9" d="M312.28,320.17c-.12.4-.25.8-.39,1.19,3.7,5.39,10.93,18,10.34,24.18-.19,2-.66,3.19-1.38,3.55-1.05.52-2.88-.58-4.81-1.75a34,34,0,0,0-3.18-1.75c0,.36,0,.72,0,1.08.9.44,1.8,1,2.68,1.51,1.78,1.08,3.37,2,4.71,2a2.33,2.33,0,0,0,1.07-.24c1.08-.54,1.69-1.91,1.92-4.34C323.86,338.93,316,325.37,312.28,320.17Z"/><path class="cls-9" d="M637.75,372.75a12.4,12.4,0,0,1-7.53-2.68l.6-.8c5.19,3.9,9.8,2.1,10.4,1.84a271.92,271.92,0,0,1,23.27-18.06c9.86-6.77,22.26-49.55,23.65-57.16,1.77-9.69.55-18.08-1.84-27.68-2.7-10.9-4.87-14.56-10.54-17.83a10.77,10.77,0,0,0-10.59,0l-9.78,8.48-.65-.76,9.84-8.52a11.55,11.55,0,0,1,11.67,0c5.89,3.38,8.26,7.35,11,18.45,2.41,9.73,3.65,18.23,1.85,28.1-1,5.69-13.36,50.45-24.07,57.8a273.35,273.35,0,0,0-23.23,18l-.12.08A10,10,0,0,1,637.75,372.75Z"/><path class="cls-9" d="M642.64,349.08a2.38,2.38,0,0,1-1.08-.25c-1.07-.55-1.68-1.93-1.91-4.34-.72-7.52,9.52-24.11,12.19-27.07.45-.5.72-.68,1-.68,1.13,0,6.5-2.05,7.53-5.13,1.11-3.31.94-9.21.94-9.27s-.78-4-5.7-4.4c-5.7-.41-7.79-10.91-7.87-11.36l1-.19c0,.1,2,10.2,7,10.55a6.87,6.87,0,0,1,6.61,5.3c0,.32.19,6.2-1,9.69s-6.83,5.72-8.37,5.8c-1.48,1-13,19-12.3,26.66.19,2,.65,3.18,1.37,3.54,1,.54,2.88-.57,4.82-1.74a27.89,27.89,0,0,1,3.64-2c1.75-.72,12.36-9,16.3-12.16h0a108.49,108.49,0,0,0,7.07-9.28c1.81-3.09,6.38-17.32,7.89-24.56,1.37-6.54,1.31-14.62,1.28-18.5v-1.27c0-2.51-3.46-10.26-5.75-15.39-.64-1.45-1.22-2.75-1.66-3.77a3.79,3.79,0,0,0-2.15-2.33c-2.23-.81-5.67,1-8.7,2.57C660,262,648.11,276.35,648,276.49l-.76-.64c.49-.59,12.15-14.63,17.06-17.19,3.21-1.68,6.85-3.58,9.5-2.63a4.82,4.82,0,0,1,2.73,2.87c.43,1,1,2.32,1.65,3.76,2.46,5.52,5.83,13.08,5.83,15.8v1.26c0,3.92.08,12.07-1.3,18.71-1.53,7.32-6.17,21.72-8,24.87a103.18,103.18,0,0,1-7.23,9.49c-.65.53-14.37,11.45-16.61,12.37a25.51,25.51,0,0,0-3.51,1.89C645.57,348.12,644,349.08,642.64,349.08Z"/><path class="cls-9" d="M650.41,285.14l-.1-1,7.15-.73a28.27,28.27,0,0,0,6.82-1.8c3.86-1.55,8-5.33,8.08-8.76l-2.26-9.68,1-.23,2.28,9.85c0,4.32-5.09,8.3-8.7,9.75a29.1,29.1,0,0,1-7.08,1.86Z"/><path class="cls-9" d="M658.31,332.65l-.86-.5,8.22-14.26a21.18,21.18,0,0,0,2-16.16c-1.45-5.23-2.41-8.5-2.78-9.46-.51-1.32-8.43-1.46-15.47-.83l-.09-1c3.61-.32,15.46-1.16,16.48,1.47.39,1,1.34,4.21,2.82,9.55a22.21,22.21,0,0,1-2.14,16.93Z"/><path class="cls-9" d="M348.49,436.49h-1c0-7.16-1.28-24-1.29-24.19l1-.08C347.21,412.39,348.49,429.3,348.49,436.49Z"/><path class="cls-9" d="M614.06,445.57h-1c0-7.19,1.08-33.07,1.09-33.33l1,0C615.14,412.54,614.06,438.41,614.06,445.57Z"/><path class="cls-9" d="M492.74,564.79l-.12,0c-.18,0-17.64-3.16-25.44-6.2-6.19-2.42-6.67-4.61-7.27-7.38a18,18,0,0,0-.76-2.72l.92-.37a17.08,17.08,0,0,1,.81,2.88c.56,2.57,1,4.44,6.66,6.66,7.37,2.87,23.58,5.84,25.13,6.12L504,560.17l.3,1Z"/><path class="cls-9" d="M481.21,650.32c-53.87,0-96.61-13.48-127-40.07l.65-.75c30.24,26.43,72.76,39.82,126.38,39.82Z"/><path class="cls-9" d="M481.21,650.19v-1c80.52,0,118.77-29.29,134.4-46.76l.74.67C600.6,620.69,562.11,650.19,481.21,650.19Z"/><path class="cls-10" d="M564.47,593.52l-.15-1c34-5.1,35.89-28.16,35.91-28.4l1,.07C601.21,564.45,599.31,588.29,564.47,593.52Z"/><path class="cls-10" d="M308.09,601.59l-.43-.89c46.64-22.1,45.57-45.23,43.95-80.23-.25-5.37-.51-10.92-.61-16.83-.4-21.89-8.5-50.73-8.58-51q-2.54-7.1-5-13.89C322.43,397,310.57,364,308.39,322c-2.34-45.07,35.89-134.62,53.69-168.55,15.12-28.82,33-50.08,53.05-63.19s36.92-14.41,45.24-14.06c9.33.39,15.78,3.07,18.09,5.84.76-4,3.24-17,6-29.84,6.8-31.47,8.65-31.56,9.53-31.6l.05,1c-2.61,1-10.51,38.51-14.87,61.88l-.3,1.62-.64-1.52c-1.17-2.78-7.85-6-17.93-6.37-13.12-.55-58.88,3.37-97.36,76.72-17.77,33.85-55.92,123.17-53.59,168,2.17,41.83,14,74.77,29,116.47q2.43,6.78,5,13.93c.09.32,8.22,29.27,8.62,51.29.11,5.89.36,11.44.61,16.8C354.24,555.82,355.33,579.21,308.09,601.59Z"/><path class="cls-10" d="M652.8,241.24c-1.64-22.79-20.55-71.74-41.56-98.35-28.18-35.65-57.52-51-77.17-57.69-23.9-8.07-40.7-6.07-45.09-3.84l-.45-.87c5.74-2.92,23.76-3.68,45.86,3.78,19.78,6.68,49.3,22.17,77.63,58,21.12,26.73,40.12,76,41.77,98.88Z"/><path class="cls-10" d="M277.18,267.23c0-.21-1.48-22.32,6.83-71.22,7.46-43.89,29.17-92.13,54-120,38-42.69,109-69.76,155.06-59.11l-.22,1c-22-5.1-50.46-1.67-80.08,9.66-29.14,11.14-56.12,29.05-74,49.14C314,104.41,292.43,152.45,285,196.17c-8.28,48.76-6.83,70.78-6.82,71Z"/><path class="cls-10" d="M771.78,603.09c-19.71-9.56-41.13-40-63.69-90.39a776.72,776.72,0,0,1-28-73c-5.95-27.37-.38-40.9,6.07-56.56,1-2.3,1.93-4.68,2.89-7.14,7.23-18.63,10.42-81.75,6.68-104.51-1.29-7.84-14.6-65.86-14.73-66.45-.76-3.7-1.52-7.19-2.28-10.66a405.48,405.48,0,0,1-7.44-42.84c-4.63-38.69-28.45-73.58-70.8-103.7-26.36-18.76-54.34-35-106.34-28.35l-.13-1C546.35,11.77,574.5,28.16,601,47c42.59,30.29,66.55,65.41,71.21,104.38a398.9,398.9,0,0,0,7.43,42.75c.75,3.48,1.51,7,2.27,10.67.13.57,13.44,58.62,14.74,66.49,3.75,22.85.54,86.28-6.73,105-1,2.47-1.94,4.85-2.9,7.16-6.38,15.51-11.9,28.91-6,55.94.42,1.35,44.66,140.17,91.19,162.76Z"/><path class="cls-10" d="M208.39,558l-.63-.76c37.24-30.6,34.52-56.06,31.9-80.68-1.53-14.41-3-28,3.51-42.06C266.71,383.6,275,308.06,275.09,307.3l1,.1c-.08.76-8.4,76.47-32,127.49-6.38,13.79-4.94,27.27-3.42,41.55C243.3,501.32,246,527,208.39,558Z"/><path class="cls-10" d="M295.26,607.62l-.42-.9c31.71-14.38,42.19-48.45,45.4-74.49,3.88-31.51-1.26-60.63-4.36-69.8-5.27-15.61-14.35-33-23.14-49.77-10.9-20.85-21.2-40.54-23.31-55C285.73,332.35,296.62,245,312,212.47c37.62-79.22,73.45-118.86,96.88-138.17,25.46-21,42.28-23.19,42.44-23.21,1-.25,25.87-6.36,32.86,4l-.83.55c-6.6-9.76-31.59-3.63-31.84-3.56s-16.84,2.24-42.1,23.09c-23.33,19.25-59,58.77-96.51,137.74-15.36,32.36-26.21,119.42-22.53,144.6,2.09,14.33,12.35,33.95,23.22,54.72,8.8,16.82,17.9,34.22,23.2,49.91C344.68,485.37,354.25,580.86,295.26,607.62Z"/><path class="cls-10" d="M263.22,607.6l-.49-.86c.37-.21,37.15-20.82,49.79-32,12.28-10.82,30.17-37.11,29.09-65.19-.7-18.46-12.88-36.54-25.76-55.68-6.31-9.37-12.84-19.06-17.91-28.81-12.68-24.4-14.42-39.58-16.44-57.16-.39-3.47-.8-7.05-1.31-10.81-1.7-12.58-.5-23.92,1.3-41.09,1.54-14.72,3.47-33,4.65-60.43,2.7-62.22,38.39-151.47,93.46-193.13l.6.79c-54.83,41.47-90.38,130.38-93.06,192.38-1.19,27.42-3.12,45.76-4.66,60.49-1.8,17.1-3,28.4-1.31,40.85.51,3.78.92,7.37,1.32,10.83,2,17.49,3.74,32.59,16.34,56.83,5,9.7,11.55,19.37,17.84,28.71,13,19.26,25.22,37.45,25.94,56.19,1.09,28.42-17,55-29.43,66C300.46,586.73,263.59,607.39,263.22,607.6Z"/><path class="cls-10" d="M342.78,454a4.52,4.52,0,0,1-.08-1.08c0-1.66,0-5.54-4.51-21.3-5.57-19.51-19.69-56.74-19.83-57.12l.93-.34c.14.37,14.28,37.64,19.86,57.2,4.53,15.88,4.54,19.86,4.54,21.55a3.4,3.4,0,0,0,.06.86Z"/><path class="cls-10" d="M284.85,291.65h-1c0-15.1,11.39-67.84,32.78-127.61,21-58.56,51.46-89.62,51.77-89.93s35.11-43.49,84.43-43.49c26,0,33.72,13,34,13.56l-.87.49c-.07-.13-7.77-13.06-33.17-13.06-48.83,0-83.35,42.72-83.69,43.15S338.46,106,317.58,164.37C296.23,224,284.85,276.62,284.85,291.65Z"/><path class="cls-10" d="M335.36,604.82l-.26-1c37.44-10.14,37.79-28.08,38.09-43.92.18-9.39-10.56-50.22-20.94-89.7-10.74-40.84-21.85-83.06-21.84-93.84h1c0,10.65,11.09,52.82,21.81,93.59,10.88,41.37,21.16,80.45,21,90C373.81,579.53,370.71,595.25,335.36,604.82Z"/><path class="cls-10" d="M201.6,604.66l-.78-.62c.24-.29,23.82-29.1,46.73-45.11,26.21-18.3,39.2-36,40.88-55.78,2.14-25.12-5.82-125.69-5.91-126.7l1-.08c.08,1,8.05,101.66,5.9,126.86-1.71,20.07-14.83,38-41.29,56.51C225.32,575.66,201.83,604.37,201.6,604.66Z"/><path class="cls-10" d="M351.94,414.22c-9.22-9.65-16.18-44.62-23.55-81.64-.7-3.51-1.4-7-2.1-10.52-7.88-39.21-8-90.27,9.58-116,12.44-18.22,50.23-76.46,50.61-77.05a199,199,0,0,1,47.89-38.2c10.92-6.31,23.36-8.84,31.69-6.45l-.28,1c-8.08-2.32-20.22.17-30.91,6.35a197.69,197.69,0,0,0-47.61,38c-.32.51-38.12,58.76-50.57,77-17.39,25.48-17.26,76.23-9.43,115.23l2.1,10.53c7,35.26,14.28,71.71,23.3,81.15Z"/><path class="cls-10" d="M412.27,618.45c-20.12-6.09-29.3-20.67-27.28-43.34.15-1.61.31-3.32.49-5.12,1.35-13.75,3.2-32.58-1.78-48-2.69-8.34-16.18-38.14-30.46-69.68-16.15-35.67-32.85-72.56-38.67-88.56-11.06-30.39,8.95-126.44,9.16-127.4l1,.2c-.2,1-20.16,96.73-9.2,126.86,5.81,16,23.26,54.5,38.65,88.5,14.29,31.57,27.79,61.38,30.5,69.78,5,15.61,3.18,34.55,1.82,48.39-.18,1.79-.34,3.5-.49,5.11-2,22.14,7,36.37,26.58,42.31Z"/><path class="cls-10" d="M253,556.22l-.58-.81C267.15,545,287.67,515.3,280.11,480c-10.62-49.65-6.12-77.6-3.44-94.29a104.92,104.92,0,0,0,1.46-11.38c.1-2.33.28-4.67.46-7.15.39-5.18.83-11.05.83-19.49h1c0,8.47-.44,14.37-.83,19.57-.18,2.46-.35,4.8-.45,7.11a105.94,105.94,0,0,1-1.48,11.49c-2.67,16.63-7.15,44.47,3.44,93.93C288.75,515.55,267.93,545.65,253,556.22Z"/><path class="cls-10" d="M252.26,598.82l-.47-.87c.49-.26,49.08-26,69.44-49.36,12.28-14.11,0-35.53-12.93-58.21-2.62-4.57-5.33-9.31-7.79-13.94-14.26-26.78-15.1-59.7-15.1-60l1,0c0,.32.84,33,15,59.59,2.45,4.62,5.16,9.35,7.77,13.92,13.15,23,25.56,44.7,12.82,59.33C301.5,572.76,252.75,598.56,252.26,598.82Z"/><path class="cls-10" d="M234,596.48l-.2-1c35.58-7.49,47.95-22.25,57-33l.91-1.09c9.33-11.08,7.82-21.16,2.69-32.88-5.37-12.26-5.56-40.2-5.57-41.38h1c0,.29.19,28.92,5.48,41s6.82,22.44-2.84,33.91l-.91,1.09C282.38,574,269.88,588.91,234,596.48Z"/><path class="cls-10" d="M198.75,608.67l-.47-.87c4.64-2.46,9.56-6.25,14.78-10.27,12.21-9.41,26.05-20.06,45-22,26.61-2.7,36.48-18,36.58-18.2l.84.52c-.1.16-10.19,15.91-37.32,18.66-18.66,1.9-32.38,12.46-44.48,21.79C208.42,602.35,203.46,606.17,198.75,608.67Z"/><path class="cls-10" d="M722.26,601.63c-.43-.09-43.09-8.93-63.73-28.76-12.49-12-11.48-20.37-9-40.6a371.81,371.81,0,0,0,3.1-60.31c-1.91-69.73,19.58-125.17,19.8-125.72l.93.36c-.22.55-21.64,55.81-19.74,125.33a372.16,372.16,0,0,1-3.1,60.45c-2.4,19.89-3.4,28.13,8.74,39.78,20.43,19.64,62.81,28.41,63.24,28.5Z"/><path class="cls-10" d="M623.31,601.44a288.26,288.26,0,0,1-26.92-44.89c-15.29-32.45-17-57.47-5.08-72.37,33.9-42.2,41.89-108.14,42-108.8l1,.11c-.08.67-8.11,66.88-42.18,109.3C563.7,520.14,623.5,600,624.1,600.85Z"/><path class="cls-10" d="M652.6,241.34c-.05-.18-5-18-17.07-45.06-13.08-29.44-44.74-79.92-71.16-94.73-27.15-15.23-67-17-67.42-17.06l0-1c.41,0,40.51,1.83,67.87,17.18,26.62,14.93,58.45,65.63,71.58,95.19,12.07,27.16,17.07,45,17.11,45.19Z"/><path class="cls-10" d="M679.75,258.9c-.14-.48-13.76-47.85-21-79.14C657,172.3,646.94,133.38,619.39,100c-30.16-36.56-69.53-53.2-117-49.46l-.08-1c47.82-3.77,87.46,13,117.84,49.82,27.68,33.56,37.78,72.67,39.52,80.17,7.27,31.26,20.89,78.61,21,79.09Z"/><path class="cls-10" d="M747.84,601.54c-.31-.23-30.93-23.07-42.76-34.32-27.69-26.3-37.65-53.2-43.75-76.06-6.43-24.11-1.34-75.37,7.18-98.86,8.09-22.3,19.52-90.69,19.63-91.38l1,.16c-.11.69-11.55,69.17-19.67,91.55C661,416,655.9,467,662.29,490.91c6.07,22.72,16,49.47,43.48,75.6,11.79,11.2,42.36,34,42.67,34.24Z"/><path class="cls-10" d="M726,584.64c-.15-.53-14.18-53.23-28.7-77-34-55.71-19-153.89-18.83-154.88l1,.15c-.16,1-15.15,98.82,18.7,154.22C712.74,531,726.82,583.86,727,584.39Z"/><path class="cls-10" d="M639.9,607.62c-16.27-7.33-28-23.51-32.91-45.57-6.63-29.54.14-62.42,16.85-81.83,28.81-33.45,34.48-117.6,34.54-118.45l1,.06c-.06.85-5.75,85.33-34.77,119-16.52,19.19-23.21,51.73-16.64,81,4.88,21.75,16.37,37.69,32.35,44.88Z"/><path class="cls-10" d="M665.65,606.14C642.1,599.58,627.76,589.78,623,577c-5.63-15.15,3.21-30.9,10.34-41.42,21.65-32,19.25-63.28,19.23-63.59l1-.09c0,.32,2.46,32-19.4,64.23-7,10.35-15.7,25.8-10.23,40.53,4.63,12.46,18.75,22.06,42,28.53Z"/><path class="cls-10" d="M743.63,559.71h-1c0-65.35-24.78-112.36-39.55-134.57-25.9-38.93-14.74-125.3-14.63-126.17l1,.13c-.11.86-11.22,86.87,14.47,125.5C718.75,446.9,743.63,494.1,743.63,559.71Z"/><path class="cls-10" d="M700.93,606.15C663,603.91,639.21,590,639,589.89c-5-3.06-15-11.12-25.84-30.7-8.34-15.07-6.83-35.69-5.5-53.88.28-3.83.54-7.46.71-10.93.95-19.92,21.51-72.38,21.72-72.91,6.74-14.11,19.7-53,19.83-53.41l1,.31c-.13.39-13.12,39.36-19.87,53.49-.19.49-20.69,52.81-21.64,72.56-.17,3.49-.43,7.12-.71,11-1.32,18.06-2.81,38.52,5.38,53.34,10.72,19.38,20.57,27.32,25.49,30.33.23.13,23.86,13.89,61.49,16.12Z"/><path class="cls-10" d="M697.17,292.32c-1.83-17.57-13.78-56.25-23.39-87.33-5.83-18.87-10.44-33.77-11.31-39.2-2.38-14.75-22.82-73.8-61-95.69-38.43-22-89.83-20-90.34-20l-.05-1c.52,0,52.21-2,90.89,20.14,41.31,23.68,59.82,85.92,61.51,96.39.87,5.36,5.69,21,11.28,39.08,9.62,31.12,21.59,69.85,23.43,87.51Z"/><path class="cls-10" d="M560.78,594.1l-.13-1c13.84-1.8,23.42-7.12,28.47-15.81,9.27-15.95.14-38.1,0-38.32l.92-.38c.09.23,9.4,22.83-.1,39.19C584.77,586.77,575,592.26,560.78,594.1Z"/><path class="cls-10" d="M405.7,616.12C388,611.78,378,591.4,377.62,586.87c-1.49-16.57-6.7-42.78-7.18-44.27l.95-.3c.48,1.49,5.72,27.85,7.22,44.49C379,591,389,611,405.94,615.17Z"/><path class="cls-10" d="M729.6,604.65c-4.16-.55-7.17-2.66-12.15-6.17A165.43,165.43,0,0,0,695.19,585c-15.09-7.68-15.5-18.9-15.89-29.74-.19-5.44-.4-11.06-2.43-16.23-6.1-15.47-12.52-37.44-12.59-37.66l1-.27c.06.22,6.47,22.14,12.55,37.57,2.1,5.33,2.31,11,2.5,16.55.4,11.05.78,21.49,15.35,28.9A167.86,167.86,0,0,1,718,597.67c4.86,3.42,7.79,5.49,11.71,6Z"/><path class="cls-10" d="M666.37,252.07c-.22-1.44-.46-3-.7-4.65-5-33.65-15.52-103.67-63.93-151.68l.7-.69c48.65,48.23,59.16,118.47,64.21,152.23.25,1.65.48,3.2.7,4.65Z"/><path class="cls-10" d="M660.5,258.78l-1,0c2.18-54.31-25.27-118.62-38.12-139.62l.85-.51C635.13,139.69,662.68,204.25,660.5,258.78Z"/><path class="cls-10" d="M483.37,84.23c-3.28-5.56,9.64-58.39,10.19-60.64l1,.23C490.8,39,481.67,79.4,484.23,83.73Z"/><path class="cls-10" d="M211.51,593.26l-.87-.46a50.29,50.29,0,0,0,2.72-7.17c3.87-11.61,10.33-31,33.1-50.77,19.16-16.61,17.55-26.73,14.63-45.09a189.71,189.71,0,0,1-3-35.7c.84-45.26,20-99.15,20.16-99.69l.94.33c-.2.54-19.27,54.28-20.11,99.37a188.14,188.14,0,0,0,3,35.54c3,18.71,4.6,29-15,46-22.56,19.55-29,38.82-32.8,50.34A49.4,49.4,0,0,1,211.51,593.26Z"/><path class="cls-11" d="M389.1,242.67a13.08,13.08,0,0,0-3.22,8.57c0,7.46,6.34,15.05,14.17,15.05s14.17-7.59,14.17-15.05a13,13,0,0,0-3-8.22C403.82,242.42,396.52,241,389.1,242.67Z"/><path class="cls-11" d="M569.59,242a13.69,13.69,0,0,1,3.22,8.83c0,7.67-6.35,15.49-14.17,15.49s-14.18-7.82-14.18-15.49a13.69,13.69,0,0,1,2.95-8.47C554.87,241.71,562.16,240.26,569.59,242Z"/><path class="cls-9" d="M436.45,263.22c-.4-1.33-1.26-5.28-3.42-8s-7.15-7.66-11.12-9.46A89.33,89.33,0,0,0,397.35,242c-8.47,0-15.61,3.16-22.94,6.27-6,2.57-9.18,6.38-12.28,11.5-.8,1.32-.69,1.39-1.44,2.47a3.55,3.55,0,0,0-.82-.57c.7-1.1.63-1,1.39-2.39A27.17,27.17,0,0,1,374,247.32c6.88-3.28,15.91-6.12,23.09-6.4s20.1,2.59,23.94,3.56.49.11,1.14.36c4.73,1.84,9.37,7,11.67,9.78s3.66,7.18,3.62,8.59S436.85,264.55,436.45,263.22Z"/><path class="cls-9" d="M363.82,252.36c-1.94,1.85.06-1-1.3,0,3.48-3.81,2.59-5.52,7.36-9.31s17.1-6.74,24-7.92c10.37.39,19.77,2.16,28.5,7.71-.17.31-.34.61-.49.91-8.17-5.77-18-7.29-27.93-7.6-6.4.85-19.07,4.36-23.3,7.54S365.76,250.51,363.82,252.36Z"/><path class="cls-9" d="M400.06,266.81c-8.58-.05-13.63-5.42-14.71-14.77,0-.29.53-9.21,3.45-9.67.19,0,.39.26.6.79-2.64.31-3.07,8.79-3.06,8.87,1,8.7,5.7,13.76,13.72,13.81s12.65-5.1,13.71-13.62c0-.15.16-7.59-1.55-8.42.3-.42.58-.61.83-.56,1.86,1,1.74,8.78,1.71,9C413.62,261.39,408.64,266.87,400.06,266.81Z"/><path class="cls-9" d="M400.62,271.86c-8,.23-20-1.95-26-4.27s-6.69-3.11-9.92-7.25c1.39,1-.43-1.78,1.38.21s3.61,4.43,9,6.2c5.61,1.86,17.93,4.51,25.61,4.13,5.5-.27,14.16-2.13,18.79-3.24a42.9,42.9,0,0,1,5.11-1.07c2.94-.19,3.52,0,5.89-.09a3.35,3.35,0,0,0,0,1c-2.28.09-3.07-.09-5.87.09-.62,0-2.71.55-4.79,1C414.52,269.75,406.44,271.69,400.62,271.86Z"/><path class="cls-9" d="M406.29,253.11a5.73,5.73,0,0,1-6.06,5.66,5.8,5.8,0,0,1-6.06-5.71,5.73,5.73,0,0,1,6.06-5.66A5.8,5.8,0,0,1,406.29,253.11Z"/><path class="cls-6" d="M399.55,248.86c0,1.79-1.93,2.55-3.49,2.55s-3.49-.78-3.5-2.57,1.94-2.56,3.49-2.56S399.54,247.07,399.55,248.86Z"/><path class="cls-9" d="M396.07,251.78c-1.77,0-3.87-.93-3.87-2.94s2.08-2.93,3.85-2.93,3.86,1,3.86,3S397.83,251.78,396.07,251.78Zm0-5.13c-1.34,0-3.12.62-3.12,2.19s1.8,2.2,3.13,2.2,3.13-.61,3.12-2.18S397.39,246.65,396.05,246.65Z"/><path class="cls-9" d="M432.93,264a8.69,8.69,0,0,0-.93-.38c.23-.95.72-1.26.71-2.41a15.64,15.64,0,0,0-.72-3.55c-.39-1.62-2.86-6.12-3.46-7.35s.78-.19.67-.74a35,35,0,0,1,3.71,7.8,12.86,12.86,0,0,1,.79,3.83C433.76,262.49,433.17,262.85,432.93,264Z"/><path class="cls-9" d="M364.4,261.36c-.36,0-.66,0-1,0a5.81,5.81,0,0,1,.73-2.57c.61-.87-1.05,1.27.42-.54s6.6-7.95,8.76-10.58c.39.05.53.4.83.56a132.77,132.77,0,0,0-9.2,11.12A4.94,4.94,0,0,0,364.4,261.36Z"/><path class="cls-9" d="M390.29,271.2A57.27,57.27,0,0,1,380,268.28c-.79-.29-.92-.31-1.37-.48a34.07,34.07,0,0,1-7.37-3.68c-2.33-1.57-4.11-4-6-6.14.69.36-.17-1.37,1-.34s3.59,4.43,5.61,5.68a39.68,39.68,0,0,0,7,3.48c.75.26.47.14,1.61.55a56,56,0,0,0,10,2.86A8.09,8.09,0,0,1,390.29,271.2Z"/><path class="cls-9" d="M522.09,263.27c-.31,1.24-.84,1.32-1,0s1.76-6.07,3.6-8.57,8.74-7.91,11.2-9.29c8.61-4.83,18.24-4.61,26.9-4.75,7-.11,11.13,2.25,17.3,4.63,1.27.49,3.33,1.43,4.58,2a27.14,27.14,0,0,1,12.75,11.9c.77,1.36.69,1.28,1.4,2.38a3.55,3.55,0,0,0-.82.57c-.71-1.09-.69-1.13-1.44-2.46a26,26,0,0,0-12.28-11.47c-1.25-.58-3.32-1.53-4.58-2-6-2.31-10.09-4.68-16.9-4.55-8.61.17-18-.15-26.58,4.72-2.12,1.19-8.94,6.53-10.72,8.92S522.41,262,522.09,263.27Z"/><path class="cls-9" d="M594.86,252.27c-2-1.84-2.62-5.5-6.86-8.68s-17-6.63-23.39-7.49c-8.8.17-18.33,1.06-25.73,6.05-.16-.3-.33-.6-.5-.9,7.65-5,17.31-5.95,26.31-6.16,6.89,1.18,19.27,4.08,24.07,7.86s3.9,5.48,7.39,9.29C594.79,251.3,596.8,254.11,594.86,252.27Z"/><path class="cls-9" d="M558.69,266.9c-8.58.11-13.56-5.4-14.72-14.51,0-.18-.23-8.25,1.62-9.16.25-.07.53.13.83.55-1.71.79-1.48,8.45-1.47,8.51,1.08,8.55,5.7,13.72,13.74,13.63s12.62-5.16,13.64-13.84c0-.13-.43-8.57-3.08-8.92.21-.53.41-.81.59-.79,2.94.49,3.52,9.37,3.48,9.72C572.24,261.41,567.28,266.8,558.69,266.9Z"/><path class="cls-9" d="M558.16,272c-5.82-.13-14-2.07-19.24-3.21-2.08-.45-4.21-1-4.84-1-2.83-.19-3.62,0-5.92-.13a3.11,3.11,0,0,0,0-1c2.39.12,3-.06,6,.14a45.65,45.65,0,0,1,5.16,1.07c4.65,1.09,13.39,2.94,18.89,3.18,7.69.34,20-2.39,25.56-4.27,5.35-1.79,7.14-4.24,8.94-6.24s0,.81,1.39-.22c-3.22,4.15-3.9,4.95-9.9,7.29S566.17,272.14,558.16,272Z"/><path class="cls-9" d="M552.41,253.17a6.07,6.07,0,1,0,6-5.75A5.77,5.77,0,0,0,552.41,253.17Z"/><path class="cls-6" d="M550.81,248.91c0,1.81,1.94,2.59,3.51,2.58s3.48-.81,3.47-2.6-1.94-2.57-3.5-2.57S550.8,247.11,550.81,248.91Z"/><path class="cls-9" d="M554.32,251.86c-1.78,0-3.85-.93-3.87-2.94s2-3,3.83-3,3.87.94,3.88,2.94S556.1,251.85,554.32,251.86Zm0-5.17c-1.35,0-3.12.64-3.11,2.22s1.79,2.21,3.14,2.21,3.12-.65,3.11-2.23S555.64,246.69,554.29,246.69Z"/><path class="cls-9" d="M525.65,264c-.24-1.11-.83-1.49-.76-2.82a13.1,13.1,0,0,1,.82-3.86,33,33,0,0,1,3.87-7.45c-.11.55,1.27-.45.67.75s-3.21,5.42-3.61,7a15.24,15.24,0,0,0-.76,3.56c0,1.15.47,1.48.7,2.44A8.41,8.41,0,0,0,525.65,264Z"/><path class="cls-9" d="M595.3,261.25a4.63,4.63,0,0,1-1,0,4.74,4.74,0,0,0-.53-2,134.7,134.7,0,0,0-9.24-11.09c.25-.21.51-.42.76-.65,3.26,3.7,6.35,7.1,9.37,11.27A6.72,6.72,0,0,1,595.3,261.25Z"/><path class="cls-9" d="M568.46,271.24a6.64,6.64,0,0,1-.1-1,56.37,56.37,0,0,0,10-2.9c1.14-.42.84-.29,1.62-.57a39.26,39.26,0,0,0,6.94-3.51c2-1.25,4.43-4.67,5.59-5.7s.31.7,1,.34c-1.93,2.19-3.7,4.58-6,6.16a34.14,34.14,0,0,1-7.36,3.72c-.44.17-.58.19-1.37.48A57.89,57.89,0,0,1,568.46,271.24Z"/><polygon class="cls-12" points="462.19 224.98 454.56 211.17 455.45 210.81 463.07 224.62 462.19 224.98"/><polygon class="cls-12" points="453.08 222.76 447.31 213.81 448.17 213.4 453.94 222.35 453.08 222.76"/><path class="cls-12" d="M454.45,218.32c-.06-.11-6.1-11.12-11.68-11.84l.15-.84c6.1.79,12.17,11.85,12.42,12.33Z"/><path class="cls-12" d="M443.31,215.66c-.07-.1-7.36-10.07-12.46-10.73l.14-.84c5.55.72,12.84,10.69,13.15,11.12Z"/><path class="cls-12" d="M428.27,210.94c-.12-.08-12.33-7.95-16.43-8.49l.15-.84c4.33.57,16.36,8.32,16.87,8.65Z"/><path class="cls-12" d="M410.78,208.81a23.2,23.2,0,0,0-10.62-5.46l.26-.82a23.76,23.76,0,0,1,11.11,5.74Z"/><path class="cls-12" d="M392.22,206c0-.05-1.76-4.85-12.29-6.47l.17-.83c11.19,1.71,13,6.85,13.06,7.07Z"/><path class="cls-12" d="M388.1,215.1c-.14-.12-13.52-12-19-12.19l.05-.85c5.84.25,19.07,11.95,19.63,12.45Z"/><path class="cls-12" d="M458.34,225c-.08-.08-7.61-8-12.55-10.31l.46-.74c5.11,2.37,12.53,10.18,12.85,10.51Z"/><path class="cls-12" d="M452.07,227.44c-.06-.07-6.52-6.58-12.41-9.14l.44-.76c6.07,2.65,12.45,9.08,12.72,9.35Z"/><path class="cls-12" d="M436.74,223.64c-.05,0-4.9-5.49-10-8.09l.5-.73c5.29,2.68,10.1,8.08,10.3,8.31Z"/><path class="cls-12" d="M437.07,215.73c-.13,0-13.38-4.45-19.09-7.12l.47-.74c5.65,2.63,18.84,7,19,7.07Z"/><path class="cls-12" d="M415.58,219.33c-.14-.1-13.82-9.54-16.74-11l.49-.73c3,1.5,16.3,10.68,16.86,11.07Z"/><path class="cls-12" d="M345.33,208.41l-.5-.73c6.46-3.31,15.56-6.76,15.65-6.8l.4.78C360.79,201.7,351.75,205.12,345.33,208.41Z"/><path class="cls-12" d="M375.2,217.05c-.17-.06-16.49-5.87-23-6h-.5l-.05-.84c6.37-.24,23.19,5.77,23.91,6Z"/><path class="cls-12" d="M339.52,211.37l-.26-.82c.86-.19,1.83-.44,2.89-.71a70,70,0,0,1,15.08-2.52l0,.85a68.5,68.5,0,0,0-14.84,2.49C341.36,210.93,340.38,211.18,339.52,211.37Z"/><path class="cls-12" d="M352.55,219.84c-4.77-1.35-12.83-3.36-14.12-3l-.29-.81c2-.53,12.6,2.43,14.72,3Z"/><path class="cls-12" d="M366.73,219.94c-5.6-2.18-16.57-6.36-18-6.64l.21-.83c1.92.36,17.55,6.44,18.22,6.7Z"/><path class="cls-12" d="M402,219c-.13-.11-12.58-10.17-16.43-11.64l.39-.78c4,1.53,16.19,11.38,16.71,11.8Z"/><path class="cls-12" d="M383.1,204.15c-.1-.06-9.48-5.72-13.87-5.57l0-.85c4.74-.16,14.08,5.48,14.47,5.72Z"/><path class="cls-12" d="M401.38,213.74c-.13-.07-12.88-7.41-14.25-8.22l.56-.7c1.36.81,14.1,8.14,14.23,8.22Z"/><path class="cls-12" d="M434.06,208.85c-.1,0-10.17-5-13.83-5.4l.12-.85c3.85.4,13.78,5.3,14.2,5.51Z"/><path class="cls-12" d="M417.76,211.87c-.08-.1-7.51-9.74-12-10.21l.11-.84c4.92.52,12.37,10.17,12.69,10.58Z"/><path class="cls-12" d="M399.4,206.35c-.16-.11-.48-.37-1-.76-1.71-1.4-6.26-5.1-8.4-5.26l.08-.85c2.49.19,6.88,3.77,9,5.49.44.36.75.61.89.7Z"/><path class="cls-12" d="M388.05,218.6c-.1-.08-9.61-8.53-14.89-9.23l.15-.84c5.61.75,15,9.13,15.44,9.48Z"/><polygon class="cls-12" points="333 222.26 332.9 221.42 343.69 220.5 343.79 221.35 333 222.26"/><polygon class="cls-12" points="347.55 215.4 336.8 213.68 336.97 212.84 347.72 214.56 347.55 215.4"/><path class="cls-12" d="M425.11,220.69a14.26,14.26,0,0,0-7.18-7.19l.42-.77a14.9,14.9,0,0,1,7.69,7.69Z"/><path class="cls-12" d="M445.87,212.24l-.08-.16a12.56,12.56,0,0,0-8.52-7.07l.26-.82a13.49,13.49,0,0,1,9.17,7.57l.06.13Z"/><path class="cls-12" d="M458.38,227.81c-.32-.21-7.71-5.09-9.05-6.64l.79-.51c1.25,1.46,8.78,6.43,8.85,6.48Z"/><path class="cls-12" d="M440.62,221.07c-.34-.28-8.21-5.75-12.22-6.59l.23-.82c4.34.91,12.53,6.65,12.73,6.86l-.77.53.39-.26Z"/><path class="cls-12" d="M395,218.79l-.13-.17c-2.12-2.83-3.95-5.27-7.81-7.63l.56-.69c4,2.45,5.9,5,8.08,7.86l.13.17Z"/><path class="cls-12" d="M384.38,209c-.08-.07-8.48-6.33-12.26-7.65l.37-.79c3.92,1.37,12.19,7.53,12.53,7.79Z"/><path class="cls-12" d="M373.69,207l-.88-.39c-.06.11,0,.17,0,.17s-1.17-1.39-16.27-.35l-.09-.84c10.47-.73,16.24-.48,17.18.72A.62.62,0,0,1,373.69,207Z"/><path class="cls-12" d="M381.73,217.43c-.11-.06-10.8-5.55-19.83-6.74l.14-.84c9.23,1.21,20.08,6.79,20.19,6.85Z"/><path class="cls-12" d="M369.69,217.28c-.06,0-6.45-2.15-11.9-3.3l.23-.82c5.51,1.16,12,3.3,12,3.33Z"/><path class="cls-12" d="M359.41,219.83a56.81,56.81,0,0,0-11.87-3.27l.15-.84a58.68,58.68,0,0,1,12.14,3.34Z"/><rect class="cls-12" x="336.7" y="215.95" width="0.85" height="5.43" transform="translate(113.48 552.51) rotate(-89.15)"/><path class="cls-12" d="M410.76,219.29a88.75,88.75,0,0,0-9.31-3.9l.35-.79a86.69,86.69,0,0,1,9.45,4Z"/><path class="cls-12" d="M412.41,214.12c-.06-.05-5.56-5.37-9.14-6.51l.34-.8c3.81,1.22,9.3,6.52,9.53,6.75Z"/><path class="cls-12" d="M445.07,218.86c-.09-.06-8.2-6.07-12.38-8.09l.48-.74c4.26,2.06,12.2,7.94,12.53,8.19Z"/><path class="cls-12" d="M372.33,211.3a30.71,30.71,0,0,0-12.58-3.83l.1-.84a31.23,31.23,0,0,1,13.06,4Z"/><path class="cls-12" d="M368.27,204c-.07,0-7.17-1-10.06-.17l-.31-.81c3.11-.9,10.23.1,10.53.14Z"/><path class="cls-12" d="M370,201.29a54,54,0,0,0-5.88-1v-.85a60.27,60.27,0,0,1,6.1,1Z"/><path class="cls-12" d="M353.55,212.56a36.52,36.52,0,0,0-12.26-.82l-.14-.84a36.41,36.41,0,0,1,12.7.85Z"/><path class="cls-12" d="M428.28,220s-4.42-5.69-7.6-8l.64-.65c3.28,2.43,7.59,8,7.77,8.22Z"/><path class="cls-12" d="M420,220.17c0-.08-3.79-8-7.85-9.69l.41-.77c4.42,1.79,8.19,9.8,8.35,10.14Z"/><polygon class="cls-12" points="497.62 225.3 496.75 224.94 504.14 211.11 505.01 211.47 497.62 225.3"/><polygon class="cls-12" points="506.5 223.05 505.66 222.64 511.26 213.67 512.1 214.08 506.5 223.05"/><path class="cls-12" d="M505.14,218.62l-.87-.36c.25-.47,6.13-11.55,12.09-12.37l.14.84C511.05,207.48,505.2,218.51,505.14,218.62Z"/><path class="cls-12" d="M516,215.91l-.82-.44c.3-.43,7.39-10.43,12.8-11.17l.15.84C523.16,205.82,516.09,215.81,516,215.91Z"/><path class="cls-12" d="M530.69,211.14l-.58-.67c.5-.34,12.22-8.13,16.45-8.71l.15.84C542.71,203.15,530.81,211.06,530.69,211.14Z"/><path class="cls-12" d="M547.77,209l-.74-.53a23.08,23.08,0,0,1,10.83-5.78l.26.82A22.66,22.66,0,0,0,547.77,209Z"/><path class="cls-12" d="M565.89,206.1l-.92-.22c.07-.22,1.81-5.37,12.73-7.12l.17.83C567.6,201.24,565.91,206.05,565.89,206.1Z"/><path class="cls-12" d="M570,215.17l-.69-.59c.54-.5,13.42-12.25,19.13-12.52l0,.85C583.11,203.16,570.09,215.05,570,215.17Z"/><path class="cls-12" d="M501.38,225.32l-.75-.53c.31-.34,7.52-8.18,12.51-10.57l.45.75C508.78,217.28,501.45,225.24,501.38,225.32Z"/><path class="cls-12" d="M507.51,227.72l-.73-.54c.26-.28,6.47-6.73,12.39-9.39l.43.75C513.85,221.13,507.57,227.66,507.51,227.72Z"/><path class="cls-12" d="M522.47,223.88l-.76-.51c.2-.23,4.87-5.65,10-8.35l.49.73C527.23,218.37,522.52,223.82,522.47,223.88Z"/><path class="cls-12" d="M522.12,216l-.35-.79c.13-.05,13-4.49,18.5-7.14l.46.74C535.16,211.47,522.24,215.92,522.12,216Z"/><path class="cls-12" d="M543.13,219.49l-.6-.66c.55-.39,13.51-9.62,16.42-11.14l.49.74C556.58,209.91,543.26,219.39,543.13,219.49Z"/><path class="cls-12" d="M611.71,208.33c-6.28-3.27-15.13-6.66-15.22-6.7l.39-.78c.09,0,9,3.46,15.32,6.75Z"/><path class="cls-12" d="M582.56,217.07l-.36-.78c.69-.26,17.13-6.32,23.33-6.11l0,.84C599.54,210.81,582.73,217,582.56,217.07Z"/><path class="cls-12" d="M617.41,211.27c-.85-.19-1.81-.43-2.86-.7A65.28,65.28,0,0,0,600,208.13l0-.85a66.68,66.68,0,0,1,14.74,2.47c1,.27,2,.51,2.83.7Z"/><path class="cls-12" d="M604.73,219.78l-.35-.79c.39-.14,9.69-3.3,16.39-2.6l-.12.84C614.2,216.55,604.82,219.75,604.73,219.78Z"/><path class="cls-12" d="M590.86,219.93l-.4-.77c.65-.26,15.89-6.39,17.77-6.76l.21.83C607,213.51,596.31,217.74,590.86,219.93Z"/><path class="cls-12" d="M556.35,219.09l-.66-.62c.51-.42,12.37-10.31,16.28-11.85l.39.77C568.6,208.88,556.47,219,556.35,219.09Z"/><path class="cls-12" d="M574.79,204.2l-.55-.69c.39-.25,9.49-5.93,14.12-5.78l0,.85C584,198.44,574.89,204.14,574.79,204.2Z"/><path class="cls-12" d="M557,213.85l-.54-.7c.13-.07,12.55-7.45,13.87-8.26l.55.7C569.53,206.4,557.1,213.78,557,213.85Z"/><path class="cls-12" d="M525,209.07l-.48-.73c.41-.21,10.1-5.14,13.86-5.56l.11.84C534.94,204,525.12,209,525,209.07Z"/><path class="cls-12" d="M541,212l-.8-.47c.3-.41,7.54-10.09,12.34-10.62l.12.84C548.26,202.28,541,211.94,541,212Z"/><path class="cls-12" d="M558.88,206.45l-.59-.67c.13-.09.44-.34.86-.7,2.06-1.73,6.34-5.33,8.76-5.53l.09.85c-2.1.17-6.52,3.89-8.19,5.29C559.34,206.09,559,206.35,558.88,206.45Z"/><path class="cls-12" d="M570.05,218.64l-.75-.53c.34-.38,8.53-9.37,18.28-10.11l.08.84C578.32,209.55,570.13,218.55,570.05,218.64Z"/><polygon class="cls-12" points="623.79 222.89 613.23 221.26 613.4 220.42 623.96 222.05 623.79 222.89"/><path class="cls-12" d="M609.61,215.32l-.24-.82c.36-.09,8.93-2.1,14.39-1.56l-.11.84C618.37,213.26,609.7,215.3,609.61,215.32Z"/><path class="cls-12" d="M533.82,220.89l-.91-.27a14.75,14.75,0,0,1,7.48-7.72l.41.77A14,14,0,0,0,533.82,220.89Z"/><path class="cls-12" d="M513.51,212.5l-.88-.34.06-.13a13.28,13.28,0,0,1,8.93-7.6l.25.82a12.31,12.31,0,0,0-8.29,7.1Z"/><path class="cls-12" d="M501.35,228.12l-.59-.67c.08,0,7.41-5,8.63-6.51l.77.51C508.86,223,501.65,227.91,501.35,228.12Z"/><path class="cls-12" d="M518.67,221.32l-.73-.55c.2-.21,8.19-6,12.41-6.9l.23.82C526.67,215.54,519,221,518.67,221.32Z"/><path class="cls-12" d="M563.24,218.88l-.81-.45.13-.18c2.11-2.91,3.94-5.42,7.85-7.88l.55.69c-3.76,2.36-5.54,4.81-7.6,7.65Z"/><path class="cls-12" d="M573.56,209l-.63-.64c.34-.26,8.39-6.45,12.22-7.84l.36.79C581.82,202.65,573.64,209,573.56,209Z"/><path class="cls-12" d="M584,207a.61.61,0,0,1,.08-.68c.9-1.21,6.55-1.47,16.77-.78l-.08.84c-14.76-1-15.86.35-15.89.41a.18.18,0,0,0,0-.18Z"/><path class="cls-12" d="M576.19,217.47l-.49-.73c.1-.05,10.68-5.67,19.69-6.91l.14.84C586.71,211.88,576.29,217.41,576.19,217.47Z"/><path class="cls-12" d="M588,217.28l-.35-.79c.06,0,6.36-2.19,11.73-3.37l.23.82C594.25,215.11,588,217.26,588,217.28Z"/><path class="cls-12" d="M598,219.79l-.42-.76a56.74,56.74,0,0,1,11.84-3.39l.16.84A55.62,55.62,0,0,0,598,219.79Z"/><path class="cls-12" d="M547.84,219.44l-.48-.74a84.24,84.24,0,0,1,9.2-4l.36.79A81,81,0,0,0,547.84,219.44Z"/><path class="cls-12" d="M546.2,214.27l-.72-.56c.23-.23,5.57-5.54,9.29-6.78l.33.8C551.61,208.89,546.26,214.22,546.2,214.27Z"/><path class="cls-12" d="M514.32,219.13l-.63-.65c.33-.25,8.06-6.15,12.21-8.22l.47.73C522.3,213,514.39,219.06,514.32,219.13Z"/><path class="cls-12" d="M585.35,211.31l-.58-.68a30,30,0,0,1,12.75-4l.1.84A29.58,29.58,0,0,0,585.35,211.31Z"/><path class="cls-12" d="M589.28,204l-.16-.83c.3,0,7.25-1.06,10.29-.18l-.3.81C596.29,203,589.35,204,589.28,204Z"/><path class="cls-12" d="M587.59,201.3l-.22-.83a58.36,58.36,0,0,1,6-1v.85A52.57,52.57,0,0,0,587.59,201.3Z"/><path class="cls-12" d="M603.69,212.51l-.28-.81a34.89,34.89,0,0,1,12.4-.9l-.14.84A34.5,34.5,0,0,0,603.69,212.51Z"/><path class="cls-12" d="M530.72,220.25l-.8-.47c.18-.24,4.37-5.81,7.56-8.25l.63.65C535,214.54,530.77,220.19,530.72,220.25Z"/><path class="cls-12" d="M538.83,220.34l-.89-.31c.15-.34,3.81-8.36,8.11-10.17l.41.77C542.49,212.29,538.86,220.26,538.83,220.34Z"/><path class="cls-12" d="M631.1,220.4a42.53,42.53,0,0,0-10-4.62l.31-.8a42.7,42.7,0,0,1,10.24,4.75Z"/><path class="cls-12" d="M634.21,225.09C631,223,619.29,219,619.18,219l.35-.79c.48.16,11.94,4.09,15.25,6.24Z"/><polygon class="cls-12" points="627.25 224.43 615.91 223.4 616.01 222.56 627.36 223.59 627.25 224.43"/><path class="cls-12" d="M607.13,221.88l-.43-.76c.22-.1,5.36-2.37,9.18-2.47l0,.85C612.3,219.6,607.18,221.85,607.13,221.88Z"/><polygon class="cls-12" points="479.25 485.49 474.71 476.7 475.6 476.24 480.14 485.03 479.25 485.49"/><polygon class="cls-12" points="469.35 488.86 465.88 483.32 466.73 482.78 470.19 488.32 469.35 488.86"/><polygon class="cls-12" points="476.99 492.61 474.69 486 475.63 485.67 477.93 492.28 476.99 492.61"/><polygon class="cls-12" points="471.29 504.8 465.87 494.89 466.74 494.41 472.16 504.32 471.29 504.8"/><polygon class="cls-12" points="477 505.64 474.69 499.86 475.62 499.49 477.92 505.27 477 505.64"/><polygon class="cls-12" points="461.77 498.63 460.81 498.38 464.16 485.71 465.12 485.97 461.77 498.63"/><rect class="cls-12" x="457.18" y="489.14" width="0.99" height="9.36"/><polygon class="cls-12" points="457.24 502.32 452.91 494.06 453.79 493.59 458.12 501.85 457.24 502.32"/><polygon class="cls-12" points="444.87 504.82 444.02 504.3 448.24 497.35 449.09 497.87 444.87 504.82"/><polygon class="cls-12" points="437.64 504.81 436.78 504.32 440.17 498.26 441.04 498.75 437.64 504.81"/><polygon class="cls-12" points="426.55 504.85 425.73 504.28 429.9 498.22 430.72 498.79 426.55 504.85"/><polygon class="cls-12" points="417.38 501.82 416.57 501.25 420.43 495.74 421.25 496.31 417.38 501.82"/><polygon class="cls-12" points="427.78 508.08 423.07 498.17 423.96 497.74 428.68 507.65 427.78 508.08"/><path class="cls-12" d="M438.41,513.42a51.87,51.87,0,0,0-3.77-6.38l.83-.55c1.16,1.77,3.86,6,3.93,6.84Z"/><polygon class="cls-12" points="447.32 516.43 440.21 507.07 441 506.46 448.11 515.82 447.32 516.43"/><rect class="cls-12" x="450.74" y="506.76" width="0.99" height="6.61"/><polygon class="cls-12" points="432.82 507.88 431.85 507.71 432.7 502.82 433.68 503 432.82 507.88"/><polygon class="cls-12" points="461.91 511.52 460.8 504.64 461.78 504.48 462.89 511.37 461.91 511.52"/><rect class="cls-12" x="468.88" y="494.98" width="7.73" height="1" transform="translate(-56.6 929.96) rotate(-85.72)"/><polygon class="cls-12" points="474.7 516.33 472.58 511.65 473.49 511.24 475.61 515.92 474.7 516.33"/><polygon class="cls-12" points="476.78 520.84 475.83 520.53 478.24 513.22 479.19 513.53 476.78 520.84"/><rect class="cls-12" x="469.27" y="513.79" width="0.99" height="7.57"/><polygon class="cls-12" points="459.01 521.52 457.21 516.29 458.15 515.96 459.95 521.19 459.01 521.52"/><polygon class="cls-12" points="452.44 519.02 451.61 518.47 457.26 509.79 458.09 510.34 452.44 519.02"/><polygon class="cls-12" points="454.41 507.55 451.59 500.67 452.5 500.29 455.33 507.17 454.41 507.55"/><polygon class="cls-12" points="467.38 510.52 466.94 509.62 471.5 507.35 471.94 508.24 467.38 510.52"/><polygon class="cls-12" points="459.83 508.36 459.14 507.65 464.29 502.55 464.99 503.26 459.83 508.36"/><polygon class="cls-12" points="465.42 518.87 464.16 513.91 465.12 513.66 466.38 518.62 465.42 518.87"/><polygon class="cls-12" points="479.2 511.54 478.23 511.36 479.21 505.99 480.19 506.17 479.2 511.54"/><rect class="cls-12" x="482.64" y="476.47" width="0.99" height="7.12" transform="translate(-29.83 32.01) rotate(-3.68)"/><polygon class="cls-12" points="491.37 488.67 490 480.03 490.98 479.87 492.35 488.51 491.37 488.67"/><polygon class="cls-12" points="484.64 492.61 483.7 492.28 486 485.67 486.94 486 484.64 492.61"/><polygon class="cls-12" points="486.94 503.06 486 502.75 489.43 492.29 490.37 492.6 486.94 503.06"/><polygon class="cls-12" points="499.32 492.98 496.53 486.02 497.45 485.65 500.24 492.6 499.32 492.98"/><polygon class="cls-12" points="494.93 498.69 494.01 498.32 496.53 491.99 497.45 492.36 494.93 498.69"/><rect class="cls-12" x="503.45" y="489.14" width="0.99" height="9.36"/><polygon class="cls-12" points="511.69 499.42 507.14 495.01 507.83 494.29 512.38 498.69 511.69 499.42"/><polygon class="cls-12" points="516.72 504.74 513.45 496.2 514.38 495.85 517.64 504.38 516.72 504.74"/><polygon class="cls-12" points="523.98 504.81 520.59 498.75 521.46 498.26 524.85 504.32 523.98 504.81"/><polygon class="cls-12" points="535.08 504.85 530.91 498.79 531.72 498.22 535.89 504.28 535.08 504.85"/><polygon class="cls-12" points="544.25 501.82 540.38 496.31 541.19 495.74 545.06 501.25 544.25 501.82"/><polygon class="cls-12" points="533.85 508.08 532.95 507.65 537.66 497.74 538.56 498.17 533.85 508.08"/><path class="cls-12" d="M523.21,513.43l-1-.1c.08-.86,2.78-5.07,3.93-6.84l.84.55A50.19,50.19,0,0,0,523.21,513.43Z"/><polygon class="cls-12" points="514.31 516.43 513.52 515.82 520.63 506.46 521.42 507.07 514.31 516.43"/><rect class="cls-12" x="506.98" y="505.99" width="9.92" height="0.99" transform="matrix(0.05, -1, 1, 0.05, -17.17, 995.01)"/><polygon class="cls-12" points="528.8 507.88 527.95 503 528.92 502.82 529.78 507.71 528.8 507.88"/><polygon class="cls-12" points="486.92 516.33 486.02 515.92 488.14 511.24 489.04 511.65 486.92 516.33"/><polygon class="cls-12" points="481.29 520.17 480.34 519.86 482.44 513.22 483.38 513.52 481.29 520.17"/><rect class="cls-12" x="491.36" y="513.79" width="0.99" height="7.57"/><polygon class="cls-12" points="502.61 521.52 501.67 521.19 503.48 515.96 504.42 516.29 502.61 521.52"/><polygon class="cls-12" points="509.19 519.02 503.53 510.34 504.37 509.79 510.02 518.47 509.19 519.02"/><polygon class="cls-12" points="508.24 509.02 504.3 502.34 505.15 501.83 509.1 508.5 508.24 509.02"/><polygon class="cls-12" points="494.04 510.32 491.16 505.3 492.02 504.8 494.9 509.82 494.04 510.32"/><polygon class="cls-12" points="501.79 508.36 496.64 503.26 497.34 502.55 502.49 507.65 501.79 508.36"/><polygon class="cls-12" points="496.21 518.87 495.25 518.62 496.51 513.66 497.47 513.91 496.21 518.87"/><polygon class="cls-12" points="485.75 512.36 482.05 503.48 482.97 503.09 486.67 511.97 485.75 512.36"/><polygon class="cls-12" points="474.34 484 470.98 480.07 471.73 479.42 475.09 483.34 474.34 484"/><polygon class="cls-12" points="480.17 493.97 479.22 493.67 482.19 484.12 483.14 484.42 480.17 493.97"/><polygon class="cls-12" points="482.25 501.81 478.3 495.75 479.13 495.2 483.08 501.26 482.25 501.81"/><polygon class="cls-12" points="488.15 481.46 485.56 476.71 486.43 476.24 489.02 480.99 488.15 481.46"/><polygon class="cls-12" points="494.2 504.88 493.44 504.24 498.57 498.18 499.33 498.83 494.2 504.88"/><polygon class="cls-12" points="489.9 513.46 488.89 507.35 489.87 507.18 490.88 513.29 489.9 513.46"/><polygon class="cls-12" points="490.36 503.05 489.41 502.77 491.38 495.89 492.33 496.16 490.36 503.05"/><rect class="cls-12" x="465.76" y="499.04" width="0.99" height="7.06" transform="translate(-49.42 50.85) rotate(-5.93)"/><polygon class="cls-12" points="447.05 509.02 446.07 508.84 446.8 504.96 447.77 505.14 447.05 509.02"/><rect class="cls-12" x="434.56" y="500.48" width="0.99" height="4.08"/><polygon class="cls-12" points="468.57 496.25 465.82 490.69 466.7 490.24 469.46 495.8 468.57 496.25"/><polygon class="cls-12" points="481.62 500.52 480.74 500.06 482.93 495.8 483.81 496.25 481.62 500.52"/><polygon class="cls-12" points="503.03 505.57 500.24 499.68 501.13 499.25 503.92 505.14 503.03 505.57"/><path class="cls-12" d="M507.18,507.49l-1-.26c.67-2.5,1.37-5.32,1.38-5.7h1C508.59,502.21,507.41,506.62,507.18,507.49Z"/><polygon class="cls-12" points="500.2 515.31 499.08 510.18 500.05 509.96 501.17 515.1 500.2 515.31"/><polygon class="cls-12" points="461.37 518.87 459.92 513.5 460.88 513.24 462.33 518.61 461.37 518.87"/><polygon class="cls-12" points="522.33 507.08 518.07 501.85 518.84 501.22 523.1 506.45 522.33 507.08"/><polygon class="cls-12" points="515.05 510.12 514.49 504.61 515.48 504.51 516.04 510.02 515.05 510.12"/><rect class="cls-12" x="442.62" y="501.08" width="0.99" height="7.68" transform="translate(-20.67 18.92) rotate(-2.39)"/><polygon class="cls-12" points="458.45 507.68 457.49 507.44 459 501.41 459.97 501.66 458.45 507.68"/><polygon class="cls-12" points="456.94 406.15 456.03 405.77 461.94 391.42 462.86 391.81 456.94 406.15"/><polygon class="cls-12" points="443.82 406.46 442.98 405.94 447.29 398.83 448.14 399.35 443.82 406.46"/><polygon class="cls-12" points="433.58 403.8 432.8 403.19 437.75 396.76 438.54 397.37 433.58 403.8"/><polygon class="cls-12" points="419.55 406.89 418.68 406.42 424.03 396.28 424.91 396.75 419.55 406.89"/><polygon class="cls-12" points="403.81 413.27 402.95 412.77 407.36 405.09 408.22 405.59 403.81 413.27"/><polygon class="cls-12" points="415.34 413.46 414.36 413.28 416.49 401.91 417.46 402.1 415.34 413.46"/><polygon class="cls-12" points="426.6 411.22 425.69 410.81 429.86 401.38 430.76 401.79 426.6 411.22"/><rect class="cls-12" x="455.95" y="396.49" width="0.99" height="7.21" transform="translate(-10.87 12.75) rotate(-1.58)"/><rect class="cls-12" x="466.78" y="397.35" width="0.99" height="8.98" transform="translate(-10.86 12.98) rotate(-1.57)"/><polygon class="cls-12" points="441.07 407.36 440.14 407.01 445.04 393.9 445.97 394.25 441.07 407.36"/><polygon class="cls-12" points="458.13 412.21 457.22 411.81 460.84 403.35 461.75 403.75 458.13 412.21"/><polygon class="cls-12" points="448.49 412.39 447.5 412.25 448.36 406.13 449.35 406.27 448.49 412.39"/><polygon class="cls-12" points="432.79 414.74 431.88 414.33 434.6 408.25 435.51 408.66 432.79 414.74"/><polygon class="cls-12" points="414.19 419.88 413.41 419.26 419.36 411.63 420.14 412.25 414.19 419.88"/><polygon class="cls-12" points="404.95 423.25 403.98 423.02 406.22 413.51 407.19 413.74 404.95 423.25"/><rect class="cls-12" x="411.94" y="409.18" width="0.99" height="10.44" transform="translate(-11.22 11.48) rotate(-1.57)"/><polygon class="cls-12" points="438.13 413.74 435.36 406.23 436.29 405.88 439.06 413.39 438.13 413.74"/><rect class="cls-12" x="423.31" y="406.44" width="0.99" height="7.59" transform="translate(-11.12 11.81) rotate(-1.58)"/><polygon class="cls-12" points="502.98 406.15 497.06 391.81 497.98 391.42 503.9 405.77 502.98 406.15"/><polygon class="cls-12" points="516.18 406.56 507.55 398.19 508.24 397.47 516.87 405.84 516.18 406.56"/><polygon class="cls-12" points="526.34 403.8 521.38 397.37 522.17 396.76 527.13 403.19 526.34 403.8"/><polygon class="cls-12" points="541.03 406.1 534.02 397.04 534.81 396.43 541.82 405.49 541.03 406.1"/><polygon class="cls-12" points="556.11 413.27 551.7 405.59 552.56 405.09 556.97 412.77 556.11 413.27"/><polygon class="cls-12" points="544.59 413.46 542.46 402.1 543.43 401.91 545.56 413.28 544.59 413.46"/><polygon class="cls-12" points="533.33 411.22 529.16 401.79 530.07 401.38 534.23 410.81 533.33 411.22"/><rect class="cls-12" x="499.87" y="399.6" width="7.21" height="0.99" transform="translate(89.71 892.39) rotate(-88.43)"/><polygon class="cls-12" points="489.16 403.76 488.26 396.55 489.25 396.43 490.14 403.64 489.16 403.76"/><polygon class="cls-12" points="492.01 409.31 491.02 409.21 492.27 397.3 493.26 397.41 492.01 409.31"/><polygon class="cls-12" points="518.85 407.36 513.95 394.25 514.88 393.9 519.78 407.01 518.85 407.36"/><polygon class="cls-12" points="501.79 412.21 498.17 403.75 499.08 403.35 502.7 411.81 501.79 412.21"/><polygon class="cls-12" points="511.43 412.39 510.58 406.27 511.56 406.13 512.42 412.25 511.43 412.39"/><polygon class="cls-12" points="527.13 414.74 524.41 408.66 525.32 408.25 528.04 414.33 527.13 414.74"/><polygon class="cls-12" points="545.73 419.88 539.78 412.25 540.56 411.63 546.51 419.26 545.73 419.88"/><polygon class="cls-12" points="554.97 423.25 552.73 413.74 553.7 413.51 555.94 423.02 554.97 423.25"/><rect class="cls-12" x="542.27" y="413.9" width="10.44" height="0.99" transform="translate(118.22 950.3) rotate(-88.43)"/><polygon class="cls-12" points="521.79 413.74 520.86 413.39 523.63 405.88 524.56 406.23 521.79 413.74"/><rect class="cls-12" x="532.32" y="409.74" width="7.59" height="0.99" transform="translate(111.32 934.89) rotate(-88.43)"/><path class="cls-12" d="M425.78,402.69l-.8-.59c.76-1,4.62-6.23,5.7-6.77l.44.9C430.54,396.52,428,399.74,425.78,402.69Z"/><polygon class="cls-12" points="426.56 414.87 425.82 414.21 431.17 408.13 431.91 408.79 426.56 414.87"/><rect class="cls-12" x="463.11" y="400.42" width="0.99" height="9.43"/><polygon class="cls-12" points="451.72 413.13 450.75 412.9 452.35 406.32 453.32 406.56 451.72 413.13"/><polygon class="cls-12" points="441.71 410.6 441.03 409.87 445.17 405.97 445.85 406.7 441.71 410.6"/><rect class="cls-12" x="495.7" y="399.09" width="0.99" height="7.36"/><rect class="cls-12" x="507.4" y="402.77" width="0.99" height="5.69"/><polygon class="cls-12" points="517.88 412.65 515.19 409.51 515.94 408.85 518.64 411.99 517.88 412.65"/><polygon class="cls-12" points="534.29 403.51 529.49 398.44 530.22 397.75 535.01 402.82 534.29 403.51"/><polygon class="cls-12" points="550.62 409.87 548.57 402.53 549.52 402.26 551.58 409.59 550.62 409.87"/><polygon class="cls-12" points="450.88 403.29 449.91 403.09 451.55 395.08 452.52 395.29 450.88 403.29"/><polygon class="cls-12" points="466.79 394.2 465.82 393.96 468.29 383.99 469.26 384.23 466.79 394.2"/><polygon class="cls-12" points="455.26 394.41 454.51 393.75 459.71 387.74 460.46 388.4 455.26 394.41"/><polygon class="cls-12" points="490.57 395.17 488.46 383.52 489.44 383.34 491.55 394.99 490.57 395.17"/><rect class="cls-12" x="494.17" y="388.02" width="0.99" height="7.81" transform="translate(-56.4 84.31) rotate(-9.22)"/><polygon class="cls-12" points="509.02 396.06 506.52 392.2 507.35 391.65 509.86 395.51 509.02 396.06"/><polygon class="cls-12" points="529.16 412.54 526.28 406.55 527.18 406.12 530.06 412.1 529.16 412.54"/><polygon class="cls-12" points="521.76 408.6 519.35 400.42 520.31 400.14 522.71 408.32 521.76 408.6"/><polygon class="cls-12" points="538.4 413.7 537.44 413.43 539.08 407.55 540.04 407.82 538.4 413.7"/><polygon class="cls-12" points="436.01 404.06 435.32 403.34 441.84 397 442.53 397.72 436.01 404.06"/><rect class="cls-12" x="420.72" y="408.28" width="0.99" height="6.25"/><polygon class="cls-12" points="409.38 413.5 408.42 413.23 410.35 406.35 411.3 406.62 409.38 413.5"/><rect class="cls-12" x="464.7" y="395.83" width="10.53" height="0.99" transform="translate(45.72 841.26) rotate(-86.51)"/><path class="cls-6" d="M667.63,578.62a30.6,30.6,0,1,1,30.6-30.6A30.62,30.62,0,0,1,667.63,578.62Zm0-60A29.4,29.4,0,1,0,697,548,29.43,29.43,0,0,0,667.63,518.62Z"/><rect x="227.95" y="120.6" width="5.58" height="5.58"/><rect x="229.75" y="122.89" width="269.11" height="1"/><rect x="498.36" y="16.7" width="1" height="122.43"/><path class="cls-13" d="M302.64,106.08H260.41l-7.74,17.31h-11.8l42-93,38.56,93H309.85Zm-4.2-10.23-16-38.55L265,95.85Z"/><path class="cls-13" d="M393.77,98c0,14-11,25.44-26.23,25.44H332.93V31.59h28.19c15.08,0,26.09,11.41,26.09,25.58a25.06,25.06,0,0,1-7.6,18A25.54,25.54,0,0,1,393.77,98ZM343.15,72.38h17.71c9.18,0,15.73-6.82,15.73-15.21s-6.29-15.35-16-15.35H343.15Zm40,25.57c0-8.52-6.43-15.34-16-15.34h-24v30.55h24.13C376.59,113.16,383.15,106.34,383.15,98Z"/><path class="cls-13" d="M431.27,121.29a46.86,46.86,0,0,1-15.08-10.1A45.89,45.89,0,0,1,406,96,46.78,46.78,0,0,1,402,77.49,47.3,47.3,0,0,1,406,59a45.36,45.36,0,0,1,10.23-15.08,47.25,47.25,0,0,1,67.14,0A45.22,45.22,0,0,1,493.56,59a47.31,47.31,0,0,1,3.94,18.49A46.79,46.79,0,0,1,493.56,96a45.74,45.74,0,0,1-10.23,15.21,47.29,47.29,0,0,1-52.06,10.1Zm-7.86-70.16a37.83,37.83,0,0,0,0,52.85,37.11,37.11,0,0,0,63.46-26.49,37.18,37.18,0,0,0-63.46-26.36Z"/><path d="M747.46,609.23H218.89V6.13H747.46Zm-527.82-.75H746.71V6.88H219.64Z"/><rect class="cls-6" x="213.27" y="0.5" width="12" height="12"/><path d="M225.77,13h-13V0h13Zm-12-1h11V1h-11Z"/><rect class="cls-6" x="477.18" y="0.5" width="12" height="12"/><path d="M489.68,13h-13V0h13Zm-12-1h11V1h-11Z"/><rect class="cls-6" x="741.08" y="0.5" width="12" height="12"/><path d="M753.58,13h-13V0h13Zm-12-1h11V1h-11Z"/><rect class="cls-6" x="213.27" y="324.51" width="12" height="12"/><path d="M225.77,337h-13V324h13Zm-12-1h11V325h-11Z"/><rect class="cls-6" x="741.08" y="324.51" width="12" height="12"/><path d="M753.58,337h-13V324h13Zm-12-1h11V325h-11Z"/><rect class="cls-6" x="213.27" y="602.86" width="12" height="12"/><path d="M225.77,615.36h-13v-13h13Zm-12-1h11v-11h-11Z"/><rect class="cls-6" x="477.18" y="602.86" width="12" height="12"/><path d="M489.68,615.36h-13v-13h13Zm-12-1h11v-11h-11Z"/><rect class="cls-6" x="741.08" y="602.86" width="12" height="12"/><path d="M753.58,615.36h-13v-13h13Zm-12-1h11v-11h-11Z"/><polygon points="749.46 328.01 749.46 359.8 758.03 350.59 769.97 350.91 749.46 328.01"/><path class="cls-14" d="M748.86,361.32V326.44l22.49,25.11-13.06-.35Zm1.2-31.74v28.69l7.72-8.29,10.82.29Z"/><rect class="cls-2" x="48.64" y="145.94" width="162.79" height="1" transform="translate(-42.8 54.35) rotate(-20.35)"/><rect class="cls-6" x="127.24" y="143.65" width="5.58" height="5.58"/><path class="cls-2" d="M133.33,149.73h-6.59v-6.58h6.59Zm-5.59-1h4.59v-4.58h-4.59Z"/><path d="M148.7,158.45c.18,3.43,1.34,11.35,1.34,11.35l-4.68,2.7-4.68,2.71s-6.28-5-9.16-6.84c.36-3.48-.2-17.39-.27-19.25,0-.05.06-.07.09,0l8.29,14.36a.87.87,0,1,0,1.51,0,.86.86,0,0,0-.75-.43l-8.29-14.35a.06.06,0,0,1,.08-.07C133.78,149.61,145.51,157,148.7,158.45Z"/><path class="cls-6" d="M140.62,175.93l-.31-.25c-.07-.05-6.29-5-9.12-6.81l-.3-.2,0-.36c.36-3.46-.21-17.56-.27-19.16l0-.47.88-.29.19-.22a.65.65,0,0,1,.8-.08c1.35.85,13.28,8.39,16.44,9.81l.34.15,0,.37c.17,3.36,1.32,11.21,1.34,11.29l.06.41Zm-8.47-7.87c2.61,1.74,7.3,5.42,8.58,6.42l8.66-5c-.23-1.61-1.07-7.51-1.27-10.64-2.92-1.41-10.56-6.15-14.39-8.56l7,12.19a1.44,1.44,0,0,1,.9.68,1.48,1.48,0,0,1,.11,1.25,1.46,1.46,0,0,1-.89.88,1.48,1.48,0,0,1-1.62-.43,1.46,1.46,0,0,1-.29-1.34l-7-12.19C132.09,155.68,132.38,164.83,132.15,168.06Zm8.08-4.44-.08.13a.27.27,0,0,0,0,.32.27.27,0,0,0,.29.08.26.26,0,0,0,.17-.17.24.24,0,0,0,0-.23.25.25,0,0,0-.23-.13Zm-7.61-15.26h0Z"/><polygon points="147.99 177.06 142.99 179.94 140.97 175.48 145.55 172.84 150.14 170.19 152.99 174.17 147.99 177.06"/><path class="cls-6" d="M142.71,180.8l-2.51-5.56,10.11-5.84,3.56,5Zm-1-5.07,1.52,3.36,8.86-5.11L150,171Z"/><path class="cls-2" d="M55.26,174.87a1.54,1.54,0,1,1-1.42-1.66A1.54,1.54,0,0,1,55.26,174.87Z"/><path class="cls-2" d="M207.89,118.25a1.54,1.54,0,1,1-1.42-1.66A1.54,1.54,0,0,1,207.89,118.25Z"/><rect class="cls-2" x="17.63" y="205.39" width="1" height="162.79" transform="translate(-58.04 9.7) rotate(-11.75)"/><path class="cls-2" d="M35.06,365a1.55,1.55,0,1,1-1.86,1.15A1.53,1.53,0,0,1,35.06,365Z"/><rect class="cls-6" x="15.54" y="286.17" width="5.58" height="5.58"/><path class="cls-2" d="M21.62,292.25H15v-6.58h6.58Zm-5.58-1h4.58v-4.58H16Z"/><path class="cls-2" d="M1.9,205.59A1.55,1.55,0,1,1,0,206.75,1.55,1.55,0,0,1,1.9,205.59Z"/></g></svg>