<svg xmlns="http://www.w3.org/2000/svg" viewBox="0 0 951.44 775.57"><defs><style>.cls-1{opacity:0.5;}.cls-2{fill:#998675;}.cls-3{fill:none;}.cls-4{fill:#6d6a66;}.cls-5{fill:#3f372e;}.cls-6{fill:#fff;}.cls-7{fill:#a5a5a5;}.cls-8{fill:#b5b1ac;}.cls-9{fill:#1a1a1a;}.cls-10{fill:#4f473e;}.cls-11{fill:#333;}.cls-12{fill:#4d4d4d;}.cls-13{fill:#7e6a52;}.cls-14{fill:#f2f2f2;}</style></defs><title>工作區域 3</title><g id="圖層_3" data-name="圖層 3"><g class="cls-1"><path class="cls-2" d="M367.14,188.29c152.74-94.75,286.59,43.38,437,68.33,37.31,6.18,71.84,4.94,98.06,43.43,22.27,32.69,48.61,87.1,35.73,130.4-17,57.18-77.58,129.35-122.5,143.51-55.29,17.43-113.05,23.32-167.83,43.22-60.33,21.9-117.31,58.54-177.4,81.56-63,24.14-137.56,13.17-202.26,3.85C173.73,689,148.14,625.45,118.05,521c-14.81-51.4-35.67-112.56-66.36-151.86C31.89,343.8,7.39,337,6.32,293.67c-1.1-44,31.29-70.37,57.68-90.74,43.92-33.87,85.65-45.56,136.64-44.83C259.33,158.94,309.57,224,367.14,188.29Z"/></g><path class="cls-2" d="M389.74,689.9c-37.49,0-75.58-5.49-111.09-10.61l-1.29-.18c-44.59-6.43-76.18-24.53-99.4-57-20.94-29.26-34.55-68-51-125.06-13.09-45.45-34.2-110.62-66.26-151.66-5.54-7.09-11.43-12.7-17.12-18.14C28.78,313.18,16,301,15.22,269.61c-1.14-45.67,34.4-73.09,57.91-91.23,41.86-32.29,82.85-45.73,137-45,23.35.34,45.5,10.84,66.91,21,33.3,15.79,64.75,30.71,99.27,9.29l.31.51-.31-.51c45.87-28.45,94.36-38.27,148.23-30,48.13,7.38,96.49,28.29,143.26,48.5C715,202.58,763.72,223.65,813.74,232c5.48.91,11,1.66,16.25,2.39,30.7,4.24,59.7,8.25,82.21,41.3C924.41,293.56,963.06,356,948,406.55c-17.43,58.57-78.3,129.85-122.9,143.91-25,7.88-50.93,13.5-76,18.93-30.38,6.58-61.8,13.39-91.79,24.28-31.32,11.37-62.26,27-92.18,42.07-27.69,14-56.32,28.42-85.21,39.49C451.5,686.12,420.82,689.9,389.74,689.9Zm-184-555.31c-51.74,0-91.4,13.5-131.9,44.74-23.33,18-58.57,45.19-57.46,90.25.77,30.88,13.39,42.91,28,56.85,5.73,5.46,11.66,11.1,17.25,18.26C93.84,385.9,115,451.21,128.13,496.76,158,600.38,182.93,664.29,277.54,677.92l1.28.18c64.8,9.34,138.25,19.93,200.68-4,28.83-11.05,57.44-25.48,85.1-39.44,29.95-15.11,60.92-30.74,92.31-42.13,30.06-10.92,61.52-17.74,92-24.33,25-5.42,50.94-11,75.89-18.9,21.16-6.67,47.2-26.87,71.44-55.44,24-28.33,42.52-60.29,50.67-87.66,14.9-50.09-23.52-112.09-35.65-129.9-22.21-32.61-51-36.57-81.39-40.78-5.3-.73-10.78-1.49-16.28-2.4-50.16-8.32-99-29.42-146.2-49.83-97.08-42-188.78-81.61-290.39-18.58-35.07,21.76-66.81,6.71-100.41-9.22-21.3-10.1-43.33-20.55-66.41-20.88Z"/><path class="cls-3" d="M902.34,661l-21.65-12.24h-7.12c8.92,5.42,16.22,9.83,20.28,12.24Z"/><path class="cls-3" d="M466.35,648.77H440.58C449.13,649.17,457.75,648.9,466.35,648.77Z"/><path class="cls-3" d="M843.06,706.83h-6.53c1.66,4.27,3.27,8.74,4.68,12.78h6l-2.76-8.7A41.67,41.67,0,0,0,843.06,706.83Z"/><path class="cls-3" d="M498.2,648.77H479.61C485.8,648.87,492,648.93,498.2,648.77Z"/><path class="cls-3" d="M132.48,661c8.83-5.63,16.18-10,18.23-10.42a25.18,25.18,0,0,0,4.26-1.82h-7.5L125.16,661Z"/><path class="cls-3" d="M93.56,687.84c4.72-4,23.94-17.28,38.92-26.83h-7.32l-22.43,12.3c-.17.07-12.24,5.27-20.82,28.88h4.41C88.81,695.29,91.35,689.74,93.56,687.84Z"/><path class="cls-3" d="M40.09,706.83c-.48,1.31-.94,2.66-1.39,4.08l-2.76,8.7h4.39c1.32-4.41,2.73-8.82,4.16-12.78Z"/><path class="cls-3" d="M877.19,675.22,852.05,661h-8.5c1.53.9,2.62,1.53,3.14,1.81,6.77,3.63,34.1,15,40.21,26.39a126,126,0,0,1,5.72,13h6.53C892.55,685.48,877.31,675.27,877.19,675.22Z"/><path class="cls-4" d="M478.07,648.74c-3.89-.07-7.8,0-11.72,0h13.26Z"/><path class="cls-4" d="M846.69,659.63c-.52-.3-1.61-1-3.14-2H132.48c-15,10.33-34.2,24.64-38.92,29-2.21,2.05-4.75,8.06-7.24,15.51h806.3a141.49,141.49,0,0,0-5.72-14C880.79,675.88,853.46,663.56,846.69,659.63Z"/><path class="cls-4" d="M436.31,648.52a59.4,59.4,0,0,1-20.61-4.93c-.93-.17-1.87-.31-2.8-.5-12.81-2.49-25.53-7.28-36-15.53-9.64-7.57-17.75-17-25.67-26.57-11.57-5.22-23.79-11-26.38-13.77-4.26-4.5-26.27-6.42-31.83-6.84a7.68,7.68,0,0,0-2.48.22c-5.85,1.49-31.11,7.91-32.15,7.89s-43,26.33-43,26.33-45.5,26.61-60.4,33.95H440.58C439.15,648.7,437.73,648.63,436.31,648.52Z"/><path class="cls-4" d="M82.16,719.61c-2.47,9.74-4.61,19.48-6,25.83-.95,4.46.55,9.2,3.7,11.54q1.74,1.29,3.63,2.5H464.47V719.61Z"/><rect class="cls-4" x="472.98" y="719.61" width="55.52" height="39.87"/><path class="cls-4" d="M902.09,735.81c-.54-1.36-2.38-8-4.79-16.2H571.56v39.87H856.73c25.2-2.25,42.63-4.11,44.32-5.61C907.1,748.52,903.3,738.86,902.09,735.81Z"/><path class="cls-4" d="M741.61,598.8a7.67,7.67,0,0,0-3.47-1.14l-84-6.69a6.93,6.93,0,0,1-.78-.1l-27.3-5c-2.71,7-9.49,12.84-14.85,17.27-3.38,2.79-6.88,5.34-10.45,7.74-5.35,8.76-18,13-26.31,16.31-5.92,2.38-12.1,5.83-18.83,8.84a146.06,146.06,0,0,1-24.28,8.76,154.85,154.85,0,0,1-33.18,4H823.27C795,631.59,750.59,604.31,741.61,598.8Z"/><path class="cls-4" d="M44.49,706.83c-1.43,5.57-2.84,11.75-4.16,17.94H274.24V706.83Z"/><path class="cls-4" d="M831.78,706.83H286.51v17.94H836.45C835,719.1,833.44,712.82,831.78,706.83Z"/><rect class="cls-4" x="688.71" y="648.77" width="5.95" height="12.24"/><path class="cls-4" d="M873.57,648.77H699.26V661H893.85C889.79,658.6,882.49,654.19,873.57,648.77Z"/><path class="cls-4" d="M205.26,648.77a25.18,25.18,0,0,1-4.26,1.82c-2,.44-9.39,4.79-18.22,10.42h67.51V648.77Z"/><rect class="cls-4" x="263.54" y="648.77" width="79.49" height="12.24"/><rect class="cls-4" x="356.28" y="648.77" width="10.67" height="12.24"/><path class="cls-4" d="M546.66,648.8c-5.58.11-11.17.06-16.75,0H516.65c-8.6.13-17.23.4-25.78,0H380.2V661H546.66Z"/><path class="cls-4" d="M372,762.71c24.76-.52,90.88,0,116.16,2.06s158.1,7.23,197.49,9.3,70.45,4.12,115.87-9.3c14.15-4.18,43.84-7.86,78.22-11.1H270.2C307.16,762.66,354.47,763.07,372,762.71Z"/><polygon points="256.51 588.94 256.07 588.05 145.42 648.77 147.47 648.77 256.51 588.94"/><polygon points="70.85 746.08 71.74 746.53 77.77 719.61 76.77 719.61 70.85 746.08"/><path d="M102.73,673.31,125.16,661h-2L102.35,672.4c-.54.22-12.73,5.43-21.45,29.79h1C90.49,678.58,102.56,673.38,102.73,673.31Z"/><path d="M40.09,706.83h-1c-.43,1.21-.86,2.45-1.27,3.76l-2.86,9h1l2.76-8.7C39.15,709.49,39.61,708.14,40.09,706.83Z"/><polygon points="197.76 648.77 195.71 648.77 173.41 661 175.46 661 197.76 648.77"/><polygon points="904.34 661 882.69 648.77 880.69 648.77 902.34 661 904.34 661"/><path d="M877.19,675.22c.12,0,15.36,10.26,22,27h1.16c-6.1-17.21-22.25-27.69-22.73-27.88L854.05,661h-2Z"/><polygon points="909.33 746.53 910.23 746.08 904.31 719.61 903.31 719.61 909.33 746.53"/><path d="M844.46,710.91l2.76,8.7h1l-2.86-9c-.32-1.29-.71-2.54-1.14-3.76h-1.16A41.67,41.67,0,0,1,844.46,710.91Z"/><polygon points="725 588.05 724.57 588.94 830.4 648.77 832.4 648.77 725 588.05"/><path class="cls-5" d="M412.53,240.8c-1.58-.23-3.14-.55-4.69-.86-2,0-4-.25-5.55-.33-2.68-.14-5.4,0-8.08,0a7.86,7.86,0,0,1-1.41-.13c-1.08.19-2.16.37-3.24.52-.1.11-.22.21-.31.32-1.69,2.08-2.65,3.22-3.35,5.87a13.48,13.48,0,0,0,0,6.85,16.13,16.13,0,0,0,1.81,4.69,13.9,13.9,0,0,0,8.28,6.42,15.66,15.66,0,0,0,7.81.11,15,15,0,0,0,9.76-7.61A15.55,15.55,0,0,0,415,245.89,12.84,12.84,0,0,0,412.53,240.8Z"/><path class="cls-5" d="M569.62,239.91a73.29,73.29,0,0,1-8.35-.16c-4.95-.13-9.86.71-14.79,1.25a12,12,0,0,0-2.8,5.19,13.48,13.48,0,0,0,0,6.85,16.44,16.44,0,0,0,1.82,4.69,13.9,13.9,0,0,0,8.28,6.42,15.62,15.62,0,0,0,7.8.11,15,15,0,0,0,9.76-7.61,15.5,15.5,0,0,0,1.39-10.76A13.87,13.87,0,0,0,569.62,239.91Z"/><path class="cls-6" d="M696.27,268c-2.14-10.45-8.26-21.1-15.72-28.65a57,57,0,0,0-17.9-12.15L662,226c-1.61-4.48-3.09-9-4.63-13.52-3.85-11.29-8.52-22.34-13.45-33.18A344.14,344.14,0,0,0,618.56,134c-9.24-14.18-19-28-29.06-41.67-6.47-8.79-12.83-17.92-21.34-24.84C557.7,59,552.73,55.84,540.19,51c-7.16-2.77-15.06-3.67-22.7-3.84a43.28,43.28,0,0,0-10.6,1.17A48.93,48.93,0,0,0,474,35.42c-23.27-.25-46.07,11.21-61.19,28.79-11.78,13.69-20.92,29.09-30.46,44.36l-25.83,41.32-.39.61a15.28,15.28,0,0,1-1.67,10.26c-3.9,6.91-6.44,16.25-11.83,24.09-2.27,3.29-4.66,6.49-6.61,10-.83,1.49-1.59,3-2.29,4.6,0,0-1.34,3.52-1.48,3.91-5.8,16-11.3,32.24-27.83,39.75-2.24,1-4.52,1.94-6.79,2.9.42-.16-3.19,1.46-3.58,1.66a26.41,26.41,0,0,0-6.8,4.74,56.19,56.19,0,0,0-6.67,7.09c-.57,9.66-3.23,18.76-6.27,27.81a16.44,16.44,0,0,1,.6,3.68c.54,14.38,5.46,29.05,10.54,43.85,8,.14,13.58,7.44,14.09,15,.05.92.13,1.83.22,2.74,0,.26.1.6.17,1,.31,1.54.61,3.08,1,4.6a88.7,88.7,0,0,0,3.12,9.85,79,79,0,0,0,3.38,7.6c1.57,3.22,3.25,6.4,5,9.54,6.79,12.38,14.5,24.31,20.2,37.27,8.8,20,12.36,41.29,13.88,62.84a15.62,15.62,0,0,1,10.67,7.16c7.82,12.55,10.09,31.28,5,45.23-2.94,8-7.87,13.83-13.59,20-.41.43-2.39,3.19-2.37,3-.29.56-.6,1.17-.72,1.35-.32,1.32-.8,3.5-.78,2.91-.16,1.57-.2,3.16-.23,4.74-.09,4.14-.06,8,.1,11.7-4.24,5.13-3.05,11.69.87,16.72,25.2,32.28,66.55,43.58,105.5,48.56,40,5.11,82.32,1.1,120.27-12.88,12.16-4.47,21.66-11.09,31.59-19.28,9.37-7.73,19.79-14.37,24.59-25.93,2.24-5.38-1.48-11.71-6.36-14.39a67.9,67.9,0,0,1-3-11.24c-1.07-5.78-1.75-11.63-2.42-17.47-.05-.42-.09-.85-.13-1.28-.19-.28-1.27-4.54-1.41-5.08-1.3-4.76-2.91-9.42-4.32-14.14-2.84-9.5-5.2-19.69-4.38-29.66.79-9.58,3.72-18,7.51-26.79,3.71-8.54,7.2-15.18,10-23.81,1.14-3.5,2.15-7,3.06-10.62a16.84,16.84,0,0,1-2.49-13c2.72-12.34,9.5-24,17-34,5.41-7.21,11.58-14.68,18.89-20.39l.5-.7c5.64-7.11,11.35-14.14,16.8-21.42,7.31-9.77,12.11-19.73,16.57-31.22C698.78,298.91,699.36,283,696.27,268Z"/><path class="cls-7" d="M581.51,590.23a46.39,46.39,0,0,1-9.19,2.75A20.59,20.59,0,0,0,581.51,590.23Z"/><path class="cls-8" d="M618.76,586.65c-.67,1.24-1.33,2.48-2,3.72.64.76,1.31,1.53,2,2.32.51-1.65,1-3.3,1.54-4.94A7.65,7.65,0,0,1,618.76,586.65Z"/><path class="cls-8" d="M723.43,458.33c-6.75-8.74-20.44-15-31.54-10.75q-9.89,3.8-19.7,7.8a231.61,231.61,0,0,1,8.91-31.33q1.49-3.21,3.16-6.36c5.22-9.76,5-22.32-.74-31.59,3.86-14.16,7.33-28.44,11-42.6a7.92,7.92,0,0,0,.26-2.21c.71-2.41,1.42-4.82,2.15-7.22a6.88,6.88,0,0,0-.3-5.15,25.84,25.84,0,0,1,3.21-6c0-6.23-.17-12.48-.34-17.36-.47-13-1.44-27.41-3-40s-11.32-41.64-13.05-52.74-11.74-65-14.72-84.32S639.15,69.86,632,63.28s-53.68-39.49-75.44-46.14-61.27-5.93-61.27-5.93C453.28-1.18,414.71,20.89,376.5,39s-56,66.31-72.35,92.57-25.6,134.38-25.6,134.38,2.53-6,3.44-7.44,6.54-7.06,6.54-7.06A91.37,91.37,0,0,1,286.39,273c-2.54,10.77-2.73,53.3-2.73,53.3l-6.24-17.37s-2.88,21.11-5.66,39.7-25.49,81.37-28.5,99.53.4,21.63,1,35.29,3,20.41-1,35.83-20.7,27.87-25.51,32.79,2.31,15.68,2.31,15.68-4.41,19.87-8.08,26.83a37.16,37.16,0,0,1-9.82,11.4s13.74-1.1,16.65,2.13,33.2-3.2,34.32-1.34,37.76,2.84,37.76,2.84,36.41-6.14,48.29-4.59S361.23,596,361.23,596s13.53-42.08,13.3-34.71-1.56,19,9.74,37.06a52.22,52.22,0,0,0,29.34,22.29s-2.58-.87-14.67-7.49-9.74-15.92-11.85-28.47,1.69-24.06,2.44-45S378.17,503,369.25,482c-3-7.12-7.28-17.08-12-28a25.14,25.14,0,0,1-2.58-3.09c-2.3-3.31-4.24-7.28-4.35-11.38l-.09-.17a8,8,0,0,1-.75-2.11,7,7,0,0,1-1.55-4.64c0-5.23.14-10.47.35-15.7l-.87-2.11c-2.42-5.9-5.36-11.6-7.48-17.62-2-5.54-2.05-12.18-4.58-17.43a7.78,7.78,0,0,1-.81-3.55c-4.16.21-8.54.57-11.89-2.22-3.74-3.09-5-8.32-6.67-12.7-4.3-11.26-2.68-22.75-2.05-34.48,0-.24.05-.48.08-.71-.13-1.11-.27-2.22-.4-3.35-3.24-28,9.06-77.29,11-86.36s22.91-44.77,22.91-44.77,32.64-61.45,63.69-88.23S471,76.5,474.52,77.93l4,2.57a49.75,49.75,0,0,0,12.32-1.84c6.35-1.84,9.82.41,14.42.81s25,1.81,30,4.13,23.45,8,30.45,12.63,31.88,29.07,45,43.11,26,50.35,33,66.78,11,27.94,11.15,29.2,1.19,25.36,1.19,25.36l11.36-10.6s8.85-.8,10.78.46,6.35,8.4,8.33,10.27,6.29,20.4,5.91,28.94-5.21,21.07-5.14,24.35-3.75,8.45-4,9.26c-.14.42-3.46,8.31-6.65,15.84a7.88,7.88,0,0,0-1,1.61,53.74,53.74,0,0,1-15.56,19.91c-7.09,5.46-15.62,9.26-23.6,13.34l-4.92-1.4-13,37.44-.19,1.1c-2.74,9.09-3.32,18.72-4.28,28.37,0,.36-.05.73-.06,1.1s-.11.51-.17.76c-3.45,15.63-6.53,31.4-12.21,46.39-1,2.14-2,4.25-3.15,6.34-6.08,11.37-5.3,27.17,4.69,36.35,10.38,9.53,23.87,10.77,36.36,4.69l1.7-.81c-.19.52-.39,1-.57,1.55-5.3,14.79,6,33.49,20.95,36.9,16.85,3.84,31.23-5.11,36.9-21q3.84-10.71,8.17-21.23,8.64-19.93,19.06-39A30.29,30.29,0,0,0,723.43,458.33Z"/><path class="cls-9" d="M655.2,252.69a2.47,2.47,0,0,0-.63-1.59,29.59,29.59,0,0,0,.15-8.46c0-.06,0-.1,0-.15.05-.54.09-1.07.14-1.6,0-.09,0-.17,0-.25.87-2.95-1.33-5.31-4.22-6.28-4.08-1.37-8.08-3.73-12.49-3.65a2.62,2.62,0,0,0-1.05.23l-.25,0a14.41,14.41,0,0,0-3.75-1.67,4,4,0,0,0-2.95-.83,4.69,4.69,0,0,0-1.45-.52c-.86-.16-1.58-.28-2.29-.36a5,5,0,0,0-1.59-.56,312.83,312.83,0,0,0-41.61-4.61c-14.11-.5-28.11,1.53-42.2,1.24a4.66,4.66,0,0,0-2.86.81H538c-7.31.5-14.74.65-21.92,2.18a5.1,5.1,0,0,0-3.29.33l-.39.18a2.58,2.58,0,0,0-1.14,0c-7.73,1.73-14.65,5.39-22.19,7.63-8.05,2.41-17.77.22-25.66-1.92-3.09-.84-4.41,4-1.32,4.82,1.47.4,3,.79,4.54,1.15,0,3,1.64,5.59,1.39,8.69a2.24,2.24,0,0,0,.19,1.08,9.4,9.4,0,0,0-3.79,4.64c-.81,2.14,1.9,3.81,3.65,2.83a31.12,31.12,0,0,1,16-4.36,27.86,27.86,0,0,1,4.33,1.24c3.53,1.34,4.25,2.33,5.14,5.78a2.27,2.27,0,0,0,1.09,1.47c1.85,8.25,3.69,16.76,6.21,24.91a2,2,0,0,0-.23.28,3.88,3.88,0,0,1,.29,1.86c-.21,2.15.82,4.11,1.41,6.15.21.73.39,1.47.54,2.21a2.43,2.43,0,0,0,1,.35c.3,1,.6,2,.93,3.06a7.53,7.53,0,0,1,.54,1.06,25.28,25.28,0,0,0,3.44,5.19,32.51,32.51,0,0,0,3.27,3.45l1.14.61c2,2.6,6.48,3.68,9.25,4.82a33.6,33.6,0,0,0,3.54,1.21c4.47.6,8.88,1.72,13.4,1.91a1.78,1.78,0,0,0,.67-.3c.57.05,1.15.08,1.73.09a22.76,22.76,0,0,1,2.95.27c1.29,0,2.59.13,3.92.17,4.28.14,8.6,0,12.87-.29,1.51-.1,3-.22,4.52-.35a2.13,2.13,0,0,0,.42.48c5.15-.31,10.24-.88,15.44-.89a1.59,1.59,0,0,1,.13-.13c.9.07,1.8.17,2.7.31,2.35-.11,4.75,0,7.09,0a5,5,0,0,0,2.12-.47,36.76,36.76,0,0,0,16.61-2.22c2-.7,3.94-1.67,5.8-2.45,2.4-1,3.6-2.84,5.69-4.14a4.94,4.94,0,0,0,1.85-2,5.24,5.24,0,0,0,1.34-1.42c1.12-1.76,3-2.52,4.27-4.13a13.77,13.77,0,0,0,2.07-4.62,67.33,67.33,0,0,0,2.51-12.59,5.37,5.37,0,0,0,.8-2.32c.46-4.46,1.38-8.78,2-13.16a3.85,3.85,0,0,0,1.35-1,13.28,13.28,0,0,1,1.51-1.49c.31-.21.63-.42,1-.61a5.46,5.46,0,0,0,3.74-.58,2,2,0,0,1-.07-.26c2.83-.36,6.19.64,8.62-.86S655.31,255.25,655.2,252.69Zm-22,11.26c-.91,7.11-1.57,14.51-3.55,21.43v0A22.92,22.92,0,0,1,624,299c-5.17,9.27-18.21,11.73-28.09,12.31a68.58,68.58,0,0,1-12.2,1.2c-.68,0-1.35,0-2,0a2.31,2.31,0,0,0-1.39-.37l-5.94.27c-2.28-.05-4.55-.1-6.82,0-5.57.13-11.09,1-16.66,1-3.46,0-6.93-.21-10.39-.45a30.76,30.76,0,0,1-12-2h0q-.57-.14-1.11-.3a42.33,42.33,0,0,1-4.22-1.64c-.45-.19-2.09-.7-3.51-1.22a30.66,30.66,0,0,1-3.75-2.76,32.57,32.57,0,0,1-8-10.63c-.39-.81-.74-1.62-1.08-2.44-.37-1.95-1.43-3.68-1.82-5.66a2,2,0,0,0-.33-.75,68.31,68.31,0,0,1-2.12-14.31c-.15-.73-.3-1.45-.42-2.18s-.3-1.5-.47-2.25a5.49,5.49,0,0,1-.12-1.59c-.08-.38-.18-.76-.26-1.14A18.61,18.61,0,0,1,500,258.5a5.57,5.57,0,0,1,.15-1.51q-.35-3.5-.34-7.08c0-4.56.24-9.35,3.81-12.6a24.29,24.29,0,0,1,8.9-5.09,4.91,4.91,0,0,1,1.61-.67c.34-.09.69-.15,1-.22a4.66,4.66,0,0,1,3.08-1.06l.38,0c4.32-1.47,9.22-1.46,13.68-1.73,2.61-.15,5.39-.65,8.13-.8a5.9,5.9,0,0,1,1.06-.14c7.31-.13,14.59-1.23,21.9-1.56,2.69-.11,5.64-.55,8.41-.23h.09a55.58,55.58,0,0,1,13.13,1c4.34.8,9.48.32,13.59,1.94a4.85,4.85,0,0,1,.69.32,30.09,30.09,0,0,1,10.38,2.76l.12.08a38.67,38.67,0,0,1,8.06,2.18c2.72,1,5.8,1.11,8,3.21q.75.26,1.5.48a4.67,4.67,0,0,1,3.24,3.11,4.49,4.49,0,0,1,1.29,4.55c.84,2.37,2,4.45,2.08,7.23A75.14,75.14,0,0,1,633.25,264Z"/><path class="cls-9" d="M468.1,237.62c-2.53-3.5-7.72-7.14-12.44-7.91a4.33,4.33,0,0,0-.87-.51l-5.13-2.27a5.1,5.1,0,0,0-3.29-.33c-7.18-1.53-14.61-1.68-21.92-2.18h-.06a4.66,4.66,0,0,0-2.86-.81c-14.09.29-28.09-1.74-42.2-1.24A312.83,312.83,0,0,0,337.72,227a5,5,0,0,0-1.59.56c-.71.08-1.43.2-2.29.36a4.69,4.69,0,0,0-1.45.52,4,4,0,0,0-2.95.83,14.41,14.41,0,0,0-3.75,1.67,5.56,5.56,0,0,0-1.51.26c-.07.17-.15.34-.24.52-1.19,2.23-.88,6-1.24,8.4-.52,3.45-1.8,6.73-2.35,10.17-.66,4.17-1.14,8.88-2.36,13.17a5.46,5.46,0,0,0,3.74.58c.33.19.66.4,1,.61a13.28,13.28,0,0,1,1.51,1.49,3.85,3.85,0,0,0,1.35,1c.6,4.38,1.52,8.7,2,13.16a5.37,5.37,0,0,0,.8,2.32,66.53,66.53,0,0,0,2.51,12.59,13.77,13.77,0,0,0,2.07,4.62c1.28,1.61,3.14,2.37,4.27,4.13a5.24,5.24,0,0,0,1.34,1.42,4.94,4.94,0,0,0,1.85,2c2.09,1.3,3.29,3.15,5.68,4.14,1.86.78,3.82,1.75,5.8,2.45a36.79,36.79,0,0,0,16.61,2.22,5.06,5.06,0,0,0,2.13.47c3.69,0,7.5-.27,11.11.52a40.8,40.8,0,0,0,11,.75,5.28,5.28,0,0,0,1.74-.38c6,.61,12.7,1.63,18.59.68a50.62,50.62,0,0,1,7.57-1.12,15.63,15.63,0,0,0,6.79-1.37,32.88,32.88,0,0,0,3.84,0,5.57,5.57,0,0,0,3.17-1.26,5.77,5.77,0,0,0,.74-.24,14.36,14.36,0,0,1,1.61.05,4.39,4.39,0,0,0,3.53-1.51,31.08,31.08,0,0,0,3.09-.68c2.8-.82,5.39-2.56,8-3.83,5.06-2.48,6-9,7.71-13.94a4.67,4.67,0,0,0,.23-2.46c4.42-11.84,6.85-24.84,9.69-37C470.35,249.07,471.83,242.78,468.1,237.62Zm-8,31.09c-.18,8.81-1.6,17.69-5.44,25.67a32.57,32.57,0,0,1-8,10.63,27.1,27.1,0,0,1-5.89,3.95,13,13,0,0,1-3.36.83.75.75,0,0,0-.13.06,14.75,14.75,0,0,1-3.07,1l-.39.05a34.93,34.93,0,0,0-3.92,1.54c-6.08.24-12.16.92-18.25.91-5.56,0-11.08-.86-16.65-1-5.38-.13-10.79.29-16.17.09-4.21-.16-9.42-.35-13.6-1.55-3.52-.76-7.38-.77-10.72-2a54.52,54.52,0,0,1-10.59-5.14c-6.16-4.15-10.67-10.85-11.1-18.34v0c-2-6.92-2.64-14.32-3.55-21.43a75.14,75.14,0,0,1-.69-11.32c.08-2.78,1.24-4.86,2.08-7.23a4.49,4.49,0,0,1,1.29-4.55,4.65,4.65,0,0,1,3.24-3.11q.75-.23,1.5-.48c2.19-2.1,5.27-2.17,8-3.21a38.67,38.67,0,0,1,8.06-2.18l.12-.08A30.09,30.09,0,0,1,363.21,229a5.29,5.29,0,0,1,.68-.32c4.12-1.62,9.26-1.14,13.6-1.94a55.58,55.58,0,0,1,13.13-1h.09c2.77-.32,5.72.12,8.41.23,7.31.33,14.59,1.43,21.9,1.56a5.67,5.67,0,0,1,1.05.14c2.75.15,5.53.65,8.14.8,5.06.3,10.68.25,15.38,2.39.93.19,1.86.37,2.79.6a4.91,4.91,0,0,1,1.61.67,24.29,24.29,0,0,1,8.9,5.09c3.56,3.25,3.82,8,3.81,12.6A65.52,65.52,0,0,1,460.09,268.71Z"/><path class="cls-9" d="M416.2,313.8c-3.34,0-6.65-.12-9.83-.23l-.56,0-4.29,0h-.67c-6.51-.06-13.45-.15-20.38-.4l-.91,0-3.25-.16c-17.2-.79-37.72-4.39-43.7-25.38-.11-.39-.29-1-.5-1.65a56.45,56.45,0,0,1-1.81-6.7c-.68-6-1-10.72-1-10.77-.08-.49-1.94-12.92-.95-16.19A29.33,29.33,0,0,0,329,249c.58-3.54,1.37-8.39,4.36-10.86,3.78-3.11,31.7-12.92,59.51-12.92h0c1.83.09,44.78,2.17,51.56,4.29,9.53,3,15.18,6.32,16.8,9.88s3.17,10.7,1,23.76c-.23,1.38-.45,2.76-.67,4.15-1,6-2,12.22-3.47,18.22-.28.93-.56,1.85-.84,2.75-.19.6-.38,1.19-.55,1.77C450.35,310.89,432.86,313.8,416.2,313.8Zm-23.37-87.59c-26.4,0-54.91,9.43-58.87,12.69-2.7,2.23-3.43,6.68-4,10.25a28.12,28.12,0,0,1-.68,3.38c-.93,3.06,1,15.66,1,15.79s.35,4.83,1,10.75a58,58,0,0,0,1.77,6.53c.22.7.4,1.28.51,1.67,5.81,20.39,25.92,23.89,42.79,24.66l3.26.16.9,0c6.92.25,13.85.34,20.35.4h.66l4.31,0,.57,0c19.66.7,42,1.49,49.35-22.83.17-.58.36-1.18.55-1.78.28-.89.56-1.81.83-2.72,1.49-5.93,2.48-12.12,3.45-18.11.22-1.39.44-2.77.67-4.15,2.12-12.81.66-19.68-.93-23.19-1.5-3.28-6.95-6.43-16.2-9.33C437.51,228.38,393.76,226.26,392.83,226.21Z"/><path class="cls-9" d="M401.75,318.48c-8.71,0-17.36-.49-25.89-1-4.73-.26-9.63-.54-14.41-.72-10.9-1.08-19.61-5.59-25.23-13-.88-1.31-1.76-2.42-2.53-3.4a22.34,22.34,0,0,1-2.49-3.59,124.15,124.15,0,0,1-5.73-27.84c-1.09-3.76-4.3-4.29-7.78-4.53l.07-1c3.69.25,7.4.86,8.68,5.33a124.64,124.64,0,0,0,5.67,27.65,22.93,22.93,0,0,0,2.36,3.35c.78,1,1.67,2.12,2.55,3.44,5.44,7.19,13.91,11.56,24.5,12.61,4.76.18,9.66.46,14.4.72,20.94,1.18,42.61,2.39,63.95-3.66,14.34-4.07,17.66-10.46,21.65-30.32,2.33-11.61,5.57-25.78,7.85-27.67a17.64,17.64,0,0,1,11.79-3.68l0,1A16.6,16.6,0,0,0,470,255.63c-1.55,1.29-4.35,11.4-7.49,27.05-4,20.05-7.64,26.95-22.37,31.13C427.36,317.44,414.5,318.48,401.75,318.48Z"/><path class="cls-9" d="M481.15,235.82c-13.51,0-21.1-3.78-29.13-7.77a14.3,14.3,0,0,0-4.67-1.39c-28.66-3.33-51.84-4.49-72.94-3.65-20.58,1.21-36,3.66-50.05,8l-.29-1c14.11-4.33,29.62-6.8,50.29-8,21.17-.84,44.39.32,73.1,3.66a15.18,15.18,0,0,1,5,1.48c8.27,4.12,15.41,7.67,28.69,7.67Z"/><path class="cls-9" d="M553,317.74c-32.34,0-45-4.21-51.95-27.87-.28-.95-.46-1.9-.64-2.81-.08-.38-.15-.75-.22-1.11-4.07-19.16-6.52-28.25-8.18-30.4-1.48-1.92-6.15-3.37-10.86-3.37v-1c5.07,0,10,1.58,11.65,3.75s4.2,11.24,8.36,30.81c.08.37.15.75.22,1.12.18.9.36,1.83.62,2.73,6.78,23.22,18.68,27.15,51,27.15,1.63,0,3.27,0,4.93-.06l1.3,0c9.63-.16,18-.37,25-.63,1.95-.08,3.88-.18,5.7-.28,8.28.32,35.61-.57,41.89-25.67.24-.89.47-1.8.72-2.74.29-1.16.6-2.37,1-3.62.46-2.77,1.11-5.58,1.73-8.29a73.87,73.87,0,0,0,1.61-8.34c.26-2.82,8.31-4.52,10.37-4.52h3.66a3.59,3.59,0,0,0,3-1.81,4.37,4.37,0,0,0,.63-2.28V241.72c0-.14.87-5-1.61-5.93l-.4-.15C642.4,231.84,613.7,223,565.57,223c-.49,0-51.44,2.18-61.92,6.37-2.95,1.18-5.12,2.21-6.87,3.05-4.73,2.25-7.11,3.39-15.63,3.39v-1c8.3,0,10.6-1.1,15.2-3.3,1.76-.83,3.95-1.88,6.93-3.07,10.63-4.25,60.17-6.35,62.27-6.44,48.31,0,77.15,8.88,87.31,12.69l.38.15c3.27,1.19,2.31,6.72,2.27,7v16.66a5.34,5.34,0,0,1-.77,2.8,4.59,4.59,0,0,1-3.9,2.29h-3.66c-2.4,0-9.21,1.8-9.38,3.61a74.36,74.36,0,0,1-1.63,8.47c-.62,2.71-1.26,5.5-1.73,8.28-.36,1.3-.67,2.5-1,3.66-.24.95-.48,1.86-.72,2.74-4.35,17.42-20.36,27.29-42.84,26.42-1.78.1-3.72.2-5.67.28-7,.26-15.37.47-25,.63l-1.3,0C556.28,317.71,554.63,317.74,553,317.74Z"/><path class="cls-9" d="M546.09,313.8c-16.66,0-34.14-2.91-40.49-23.77-.18-.58-.36-1.17-.55-1.77-.28-.9-.57-1.82-.84-2.73-1.51-6-2.51-12.23-3.47-18.24-.22-1.39-.45-2.77-.67-4.15-2.16-13.06-.65-20.13,1-23.76s7.27-6.88,16.8-9.88c6.78-2.12,49.74-4.2,51.56-4.29h0c27.82,0,55.74,9.81,59.51,12.92,3,2.47,3.79,7.32,4.37,10.86a27.18,27.18,0,0,0,.65,3.25c1,3.27-.88,15.7-1,16.23,0,.09-1.33,6.31-2,12.21-.31,2.18-1.37,7.84-1.83,9.39-6.05,20.2-22.65,21.38-38.7,22.52l-4.49.34c-.94.07-1.87.11-2.82.14l-1.35.06c-6.94.25-13.87.34-20.38.4h-.67l-4.3,0-.55,0C552.75,313.68,549.44,313.8,546.09,313.8Zm23.38-87.59c-.94,0-44.68,2.17-51.3,4.25-9.25,2.9-14.7,6-16.19,9.33-1.6,3.51-3.05,10.38-.93,23.19.22,1.38.45,2.76.67,4.15,1,6,2,12.18,3.45,18.13.27.89.55,1.81.83,2.7.19.6.37,1.2.55,1.78,7.4,24.32,29.69,23.53,49.35,22.83l.55,0,4.32,0h.67c6.5-.06,13.43-.15,20.35-.4l1.35-.05c.94,0,1.86-.07,2.78-.15q2.25-.18,4.5-.33c16.44-1.17,32-2.28,37.81-21.82.44-1.47,1.5-7.1,1.8-9.22.67-5.95,2-12.21,2-12.27s1.91-12.7,1-15.76a30.49,30.49,0,0,1-.67-3.38c-.59-3.57-1.32-8-4-10.25C624.38,235.64,595.87,226.22,569.47,226.21Z"/><path class="cls-9" d="M481.28,379.78c-3.4,0-7.42-1.49-12.63-4.66s-8.45-1.95-11.84-.62c-2.16.84-4.39,1.72-7.1,1.3a10.55,10.55,0,0,1-7-4.6c-3.86-5.38-4.63-13.71-3.72-19.17,1.12-6.64,4.94-12.2,8.32-17.12,2.41-3.51,4.69-6.83,5.48-9.89,1.9-7.34,11.49-56.53,11.59-57l1,.19c-.09.5-9.69,49.72-11.59,57.09-.84,3.24-3.17,6.63-5.63,10.21-3.32,4.83-7.08,10.3-8.16,16.71-.88,5.27-.14,13.28,3.55,18.43a9.58,9.58,0,0,0,6.33,4.19c2.45.38,4.46-.41,6.59-1.24,3.46-1.36,7-2.76,12.71.69,5.06,3.08,8.91,4.52,12.12,4.52Z"/><path class="cls-9" d="M480.74,379.78v-1c3.22,0,7.07-1.44,12.12-4.52,5.68-3.45,9.26-2.05,12.71-.69,2.13.83,4.13,1.62,6.59,1.24a9.58,9.58,0,0,0,6.33-4.19c3.7-5.15,4.43-13.17,3.55-18.43-1.08-6.41-4.84-11.88-8.15-16.71-2.47-3.59-4.79-7-5.63-10.21-1.91-7.37-11.5-56.59-11.6-57.09l1-.19c.1.5,9.69,49.69,11.59,57,.79,3.06,3.07,6.38,5.49,9.89,3.37,4.91,7.2,10.48,8.31,17.12.92,5.46.14,13.79-3.72,19.17a10.51,10.51,0,0,1-7,4.6c-2.71.42-4.94-.46-7.1-1.3-3.38-1.33-6.58-2.58-11.83.62S484.14,379.78,480.74,379.78Z"/><path class="cls-9" d="M482.58,417.67h-3.86c-3-.17-5.69-1.26-5.53-8,0-1.36.59-6.53,1.08-11.1.33-3.13.65-6.09.65-6.49h1c0,.43-.26,2.79-.67,6.6-.46,4.32-1,9.69-1.07,11-.14,6.2,2.08,6.84,4.56,7h3.68l3.83-1.2.29,1Z"/><path class="cls-9" d="M434.36,432.09c-1.74,0-7.4-.45-11.15-.75l-1.46-.11.08-1,1.46.12c3.51.28,9.37.74,11.07.74,3.37,0,12.33-2,12.42-2,.63-.06,14-1.36,18.06-1.21a30.68,30.68,0,0,1,6.84,1c.47.11.93.23,1.4.33a10.24,10.24,0,0,1,1.87.65,12.1,12.1,0,0,0,5.73,1.09v1a13.13,13.13,0,0,1-6.13-1.17,8.35,8.35,0,0,0-1.68-.59l-1.43-.34a30,30,0,0,0-6.64-1c-4-.16-17.72,1.19-17.86,1.2C446.63,430.11,437.84,432.09,434.36,432.09Z"/><path class="cls-9" d="M480.68,432v-1a12.27,12.27,0,0,0,5.73-1.09,9.88,9.88,0,0,1,1.86-.65c.47-.1.93-.22,1.41-.33a30.67,30.67,0,0,1,6.83-1c4.08-.16,17.43,1.15,18,1.2.12,0,9.16,1.45,12.54,1.45,6.12,0,10.31-.09,12.47-.26l.08,1c-2.18.17-6.4.26-12.55.26-3.46,0-12.29-1.39-12.67-1.45-.11,0-13.8-1.36-17.82-1.2a30.15,30.15,0,0,0-6.65,1l-1.43.34a8.57,8.57,0,0,0-1.68.59A13.07,13.07,0,0,1,480.68,432Z"/><path class="cls-9" d="M465.13,447.9h-.05c-1.25,0-8.18-.58-11.3-1.81-.62-.24-1.17-.44-1.67-.61-2.27-.8-3.77-1.32-6.45-4.5a21.62,21.62,0,0,1-1.52-2.21c-.93-1.47-1.88-3-3-3.65l.5-.86c1.35.79,2.37,2.41,3.36,4a19.63,19.63,0,0,0,1.44,2.11,11.14,11.14,0,0,0,6,4.19c.52.18,1.08.38,1.71.63,2.95,1.16,9.79,1.71,11,1.74h.13l1.1-.09c2.93-.22,10.71-.83,14.62-.83v1c-3.87,0-11.63.6-14.55.83l-1.12.08Z"/><path class="cls-9" d="M496.77,447.9h-.15l-1.13-.08c-2.91-.23-10.67-.83-14.54-.83v-1c3.91,0,11.69.61,14.62.83l1.11.09h.12c1.17,0,8-.58,11-1.74.63-.25,1.19-.45,1.71-.63,2.18-.77,3.5-1.23,6-4.19.48-.58,1-1.33,1.52-2.12a16.24,16.24,0,0,1,3.27-3.93l.59.8a15.93,15.93,0,0,0-3,3.69,24.84,24.84,0,0,1-1.59,2.2c-2.67,3.18-4.17,3.7-6.44,4.5-.51.17-1.06.37-1.67.61-3.12,1.23-10.05,1.78-11.3,1.81Z"/><path class="cls-9" d="M466.5,450.58l-.39-.92c.28-.12,6.94-3,11.36-3h6.28c1,.09,9,.92,10.83,3.21l-.78.63c-1.33-1.67-7.74-2.61-10.1-2.84h-6.23C473.26,447.7,466.57,450.56,466.5,450.58Z"/><path class="cls-9" d="M475.58,518c-10,0-32.34-1.21-45.57-11.21-18.14-13.72-38.3-27.62-38.5-27.75s-16-9.59-29.42-34.81c-13.19-24.72-20.33-39.44-28.78-67.47-4.9-16.29-17.78-94.61-17.91-95.39l1-.17c.13.79,13,79.05,17.89,95.27,8.41,28,15.53,42.62,28.69,67.29,13.31,24.94,28.92,34.34,29.08,34.43s20.41,14.07,38.57,27.8c17.06,12.9,49.71,10.91,50,10.89l.07,1C480.63,517.87,478.7,518,475.58,518Z"/><path class="cls-9" d="M485.77,518c-3.12,0-5-.12-5.13-.12l.07-1c.33,0,33,2,50-10.89,18.16-13.73,38.34-27.64,38.54-27.78s15.8-9.51,29.11-34.45c13.16-24.66,20.28-39.34,28.7-67.28C632,360.23,649.23,263.94,649.41,263l1,.18c-.18,1-17.45,97.32-22.35,113.61-8.45,28-15.59,42.74-28.78,67.46C585.81,469.44,570,479,569.81,479s-20.33,14-38.47,27.74C518.12,516.78,495.79,518,485.77,518Z"/><path class="cls-9" d="M332.05,370.42c-5.19,3.9-9.8,2.1-10.4,1.84-.22-.2-1.09-1-2.45-2.11a9.4,9.4,0,0,1,0,1.3c1.16,1,1.82,1.57,1.85,1.6l.11.07a9.73,9.73,0,0,0,3.95.77,12.41,12.41,0,0,0,7.54-2.68Z"/><path class="cls-9" d="M280.57,317.77c-3.08-9.45-5.3-17.76-5.85-20.73-1.77-9.7-.54-18.08,1.84-27.69,2.6-10.46,4.71-14.26,9.89-17.43.06-.42.12-.85.19-1.27l0,0c-5.9,3.39-8.27,7.35-11,18.45-2.42,9.72-3.66,18.23-1.85,28.09.44,2.44,2.95,12,6.52,22.79Z"/><path class="cls-9" d="M282.19,307.47c.12-.78.25-1.56.37-2.34-.59-2.14-1.08-4.12-1.42-5.76-1.37-6.53-1.31-14.61-1.28-18.5v-1.26c0-2.52,3.46-10.27,5.75-15.4l.16-.37c0-.83,0-1.67,0-2.51-.33.75-.69,1.58-1.09,2.48-2.46,5.52-5.83,13.08-5.83,15.8v1.26c0,3.91-.08,12.06,1.3,18.71C280.61,301.74,281.34,304.53,282.19,307.47Z"/><path class="cls-9" d="M312.28,320.17c-.12.4-.25.8-.39,1.19,3.7,5.39,10.93,18,10.34,24.18-.19,2-.66,3.19-1.38,3.55-1.05.52-2.88-.58-4.81-1.75a34,34,0,0,0-3.18-1.75c0,.36,0,.72,0,1.08.9.44,1.8,1,2.68,1.51,1.78,1.08,3.37,2,4.71,2a2.33,2.33,0,0,0,1.07-.24c1.08-.54,1.69-1.91,1.92-4.34C323.86,338.93,316,325.37,312.28,320.17Z"/><path class="cls-9" d="M637.75,372.75a12.4,12.4,0,0,1-7.53-2.68l.6-.8c5.19,3.9,9.8,2.1,10.4,1.84a271.92,271.92,0,0,1,23.27-18.06c9.86-6.77,22.27-49.55,23.65-57.16,1.77-9.69.55-18.08-1.84-27.68-2.7-10.9-4.87-14.56-10.54-17.83a10.77,10.77,0,0,0-10.59,0l-9.78,8.48-.65-.76,9.84-8.52a11.55,11.55,0,0,1,11.67,0c5.89,3.38,8.26,7.35,11,18.45,2.41,9.73,3.65,18.23,1.85,28.1-1,5.69-13.36,50.45-24.07,57.8a273.35,273.35,0,0,0-23.23,18l-.12.08A10,10,0,0,1,637.75,372.75Z"/><path class="cls-9" d="M642.64,349.08a2.38,2.38,0,0,1-1.08-.25c-1.07-.55-1.68-1.93-1.91-4.34-.72-7.52,9.52-24.11,12.19-27.07.45-.5.72-.68,1-.68,1.13,0,6.5-2.05,7.53-5.13,1.11-3.31.94-9.21.94-9.27s-.78-4-5.7-4.4c-5.7-.41-7.79-10.91-7.87-11.36l1-.19c0,.1,2,10.2,7,10.55a6.87,6.87,0,0,1,6.61,5.3c0,.32.19,6.2-1,9.69s-6.83,5.72-8.37,5.8c-1.48,1-13,19-12.3,26.66.19,2,.65,3.18,1.37,3.54,1,.54,2.88-.57,4.82-1.74a27.37,27.37,0,0,1,3.65-2c1.74-.72,12.35-9,16.29-12.16h0a108.49,108.49,0,0,0,7.07-9.28c1.81-3.09,6.38-17.32,7.89-24.56,1.37-6.54,1.31-14.62,1.28-18.5v-1.27c0-2.51-3.46-10.26-5.75-15.39-.64-1.45-1.22-2.75-1.66-3.77a3.79,3.79,0,0,0-2.15-2.33c-2.23-.81-5.67,1-8.7,2.57C660,262,648.11,276.35,648,276.49l-.76-.64c.49-.59,12.15-14.63,17.06-17.19,3.21-1.68,6.85-3.58,9.5-2.63a4.82,4.82,0,0,1,2.73,2.87c.43,1,1,2.32,1.65,3.76,2.46,5.52,5.83,13.08,5.83,15.8v1.26c0,3.92.08,12.07-1.3,18.71-1.53,7.32-6.17,21.72-8,24.87a103.18,103.18,0,0,1-7.23,9.49c-.65.53-14.37,11.45-16.61,12.37a26.1,26.1,0,0,0-3.51,1.89C645.57,348.12,644,349.08,642.64,349.08Z"/><path class="cls-9" d="M650.41,285.14l-.1-1,7.15-.73a28.27,28.27,0,0,0,6.82-1.8c3.86-1.55,8-5.33,8.08-8.76l-2.26-9.68,1-.23,2.28,9.85c0,4.32-5.09,8.3-8.7,9.75a29.1,29.1,0,0,1-7.08,1.86Z"/><path class="cls-9" d="M658.31,332.65l-.86-.5,8.22-14.26a21.23,21.23,0,0,0,2.05-16.16c-1.46-5.23-2.42-8.5-2.79-9.46-.51-1.32-8.43-1.46-15.47-.83l-.08-1c3.6-.32,15.45-1.16,16.47,1.47.39,1,1.34,4.21,2.82,9.55a22.21,22.21,0,0,1-2.14,16.93Z"/><path class="cls-10" d="M389.1,240.78a13.06,13.06,0,0,0-3.22,8.57c0,7.45,6.34,15,14.17,15s14.17-7.6,14.17-15a13.06,13.06,0,0,0-3-8.23C403.82,240.53,396.52,239.11,389.1,240.78Z"/><path class="cls-10" d="M569.59,240.08a13.69,13.69,0,0,1,3.22,8.82c0,7.68-6.35,15.5-14.17,15.5s-14.18-7.82-14.18-15.5a13.64,13.64,0,0,1,2.95-8.46C554.87,239.82,562.16,238.36,569.59,240.08Z"/><path class="cls-9" d="M348.49,436.49h-1c0-7.16-1.28-24-1.29-24.19l1-.08C347.21,412.39,348.49,429.3,348.49,436.49Z"/><path class="cls-9" d="M614.06,445.57h-1c0-7.19,1.08-33.07,1.09-33.33l1,0C615.14,412.54,614.06,438.41,614.06,445.57Z"/><path class="cls-9" d="M492.74,564.79l-.12,0c-.18,0-17.64-3.16-25.44-6.2-6.19-2.42-6.67-4.61-7.27-7.38a18,18,0,0,0-.76-2.72l.92-.37a17.08,17.08,0,0,1,.81,2.88c.56,2.57,1,4.44,6.66,6.66,7.37,2.87,23.58,5.84,25.13,6.12L504,560.17l.3,1Z"/><path class="cls-9" d="M481.21,650.32c-53.87,0-96.61-13.48-127-40.07l.65-.75c30.24,26.43,72.76,39.82,126.38,39.82Z"/><path class="cls-9" d="M481.21,650.19v-1c80.52,0,118.77-29.29,134.4-46.76l.74.67C600.6,620.69,562.11,650.19,481.21,650.19Z"/><path class="cls-11" d="M564.47,592.72l-.15-1c34-5.17,35.89-28.57,35.91-28.81l1,.07C601.21,563.23,599.31,587.42,564.47,592.72Z"/><path class="cls-11" d="M308.09,600.91l-.43-.91c46.64-22.41,45.57-45.87,43.95-81.39-.25-5.44-.51-11.08-.61-17.07-.4-22.2-8.5-51.46-8.58-51.75q-2.54-7.2-5-14.09c-15-42.38-26.87-75.86-29.05-118.44-2.34-45.73,35.89-136.57,53.69-171,15.12-29.23,33-50.8,53.05-64.1s36.92-14.62,45.24-14.26c9.33.39,15.78,3.11,18.09,5.92.76-4,3.24-17.22,6-30.28,6.8-31.91,8.65-32,9.53-32l.05,1c-2.61,1.05-10.51,39.06-14.87,62.77l-.3,1.65-.64-1.55c-1.17-2.81-7.85-6-17.93-6.46-13.12-.56-58.88,3.42-97.36,77.83-17.77,34.34-55.92,124.94-53.59,170.47,2.17,42.44,14,75.85,29,118.15q2.43,6.88,5,14.13c.09.32,8.22,29.7,8.62,52,.11,6,.36,11.61.61,17.05C354.24,554.48,355.33,578.2,308.09,600.91Z"/><path class="cls-11" d="M652.8,235.35c-1.64-23.12-20.55-72.78-41.56-99.77-28.18-36.17-57.52-51.79-77.17-58.52-23.9-8.19-40.7-6.16-45.09-3.89l-.45-.89c5.74-3,23.76-3.74,45.86,3.83C554.17,82.89,583.69,98.6,612,135c21.12,27.12,40.12,77.05,41.77,100.31Z"/><path class="cls-11" d="M277.18,261.72c0-.22-1.48-22.65,6.83-72.25,7.46-44.53,29.17-93.46,54-121.76,38-43.31,109-70.77,155.06-60l-.22,1c-22-5.17-50.46-1.69-80.08,9.8-29.14,11.31-56.12,29.48-74,49.85C314,96.54,292.43,145.27,285,189.63c-8.28,49.47-6.83,71.8-6.82,72Z"/><path class="cls-11" d="M771.78,602.43c-19.7-9.7-41.13-40.55-63.69-91.7-16.77-38-27.91-73.7-28-74.05-5.95-27.77-.38-41.49,6.07-57.38,1-2.33,1.93-4.75,2.89-7.24,7.23-18.9,10.42-82.94,6.68-106-1.29-7.94-14.6-66.8-14.73-67.4-.76-3.75-1.52-7.29-2.28-10.82a416.31,416.31,0,0,1-7.44-43.46c-4.63-39.24-28.45-74.63-70.8-105.2-26.36-19-54.34-35.54-106.34-28.76l-.13-1c52.37-6.83,80.52,9.79,107,28.94,42.59,30.73,66.55,66.36,71.21,105.89a410,410,0,0,0,7.43,43.37c.75,3.53,1.51,7.07,2.27,10.82.13.59,13.44,59.48,14.74,67.45,3.75,23.19.54,87.54-6.73,106.55-1,2.5-1.94,4.92-2.89,7.26-6.39,15.73-11.91,29.32-6,56.74.42,1.38,44.66,142.2,91.19,165.11Z"/><path class="cls-11" d="M208.39,556.67l-.63-.77c37.24-31,34.52-56.87,31.9-81.85-1.53-14.62-3-28.43,3.51-42.67,23.54-51.61,31.84-128.25,31.92-129l1,.1c-.08.77-8.4,77.57-32,129.33-6.38,14-4.94,27.67-3.42,42.15C243.3,499.19,246,525.29,208.39,556.67Z"/><path class="cls-11" d="M295.26,607l-.42-.91c31.71-14.59,42.19-49.15,45.4-75.56,3.88-32-1.26-61.51-4.36-70.81-5.27-15.84-14.35-33.45-23.14-50.49-10.9-21.15-21.2-41.12-23.31-55.82-3.7-25.65,7.19-114.31,22.61-147.27C349.66,125.8,385.49,85.59,408.92,66c25.46-21.28,42.28-23.53,42.44-23.55,1-.25,25.87-6.44,32.86,4l-.83.56c-6.6-9.91-31.59-3.68-31.84-3.61s-16.84,2.27-42.1,23.42c-23.33,19.53-59,59.62-96.51,139.73-15.36,32.83-26.21,121.15-22.53,146.69,2.09,14.54,12.35,34.44,23.22,55.51,8.8,17.07,17.9,34.72,23.2,50.63C344.68,483,354.25,579.87,295.26,607Z"/><path class="cls-11" d="M263.22,607l-.49-.87c.37-.21,37.15-21.12,49.79-32.41,12.28-11,30.17-37.65,29.09-66.14-.7-18.73-12.88-37.07-25.76-56.48-6.31-9.51-12.84-19.34-17.91-29.23-12.68-24.76-14.42-40.16-16.44-58-.39-3.52-.8-7.15-1.31-11-1.7-12.75-.5-24.26,1.3-41.68,1.54-14.93,3.47-33.52,4.65-61.3C288.84,186.81,324.53,96.27,379.6,54l.6.8C325.37,96.88,289.82,187.08,287.14,250c-1.19,27.81-3.12,46.42-4.66,61.37-1.8,17.34-3,28.8-1.31,41.44.51,3.83.92,7.47,1.32,11,2,17.73,3.74,33.05,16.34,57.64,5,9.84,11.55,19.65,17.84,29.13,13,19.54,25.22,38,25.94,57,1.09,28.83-17,55.82-29.43,66.92C300.46,585.83,263.59,606.79,263.22,607Z"/><path class="cls-11" d="M342.78,451.17a4.7,4.7,0,0,1-.08-1.1c0-1.68,0-5.62-4.51-21.6-5.57-19.8-19.69-57.57-19.83-58l.93-.35c.14.38,14.28,38.19,19.86,58,4.53,16.12,4.54,20.15,4.54,21.87a3.48,3.48,0,0,0,.06.87Z"/><path class="cls-11" d="M284.85,286.49h-1c0-15.32,11.39-68.82,32.78-129.45,21-59.41,51.46-90.92,51.77-91.23s35.11-44.12,84.43-44.12c26,0,33.72,13.19,34,13.76l-.87.49c-.07-.14-7.77-13.25-33.17-13.25C404,22.69,369.49,66,369.15,66.47s-30.69,31.72-51.57,90.9C296.23,217.89,284.85,271.24,284.85,286.49Z"/><path class="cls-11" d="M335.36,604.19l-.26-1c37.44-10.28,37.79-28.49,38.09-44.55.18-9.52-10.56-50.94-20.94-91-10.74-41.43-21.85-84.26-21.84-95.19h1c0,10.8,11.09,53.57,21.81,94.94,10.88,42,21.16,81.61,21,91.27C373.81,578.53,370.71,594.48,335.36,604.19Z"/><path class="cls-11" d="M201.6,604l-.78-.63c.24-.29,23.82-29.52,46.73-45.76,26.21-18.56,39.2-36.54,40.88-56.59,2.14-25.48-5.82-127.5-5.9-128.53l1-.07c.08,1,8.05,103.12,5.9,128.69-1.71,20.36-14.83,38.57-41.29,57.32C225.32,574.61,201.83,603.73,201.6,604Z"/><path class="cls-11" d="M351.94,410.83c-9.22-9.78-16.18-45.26-23.55-82.82l-2.1-10.68c-7.88-39.76-8-91.57,9.58-117.64,12.44-18.49,50.23-77.57,50.61-78.17a199.13,199.13,0,0,1,47.89-38.75c10.92-6.4,23.36-9,31.69-6.55l-.28,1c-8.08-2.35-20.22.18-30.91,6.45a198.51,198.51,0,0,0-47.61,38.5c-.32.53-38.12,59.62-50.57,78.12-17.39,25.84-17.26,77.32-9.43,116.89q1,5.33,2.1,10.68c7,35.77,14.28,72.75,23.3,82.32Z"/><path class="cls-11" d="M412.27,618c-20.12-6.19-29.3-21-27.28-44,.15-1.64.31-3.37.49-5.19,1.35-14,3.2-33.06-1.78-48.69-2.69-8.47-16.18-38.69-30.46-70.69-16.15-36.18-32.85-73.6-38.67-89.84-11.06-30.83,8.95-128.26,9.16-129.24l1,.2c-.2,1-20.16,98.14-9.2,128.7,5.81,16.2,23.26,55.29,38.65,89.77,14.29,32,27.79,62.28,30.5,70.79,5,15.83,3.18,35.06,1.82,49.09-.18,1.82-.34,3.55-.49,5.18-2,22.46,7,36.9,26.58,42.93Z"/><path class="cls-11" d="M253,554.88l-.58-.82c14.72-10.56,35.24-40.69,27.68-76.54-10.62-50.37-6.12-78.72-3.44-95.66a107.47,107.47,0,0,0,1.46-11.54c.1-2.36.28-4.73.46-7.25.39-5.25.83-11.21.83-19.77h1c0,8.6-.44,14.57-.83,19.85-.18,2.5-.35,4.87-.45,7.22A109.14,109.14,0,0,1,277.65,382c-2.67,16.87-7.15,45.11,3.44,95.29C288.75,513.63,267.93,544.16,253,554.88Z"/><path class="cls-11" d="M252.26,598.09l-.47-.88c.49-.26,49.08-26.34,69.44-50.07,12.28-14.31,0-36-12.93-59.05-2.62-4.64-5.33-9.44-7.79-14.14-14.26-27.17-15.1-60.57-15.1-60.9l1,0c0,.33.84,33.5,15,60.46,2.45,4.68,5.16,9.48,7.77,14.11C322.31,510.92,334.72,533,322,547.8,301.5,571.66,252.75,597.83,252.26,598.09Z"/><path class="cls-11" d="M234,595.72l-.2-1c35.58-7.6,47.95-22.57,57-33.5l.91-1.1c9.33-11.24,7.82-21.47,2.69-33.36-5.37-12.43-5.56-40.78-5.57-42h1c0,.29.19,29.34,5.48,41.58s6.82,22.77-2.84,34.4l-.91,1.1C282.38,572.92,269.88,588.05,234,595.72Z"/><path class="cls-11" d="M198.75,608.09l-.47-.88c4.64-2.49,9.56-6.35,14.78-10.42,12.21-9.54,26.05-20.35,45-22.31,26.61-2.74,36.48-18.3,36.58-18.46l.84.52c-.1.16-10.19,16.14-37.32,18.94-18.66,1.92-32.37,12.64-44.48,22.1C208.42,601.68,203.46,605.56,198.75,608.09Z"/><path class="cls-11" d="M722.26,601c-.43-.09-43.09-9.06-63.73-29.18-12.49-12.16-11.48-20.66-9-41.19a382.34,382.34,0,0,0,3.1-61.18c-1.91-70.73,19.58-127,19.8-127.53l.93.36c-.22.56-21.64,56.62-19.74,127.15a383,383,0,0,1-3.1,61.32c-2.4,20.18-3.4,28.53,8.74,40.36C679.65,591,722,599.88,722.46,600Z"/><path class="cls-11" d="M623.31,600.76a293.64,293.64,0,0,1-26.92-45.55c-15.29-32.91-17-58.29-5.08-73.41,33.9-42.81,41.89-109.7,42-110.37l1,.12c-.08.67-8.11,67.84-42.18,110.87-28.39,35.86,31.41,116.92,32,117.74Z"/><path class="cls-11" d="M652.6,235.45c-.05-.18-5-18.24-17.07-45.71-13.08-29.87-44.74-81.07-71.16-96.1-27.15-15.45-67-17.28-67.42-17.3l.05-1c.4,0,40.5,1.86,67.86,17.43,26.62,15.14,58.45,66.58,71.58,96.57,12.07,27.54,17.07,45.66,17.11,45.84Z"/><path class="cls-11" d="M679.75,253.27c-.14-.49-13.76-48.54-21-80.29-1.73-7.57-11.77-47-39.32-80.91-30.16-37.1-69.53-54-117-50.18l-.08-1c47.82-3.82,87.46,13.18,117.84,50.54,27.68,34,37.78,73.72,39.52,81.33,7.27,31.72,20.89,79.75,21,80.23Z"/><path class="cls-11" d="M747.84,600.86c-.31-.24-30.93-23.41-42.76-34.82-27.69-26.68-37.65-54-43.75-77.15-6.43-24.47-1.34-76.47,7.18-100.29,8.09-22.63,19.52-92,19.63-92.7l1,.16c-.11.7-11.55,70.17-19.67,92.87-8.48,23.7-13.55,75.4-7.16,99.7,6.07,23.05,16,50.19,43.48,76.69,11.79,11.37,42.36,34.5,42.67,34.74Z"/><path class="cls-11" d="M726,583.71c-.15-.54-14.18-54-28.7-78.1-34-56.52-19-156.12-18.83-157.12l1,.16c-.16,1-15.15,100.24,18.7,156.44,14.59,24.23,28.67,77.83,28.81,78.37Z"/><path class="cls-11" d="M639.9,607c-16.27-7.43-28-23.84-32.91-46.22-6.63-30,.14-63.32,16.85-83,28.81-33.94,34.48-119.31,34.54-120.17l1,.07c-.06.86-5.75,86.56-34.77,120.75-16.52,19.46-23.21,52.47-16.64,82.14,4.88,22.06,16.37,38.23,32.35,45.53Z"/><path class="cls-11" d="M665.65,605.52C642.1,598.87,627.76,588.93,623,576c-5.63-15.37,3.21-31.35,10.34-42,21.65-32.41,19.25-64.19,19.23-64.51l1-.08c0,.32,2.46,32.43-19.4,65.15-7,10.5-15.7,26.18-10.23,41.12,4.63,12.64,18.75,22.38,42,28.94Z"/><path class="cls-11" d="M743.63,558.42h-1c0-66.29-24.78-114-39.55-136.51-25.9-39.49-14.74-127.11-14.63-128l1,.13c-.11.87-11.22,88.13,14.47,127.31C718.75,444,743.63,491.87,743.63,558.42Z"/><path class="cls-11" d="M700.93,605.54c-37.89-2.27-61.72-16.36-62-16.5-5-3.11-15-11.28-25.84-31.14-8.34-15.29-6.83-36.21-5.5-54.66.28-3.89.54-7.57.71-11.09,1-20.21,21.51-73.43,21.72-74,6.74-14.3,19.7-53.78,19.83-54.17l1,.31c-.13.4-13.12,39.93-19.87,54.26-.19.5-20.69,53.57-21.64,73.61-.17,3.55-.43,7.23-.71,11.12-1.32,18.32-2.81,39.08,5.38,54.11,10.72,19.66,20.57,27.71,25.49,30.76.23.14,23.86,14.1,61.49,16.36Z"/><path class="cls-11" d="M697.17,287.17c-1.83-17.82-13.78-57.06-23.39-88.59-5.83-19.14-10.43-34.26-11.31-39.77-2.38-15-22.82-74.86-61-97.07C563,39.39,511.61,41.41,511.1,41.43l-.05-1c.52,0,52.21-2,90.89,20.44,41.31,24,59.82,87.16,61.51,97.78.87,5.44,5.69,21.29,11.28,39.64,9.62,31.57,21.59,70.86,23.43,88.77Z"/><path class="cls-11" d="M560.78,593.31l-.13-1c13.84-1.83,23.42-7.23,28.47-16.05,9.27-16.17.14-38.64,0-38.86l.92-.39c.09.23,9.4,23.16-.1,39.75C584.77,585.88,575,591.44,560.78,593.31Z"/><path class="cls-11" d="M405.7,615.65C388,611.25,378,590.57,377.62,586c-1.49-16.82-6.7-43.41-7.18-44.91l.95-.31c.48,1.52,5.72,28.25,7.22,45.13.38,4.29,10.43,24.58,27.33,28.79Z"/><path class="cls-11" d="M729.6,604c-4.16-.55-7.17-2.7-12.15-6.26A164.89,164.89,0,0,0,695.19,584c-15.09-7.79-15.5-19.17-15.89-30.17-.19-5.52-.4-11.22-2.43-16.46-6.1-15.7-12.52-38-12.59-38.21l1-.27c.06.22,6.47,22.46,12.55,38.11,2.1,5.41,2.31,11.19,2.5,16.79.4,11.21.78,21.8,15.35,29.32A165,165,0,0,1,718,596.94c4.86,3.47,7.79,5.56,11.71,6.08Z"/><path class="cls-11" d="M666.37,246.34c-.22-1.46-.45-3-.7-4.72-5-34.13-15.52-105.17-63.93-153.87l.7-.7C651.09,136,661.6,207.23,666.65,241.48c.25,1.67.48,3.25.7,4.71Z"/><path class="cls-11" d="M660.5,253.15l-1,0c2.18-55.1-25.27-120.34-38.12-141.64l.85-.52C635.13,132.33,662.68,197.83,660.5,253.15Z"/><path class="cls-11" d="M483.37,76.07c-3.28-5.64,9.64-59.24,10.19-61.51l1,.23c-3.73,15.42-12.86,56.38-10.3,60.78Z"/><path class="cls-11" d="M211.51,592.46l-.87-.47a51.47,51.47,0,0,0,2.72-7.27c3.87-11.78,10.33-31.49,33.1-51.51,19.16-16.85,17.55-27.11,14.63-45.74a195.11,195.11,0,0,1-3-36.22c.84-45.91,20-100.57,20.16-101.12l.94.34c-.2.54-19.27,55-20.11,100.8a193.48,193.48,0,0,0,3,36.05c3,19,4.6,29.43-15,46.64-22.56,19.84-29,39.39-32.8,51.07A50.71,50.71,0,0,1,211.51,592.46Z"/><path class="cls-9" d="M436.45,261.33c-.4-1.33-1.26-5.28-3.42-8s-7.15-7.67-11.12-9.46a89.34,89.34,0,0,0-24.56-3.76c-8.47,0-15.61,3.16-22.94,6.28-6,2.56-9.18,6.38-12.28,11.49-.8,1.32-.69,1.39-1.44,2.47a3.5,3.5,0,0,0-.82-.56c.7-1.11.63-1,1.39-2.39a27.19,27.19,0,0,1,12.71-12c6.88-3.27,15.91-6.12,23.09-6.39s20.1,2.59,23.94,3.56.49.11,1.14.36c4.73,1.84,9.37,7,11.67,9.77s3.66,7.19,3.62,8.59S436.85,262.65,436.45,261.33Z"/><path class="cls-9" d="M363.82,250.47c-1.94,1.85.06-1-1.3,0,3.48-3.81,2.59-5.53,7.36-9.32s17.1-6.73,24-7.91c10.37.38,19.77,2.16,28.5,7.71-.17.3-.34.6-.49.9-8.17-5.76-18-7.28-27.93-7.6-6.4.86-19.07,4.37-23.3,7.55S365.76,248.62,363.82,250.47Z"/><path class="cls-9" d="M400.06,264.92c-8.58-.06-13.63-5.42-14.71-14.77,0-.3.53-9.22,3.45-9.68.19,0,.39.26.6.79-2.64.32-3.07,8.79-3.06,8.87,1,8.71,5.7,13.77,13.72,13.81s12.65-5.09,13.71-13.61c0-.16.16-7.59-1.55-8.43.3-.41.58-.61.83-.55,1.86,1,1.74,8.77,1.71,9.05C413.62,259.49,408.64,265,400.06,264.92Z"/><path class="cls-9" d="M400.62,270c-8,.23-20-1.94-26-4.27s-6.69-3.11-9.92-7.25c1.39,1-.43-1.78,1.38.22s3.61,4.42,9,6.2c5.61,1.85,17.93,4.51,25.61,4.13,5.5-.28,14.17-2.14,18.79-3.25a44.29,44.29,0,0,1,5.11-1.06c2.94-.2,3.52,0,5.89-.1a3.42,3.42,0,0,0,0,1c-2.28.08-3.07-.1-5.87.09-.62,0-2.71.55-4.79,1C414.52,267.85,406.44,269.8,400.62,270Z"/><path class="cls-9" d="M406.29,251.21a5.73,5.73,0,0,1-6.06,5.67,5.8,5.8,0,0,1-6.06-5.71,5.74,5.74,0,0,1,6.06-5.67A5.81,5.81,0,0,1,406.29,251.21Z"/><path class="cls-6" d="M399.55,247c0,1.79-1.93,2.56-3.48,2.56s-3.5-.78-3.51-2.57,1.94-2.57,3.49-2.56S399.54,245.17,399.55,247Z"/><path class="cls-9" d="M396.07,249.89c-1.77,0-3.87-.94-3.87-2.94s2.08-2.94,3.85-2.93,3.86.94,3.86,2.95S397.83,249.89,396.07,249.89Zm0-5.13c-1.34,0-3.12.62-3.12,2.19s1.8,2.2,3.13,2.2,3.13-.62,3.12-2.19S397.39,244.76,396.05,244.76Z"/><path class="cls-9" d="M432.93,262.06a8.55,8.55,0,0,0-.93-.37c.23-1,.72-1.27.71-2.41a15.54,15.54,0,0,0-.72-3.55c-.39-1.62-2.86-6.13-3.46-7.36s.78-.18.67-.74a35,35,0,0,1,3.71,7.81,12.87,12.87,0,0,1,.79,3.82C433.76,260.59,433.17,261,432.93,262.06Z"/><path class="cls-9" d="M364.4,259.46c-.36,0-.66,0-1,0a5.78,5.78,0,0,1,.73-2.57c.61-.88-1.05,1.26.42-.54s6.6-8,8.76-10.58c.39,0,.53.4.83.56a132.77,132.77,0,0,0-9.2,11.12A4.89,4.89,0,0,0,364.4,259.46Z"/><path class="cls-9" d="M390.29,269.31A57.29,57.29,0,0,1,380,266.38c-.79-.28-.92-.3-1.37-.47a34.53,34.53,0,0,1-7.37-3.68c-2.33-1.58-4.11-4-6-6.14.69.36-.17-1.37,1-.35s3.59,4.44,5.61,5.68a38.34,38.34,0,0,0,7,3.48c.75.27.47.15,1.61.56a56.8,56.8,0,0,0,10,2.85A8.26,8.26,0,0,1,390.29,269.31Z"/><path class="cls-9" d="M522.09,261.37c-.31,1.25-.84,1.32-1,0s1.76-6.07,3.6-8.58,8.74-7.9,11.2-9.28c8.61-4.83,18.24-4.62,26.9-4.75,7-.12,11.13,2.25,17.3,4.63,1.27.49,3.33,1.43,4.58,2a27.07,27.07,0,0,1,12.75,11.89c.77,1.36.69,1.29,1.4,2.38a3.88,3.88,0,0,0-.82.57c-.71-1.08-.69-1.13-1.44-2.46a25.94,25.94,0,0,0-12.28-11.46c-1.25-.58-3.32-1.53-4.58-2-6-2.31-10.09-4.67-16.9-4.54-8.61.16-18-.15-26.58,4.71-2.12,1.2-8.94,6.53-10.72,8.93S522.41,260.12,522.09,261.37Z"/><path class="cls-9" d="M594.86,250.37c-2-1.84-2.62-5.5-6.86-8.67s-17-6.63-23.39-7.49c-8.8.16-18.33,1.06-25.73,6-.16-.3-.33-.6-.5-.9,7.65-5,17.31-5.94,26.31-6.16,6.89,1.19,19.27,4.09,24.07,7.86s3.9,5.49,7.39,9.29C594.79,249.4,596.8,252.22,594.86,250.37Z"/><path class="cls-9" d="M558.69,265c-8.58.1-13.56-5.4-14.72-14.52,0-.18-.23-8.24,1.62-9.16.25-.06.53.14.83.56-1.71.79-1.48,8.45-1.47,8.51,1.08,8.54,5.7,13.71,13.74,13.63s12.62-5.16,13.64-13.84c0-.14-.43-8.58-3.08-8.93.21-.52.41-.8.59-.79,2.94.5,3.52,9.38,3.48,9.73C572.24,259.51,567.28,264.9,558.69,265Z"/><path class="cls-9" d="M558.16,270.06c-5.82-.13-14-2.07-19.24-3.22-2.08-.45-4.21-1-4.84-1-2.83-.2-3.62,0-5.92-.14a3.05,3.05,0,0,0,0-1c2.39.12,3-.07,6,.13a50.93,50.93,0,0,1,5.16,1.07c4.65,1.09,13.39,3,18.89,3.19,7.69.33,20-2.4,25.56-4.27,5.35-1.79,7.14-4.24,8.94-6.24s0,.8,1.39-.23c-3.22,4.16-3.9,4.95-9.9,7.3S566.17,270.25,558.16,270.06Z"/><path class="cls-9" d="M552.41,251.27a6.07,6.07,0,1,0,6-5.75A5.77,5.77,0,0,0,552.41,251.27Z"/><path class="cls-6" d="M550.81,247c0,1.8,1.94,2.58,3.51,2.58s3.48-.81,3.47-2.6-1.94-2.58-3.5-2.58S550.8,245.22,550.81,247Z"/><path class="cls-9" d="M554.32,250c-1.78,0-3.85-.93-3.87-2.95s2-3,3.83-3,3.87.94,3.88,2.95S556.1,250,554.32,250Zm0-5.18c-1.35,0-3.12.64-3.11,2.23s1.79,2.21,3.14,2.2,3.12-.65,3.11-2.22S555.64,244.79,554.29,244.79Z"/><path class="cls-9" d="M525.65,262.14c-.24-1.12-.83-1.5-.76-2.83a13.11,13.11,0,0,1,.82-3.85,32.84,32.84,0,0,1,3.87-7.45c-.11.55,1.27-.45.67.75s-3.21,5.41-3.61,7a15.31,15.31,0,0,0-.76,3.57c0,1.15.47,1.47.7,2.43A8.55,8.55,0,0,0,525.65,262.14Z"/><path class="cls-9" d="M595.3,259.35a3.61,3.61,0,0,1-1,0,4.74,4.74,0,0,0-.53-2,136.39,136.39,0,0,0-9.24-11.09l.76-.64c3.26,3.7,6.35,7.1,9.37,11.27A6.72,6.72,0,0,1,595.3,259.35Z"/><path class="cls-9" d="M568.46,269.34a7.9,7.9,0,0,1-.1-1,56.38,56.38,0,0,0,10-2.91c1.14-.41.84-.28,1.62-.56a39.26,39.26,0,0,0,6.94-3.51c2-1.25,4.43-4.67,5.59-5.71s.31.71,1,.35c-1.93,2.19-3.7,4.57-6,6.16a34.14,34.14,0,0,1-7.36,3.72c-.44.16-.58.19-1.37.48A57.87,57.87,0,0,1,568.46,269.34Z"/><polygon class="cls-12" points="462.25 220.63 454.55 206.86 455.44 206.49 463.14 220.26 462.25 220.63"/><polygon class="cls-12" points="453.13 218.46 447.32 209.54 448.18 209.12 453.99 218.04 453.13 218.46"/><path class="cls-12" d="M454.48,214c-.06-.11-6.16-11.08-11.74-11.78l.14-.84c6.1.76,12.23,11.79,12.49,12.26Z"/><path class="cls-12" d="M443.33,211.41c-.08-.1-7.42-10-12.53-10.67l.14-.84c5.56.7,12.91,10.63,13.22,11Z"/><path class="cls-12" d="M428.26,206.77c-.12-.08-12.38-7.88-16.47-8.39l.14-.84c4.34.54,16.41,8.22,16.92,8.55Z"/><path class="cls-12" d="M410.76,204.74a23.25,23.25,0,0,0-10.65-5.4l.26-.82a23.8,23.8,0,0,1,11.14,5.68Z"/><path class="cls-12" d="M392.18,202.06c0-.05-1.79-4.85-12.32-6.4l.17-.84c11.19,1.65,13,6.78,13.09,7Z"/><path class="cls-12" d="M388.11,211.16c-.13-.12-13.58-11.89-19-12.09l0-.85c5.85.22,19.14,11.85,19.7,12.34Z"/><path class="cls-12" d="M458.4,220.68c-.07-.08-7.65-8-12.6-10.24l.46-.75c5.12,2.34,12.59,10.12,12.9,10.45Z"/><path class="cls-12" d="M452.15,223.14c-.06-.07-6.56-6.54-12.46-9.07l.43-.76c6.09,2.61,12.51,9,12.78,9.27Z"/><path class="cls-12" d="M436.8,219.43c-.05-.05-4.93-5.47-10.07-8l.49-.73c5.31,2.65,10.15,8,10.35,8.25Z"/><path class="cls-12" d="M437.09,211.52c-.14-.05-13.4-4.39-19.13-7l.46-.75c5.67,2.61,18.88,6.93,19,7Z"/><path class="cls-12" d="M415.62,215.23c-.14-.09-13.87-9.46-16.81-10.91l.49-.74c3,1.49,16.36,10.6,16.92,11Z"/><path class="cls-12" d="M345.31,204.7l-.51-.72c6.45-3.35,15.53-6.85,15.62-6.89l.4.78C360.73,197.9,351.71,201.38,345.31,204.7Z"/><path class="cls-12" d="M375.23,213.18c-.17-.06-16.53-5.79-23-5.85h-.5l0-.85c6.37-.27,23.22,5.65,23.94,5.9Z"/><path class="cls-12" d="M339.51,207.7l-.26-.82c.86-.2,1.83-.45,2.89-.73a70.47,70.47,0,0,1,15.07-2.61l0,.85A68.86,68.86,0,0,0,342.43,207C341.35,207.25,340.38,207.5,339.51,207.7Z"/><path class="cls-12" d="M352.6,216.09c-4.79-1.32-12.86-3.29-14.14-2.94l-.3-.81c2-.54,12.62,2.36,14.73,2.95Z"/><path class="cls-12" d="M366.77,216.11c-5.61-2.14-16.6-6.27-18.06-6.53l.2-.83c1.93.34,17.59,6.33,18.25,6.59Z"/><path class="cls-12" d="M402.08,215c-.13-.1-12.64-10.09-16.5-11.55l.39-.77c4,1.51,16.25,11.29,16.77,11.7Z"/><path class="cls-12" d="M383.05,200.23c-.09-.06-9.51-5.67-13.9-5.49l0-.85c4.73-.19,14.11,5.41,14.5,5.64Z"/><path class="cls-12" d="M401.38,209.72c-.12-.07-12.92-7.33-14.28-8.14l.55-.7c1.36.8,14.14,8.06,14.27,8.14Z"/><path class="cls-12" d="M434,204.65c-.1-.05-10.2-5-13.86-5.33l.11-.84c3.86.38,13.81,5.22,14.23,5.43Z"/><path class="cls-12" d="M417.75,207.76c-.07-.1-7.56-9.69-12-10.14l.11-.84c4.92.49,12.42,10.1,12.74,10.51Z"/><path class="cls-12" d="M399.37,202.34c-.16-.1-.48-.36-1-.76-1.72-1.38-6.28-5.06-8.43-5.21l.08-.84c2.48.17,6.9,3.73,9,5.43.44.36.76.62.89.7Z"/><path class="cls-12" d="M388.08,214.66c-.1-.09-9.65-8.48-14.93-9.15l.14-.84c5.61.71,15.09,9,15.49,9.39Z"/><polygon class="cls-12" points="333.06 218.63 332.95 217.78 343.74 216.81 343.84 217.65 333.06 218.63"/><polygon class="cls-12" points="347.56 211.68 336.81 210.01 336.98 209.18 347.73 210.84 347.56 211.68"/><path class="cls-12" d="M425.16,216.54a14.26,14.26,0,0,0-7.22-7.15l.41-.77a14.94,14.94,0,0,1,7.74,7.65Z"/><path class="cls-12" d="M445.86,208l-.07-.15a12.58,12.58,0,0,0-8.56-7l.25-.82a13.51,13.51,0,0,1,9.22,7.52l.06.13Z"/><path class="cls-12" d="M458.46,223.48c-.31-.21-7.74-5.06-9.08-6.6l.78-.51c1.27,1.45,8.82,6.38,8.89,6.43Z"/><path class="cls-12" d="M440.66,216.84c-.33-.29-8.24-5.71-12.25-6.52l.23-.83c4.34.88,12.56,6.58,12.76,6.79l-.76.53.38-.26Z"/><path class="cls-12" d="M395,214.81l-.13-.17c-2.14-2.82-4-5.25-7.86-7.58l.56-.7c4,2.42,5.92,4.92,8.12,7.82l.13.17Z"/><path class="cls-12" d="M384.36,205c-.08-.06-8.52-6.28-12.3-7.58l.36-.79c3.93,1.35,12.23,7.47,12.58,7.73Z"/><path class="cls-12" d="M373.66,203.09l-.88-.38c-.06.11,0,.17,0,.17s-1.17-1.39-16.28-.25l-.08-.85c10.45-.78,16.23-.57,17.17.63A.59.59,0,0,1,373.66,203.09Z"/><path class="cls-12" d="M381.76,213.52c-.11-.06-10.83-5.49-19.87-6.63l.14-.84c9.23,1.16,20.12,6.68,20.22,6.74Z"/><path class="cls-12" d="M369.72,213.44c-.07,0-6.47-2.12-11.92-3.24l.22-.82c5.52,1.13,12,3.24,12.05,3.26Z"/><path class="cls-12" d="M359.45,216a57.74,57.74,0,0,0-11.89-3.2l.15-.84a59.14,59.14,0,0,1,12.16,3.27Z"/><rect class="cls-12" x="336.73" y="212.29" width="0.85" height="5.43" transform="translate(119.03 550.15) rotate(-89.47)"/><path class="cls-12" d="M410.79,215.22a85,85,0,0,0-9.33-3.84l.35-.8a91,91,0,0,1,9.47,3.9Z"/><path class="cls-12" d="M412.42,210c-.06,0-5.59-5.33-9.18-6.46l.34-.8c3.81,1.2,9.33,6.47,9.57,6.69Z"/><path class="cls-12" d="M445.1,214.6c-.08-.06-8.23-6-12.42-8l.48-.74c4.27,2,12.24,7.87,12.58,8.12Z"/><path class="cls-12" d="M372.32,207.44a30.77,30.77,0,0,0-12.6-3.76l.1-.84a31.2,31.2,0,0,1,13.08,3.92Z"/><path class="cls-12" d="M368.23,200.16c-.07,0-7.18-1-10.07-.11l-.32-.8c3.12-.92,10.24,0,10.54.07Z"/><path class="cls-12" d="M369.93,197.45a56,56,0,0,0-5.89-.95v-.84a59,59,0,0,1,6.1,1Z"/><path class="cls-12" d="M353.56,208.81a36.27,36.27,0,0,0-12.27-.76l-.15-.84a36.36,36.36,0,0,1,12.7.79Z"/><path class="cls-12" d="M428.32,215.88c-.05-.06-4.45-5.68-7.64-8l.63-.64c3.3,2.4,7.64,7.94,7.82,8.17Z"/><path class="cls-12" d="M420,216.05c0-.08-3.83-8-7.9-9.65l.41-.77c4.42,1.77,8.24,9.76,8.4,10.1Z"/><polygon class="cls-12" points="497.52 220.76 496.65 220.4 504.15 206.62 505.02 206.99 497.52 220.76"/><polygon class="cls-12" points="506.42 218.58 505.58 218.17 511.25 209.24 512.09 209.66 506.42 218.58"/><path class="cls-12" d="M505.1,214.14l-.87-.36c.25-.47,6.22-11.51,12.18-12.28l.14.84C511.09,203.05,505.15,214,505.1,214.14Z"/><path class="cls-12" d="M516,211.52l-.81-.45c.3-.42,7.47-10.37,12.89-11.07l.14.84C523.22,201.49,516.06,211.42,516,211.52Z"/><path class="cls-12" d="M530.7,206.87l-.57-.69c.5-.32,12.28-8,16.52-8.57l.13.84C542.78,199,530.82,206.79,530.7,206.87Z"/><path class="cls-12" d="M547.8,204.81l-.73-.54a23.06,23.06,0,0,1,10.87-5.69l.25.82A22.61,22.61,0,0,0,547.8,204.81Z"/><path class="cls-12" d="M566,202.11l-.93-.24c.07-.22,1.86-5.35,12.79-7l.16.84C567.68,197.26,566,202.06,566,202.11Z"/><path class="cls-12" d="M569.93,211.2l-.68-.59c.55-.5,13.52-12.14,19.23-12.37l0,.85C583.18,199.3,570.07,211.08,569.93,211.2Z"/><path class="cls-12" d="M501.28,220.81l-.74-.54c.3-.33,7.58-8.11,12.59-10.46l.45.75C508.74,212.83,501.35,220.73,501.28,220.81Z"/><path class="cls-12" d="M507.39,223.26l-.73-.55c.27-.27,6.53-6.67,12.47-9.29l.42.76C513.79,216.72,507.45,223.2,507.39,223.26Z"/><path class="cls-12" d="M522.39,219.54l-.76-.52c.19-.23,4.91-5.6,10.1-8.27l.48.74C527.19,214.06,522.43,219.48,522.39,219.54Z"/><path class="cls-12" d="M522.09,211.62l-.34-.79c.13,0,13-4.38,18.56-7l.45.75C535.17,207.23,522.22,211.58,522.09,211.62Z"/><path class="cls-12" d="M543.07,215.31l-.59-.67c.55-.38,13.59-9.51,16.51-11l.48.74C556.61,205.84,543.21,215.22,543.07,215.31Z"/><path class="cls-12" d="M611.74,204.7c-6.25-3.32-15.07-6.79-15.16-6.82l.39-.78c.09,0,9,3.53,15.27,6.87Z"/><path class="cls-12" d="M582.53,213.21l-.36-.79c.69-.25,17.18-6.18,23.37-5.93l0,.85C599.55,207.08,582.7,213.15,582.53,213.21Z"/><path class="cls-12" d="M617.41,207.68c-.84-.2-1.8-.45-2.85-.72a65.39,65.39,0,0,0-14.48-2.56l0-.85a67,67,0,0,1,14.72,2.59c1,.28,2,.53,2.82.72Z"/><path class="cls-12" d="M604.67,216.09l-.34-.8c.39-.13,9.71-3.22,16.41-2.47l-.13.85C614.16,212.94,604.76,216.06,604.67,216.09Z"/><path class="cls-12" d="M590.8,216.13l-.39-.77c.65-.26,15.94-6.27,17.82-6.62l.2.83C607,209.84,596.27,214,590.8,216.13Z"/><path class="cls-12" d="M556.3,215l-.65-.62c.5-.42,12.44-10.22,16.36-11.73l.39.78C568.63,204.9,556.42,214.92,556.3,215Z"/><path class="cls-12" d="M574.86,200.27l-.55-.7c.39-.23,9.53-5.84,14.17-5.66l-.05.85C584.13,194.59,575,200.21,574.86,200.27Z"/><path class="cls-12" d="M557,209.79l-.53-.71c.13-.08,12.6-7.35,13.93-8.15l.54.7C569.58,202.43,557.09,209.71,557,209.79Z"/><path class="cls-12" d="M525.05,204.75l-.47-.74c.41-.2,10.13-5.06,13.9-5.44l.11.84C535,199.78,525.15,204.7,525.05,204.75Z"/><path class="cls-12" d="M541,207.84l-.8-.47c.31-.41,7.63-10,12.43-10.52l.11.84C548.34,198.14,541.05,207.74,541,207.84Z"/><path class="cls-12" d="M558.93,202.4l-.58-.68c.13-.08.43-.34.86-.69,2.07-1.72,6.38-5.28,8.81-5.46l.07.85c-2.09.15-6.55,3.84-8.22,5.23Z"/><path class="cls-12" d="M570,214.67l-.74-.53c.34-.38,8.6-9.3,18.35-10l.07.85C578.35,205.66,570.09,214.58,570,214.67Z"/><polygon class="cls-12" points="623.71 219.35 613.16 217.64 613.34 216.8 623.88 218.51 623.71 219.35"/><path class="cls-12" d="M609.59,211.67l-.24-.83c.36-.08,8.95-2,14.41-1.44l-.12.84C618.37,209.68,609.68,211.65,609.59,211.67Z"/><path class="cls-12" d="M533.75,216.64l-.91-.28a14.82,14.82,0,0,1,7.55-7.66l.4.77A14.08,14.08,0,0,0,533.75,216.64Z"/><path class="cls-12" d="M513.51,208.09l-.88-.35.06-.13a13.28,13.28,0,0,1,9-7.53l.25.82a12.34,12.34,0,0,0-8.35,7Z"/><path class="cls-12" d="M501.23,223.61l-.58-.68c.07-.05,7.44-5,8.67-6.43l.77.51C508.78,218.55,501.53,223.4,501.23,223.61Z"/><path class="cls-12" d="M518.6,217l-.72-.56c.2-.21,8.23-5.92,12.46-6.8l.22.82C526.65,211.23,518.93,216.66,518.6,217Z"/><path class="cls-12" d="M563.19,214.87l-.81-.47.13-.17c2.14-2.9,4-5.4,7.92-7.83l.55.7c-3.78,2.34-5.58,4.77-7.67,7.59Z"/><path class="cls-12" d="M573.59,205.07l-.63-.64c.35-.26,8.44-6.38,12.28-7.74l.36.79C581.9,198.78,573.67,205,573.59,205.07Z"/><path class="cls-12" d="M584,203.12a.61.61,0,0,1,.09-.68c.91-1.21,6.56-1.42,16.78-.65l-.09.84c-14.75-1.11-15.86.22-15.9.28s0-.06,0-.18Z"/><path class="cls-12" d="M576.15,213.55l-.49-.73c.11,0,10.73-5.58,19.75-6.76l.14.85C586.72,208.05,576.25,213.5,576.15,213.55Z"/><path class="cls-12" d="M587.91,213.46l-.34-.79a118.67,118.67,0,0,1,11.76-3.28l.22.82C594.22,211.34,588,213.44,587.91,213.46Z"/><path class="cls-12" d="M598,216.05l-.41-.77A56.68,56.68,0,0,1,609.41,212l.15.84A55.26,55.26,0,0,0,598,216.05Z"/><path class="cls-12" d="M547.78,215.29l-.47-.73a80.85,80.85,0,0,1,9.24-3.91l.34.79A84.23,84.23,0,0,0,547.78,215.29Z"/><path class="cls-12" d="M546.19,210.12l-.71-.57c.22-.22,5.6-5.5,9.33-6.7l.33.79C551.64,204.78,546.24,210.06,546.19,210.12Z"/><path class="cls-12" d="M514.27,214.72l-.63-.65c.33-.24,8.11-6.09,12.28-8.13l.46.74C522.3,208.69,514.34,214.66,514.27,214.72Z"/><path class="cls-12" d="M585.36,207.47l-.57-.69a30.1,30.1,0,0,1,12.77-3.93l.1.84A29.54,29.54,0,0,0,585.36,207.47Z"/><path class="cls-12" d="M589.35,200.18l-.15-.84c.29,0,7.25-1,10.29-.09l-.31.81C596.36,199.21,589.42,200.17,589.35,200.18Z"/><path class="cls-12" d="M587.68,197.47l-.22-.82a58.29,58.29,0,0,1,6-1v.85A53.27,53.27,0,0,0,587.68,197.47Z"/><path class="cls-12" d="M603.69,208.81l-.28-.81a34.91,34.91,0,0,1,12.41-.8l-.14.84A34.8,34.8,0,0,0,603.69,208.81Z"/><path class="cls-12" d="M530.66,216l-.79-.47c.18-.24,4.41-5.78,7.62-8.19l.62.65C535,210.3,530.71,215.91,530.66,216Z"/><path class="cls-12" d="M538.77,216.13l-.89-.32c.15-.34,3.87-8.33,8.19-10.1l.4.77C542.5,208.11,538.8,216.05,538.77,216.13Z"/><path class="cls-12" d="M631,216.92a42.69,42.69,0,0,0-9.92-4.7l.32-.8a43.2,43.2,0,0,1,10.2,4.84Z"/><path class="cls-12" d="M634.11,221.64c-3.2-2.11-14.87-6.21-15-6.26l.36-.78c.48.16,11.91,4.18,15.2,6.36Z"/><polygon class="cls-12" points="627.16 220.92 615.82 219.8 615.93 218.96 627.27 220.07 627.16 220.92"/><path class="cls-12" d="M607.06,218.21l-.43-.77c.22-.09,5.38-2.32,9.2-2.39v.85C612.25,216,607.11,218.18,607.06,218.21Z"/><polygon class="cls-12" points="479.25 485.49 474.71 476.7 475.6 476.24 480.14 485.03 479.25 485.49"/><polygon class="cls-12" points="469.35 488.86 465.88 483.32 466.73 482.78 470.19 488.32 469.35 488.86"/><polygon class="cls-12" points="476.99 492.61 474.69 486 475.63 485.67 477.93 492.28 476.99 492.61"/><polygon class="cls-12" points="471.29 504.8 465.87 494.89 466.74 494.41 472.16 504.32 471.29 504.8"/><polygon class="cls-12" points="477 505.64 474.69 499.86 475.62 499.49 477.92 505.27 477 505.64"/><polygon class="cls-12" points="461.77 498.63 460.81 498.38 464.16 485.71 465.12 485.97 461.77 498.63"/><rect class="cls-12" x="457.18" y="489.14" width="0.99" height="9.36"/><polygon class="cls-12" points="457.24 502.32 452.91 494.06 453.79 493.59 458.12 501.85 457.24 502.32"/><polygon class="cls-12" points="444.87 504.82 444.02 504.3 448.24 497.35 449.09 497.87 444.87 504.82"/><polygon class="cls-12" points="437.64 504.81 436.78 504.32 440.17 498.26 441.04 498.75 437.64 504.81"/><polygon class="cls-12" points="426.55 504.85 425.73 504.28 429.9 498.22 430.72 498.79 426.55 504.85"/><polygon class="cls-12" points="417.38 501.82 416.57 501.25 420.43 495.74 421.25 496.31 417.38 501.82"/><polygon class="cls-12" points="427.78 508.08 423.07 498.17 423.96 497.74 428.68 507.65 427.78 508.08"/><path class="cls-12" d="M438.41,513.42a51.87,51.87,0,0,0-3.77-6.38l.83-.55c1.16,1.77,3.86,6,3.93,6.84Z"/><polygon class="cls-12" points="447.32 516.43 440.21 507.07 441 506.46 448.11 515.82 447.32 516.43"/><rect class="cls-12" x="450.74" y="506.76" width="0.99" height="6.61"/><polygon class="cls-12" points="432.82 507.88 431.85 507.71 432.7 502.82 433.68 503 432.82 507.88"/><polygon class="cls-12" points="461.91 511.52 460.8 504.64 461.78 504.48 462.89 511.37 461.91 511.52"/><rect class="cls-12" x="468.88" y="494.98" width="7.73" height="1" transform="translate(-56.6 929.96) rotate(-85.72)"/><polygon class="cls-12" points="474.7 516.33 472.58 511.65 473.49 511.24 475.61 515.92 474.7 516.33"/><polygon class="cls-12" points="476.78 520.84 475.83 520.53 478.24 513.22 479.19 513.53 476.78 520.84"/><rect class="cls-12" x="469.27" y="513.79" width="0.99" height="7.57"/><polygon class="cls-12" points="459.01 521.52 457.21 516.29 458.15 515.96 459.95 521.19 459.01 521.52"/><polygon class="cls-12" points="452.44 519.02 451.61 518.47 457.26 509.79 458.09 510.34 452.44 519.02"/><polygon class="cls-12" points="454.41 507.55 451.59 500.67 452.5 500.29 455.33 507.17 454.41 507.55"/><polygon class="cls-12" points="467.38 510.52 466.94 509.62 471.5 507.35 471.94 508.24 467.38 510.52"/><polygon class="cls-12" points="459.83 508.36 459.14 507.65 464.29 502.55 464.99 503.26 459.83 508.36"/><polygon class="cls-12" points="465.42 518.87 464.16 513.91 465.12 513.66 466.38 518.62 465.42 518.87"/><polygon class="cls-12" points="479.21 511.54 478.23 511.36 479.21 505.99 480.19 506.17 479.21 511.54"/><rect class="cls-12" x="482.64" y="476.47" width="0.99" height="7.12" transform="translate(-29.83 32.01) rotate(-3.68)"/><polygon class="cls-12" points="491.37 488.67 490 480.03 490.98 479.87 492.35 488.51 491.37 488.67"/><polygon class="cls-12" points="484.64 492.61 483.7 492.28 486 485.67 486.94 486 484.64 492.61"/><polygon class="cls-12" points="486.94 503.06 486 502.75 489.43 492.29 490.37 492.6 486.94 503.06"/><polygon class="cls-12" points="499.32 492.98 496.53 486.02 497.45 485.65 500.24 492.6 499.32 492.98"/><polygon class="cls-12" points="494.93 498.69 494.01 498.32 496.53 491.99 497.45 492.36 494.93 498.69"/><rect class="cls-12" x="503.45" y="489.14" width="0.99" height="9.36"/><polygon class="cls-12" points="511.69 499.42 507.14 495.01 507.83 494.29 512.38 498.69 511.69 499.42"/><polygon class="cls-12" points="516.72 504.74 513.45 496.2 514.38 495.85 517.64 504.38 516.72 504.74"/><polygon class="cls-12" points="523.98 504.81 520.59 498.75 521.46 498.26 524.85 504.32 523.98 504.81"/><polygon class="cls-12" points="535.08 504.85 530.91 498.79 531.72 498.22 535.89 504.28 535.08 504.85"/><polygon class="cls-12" points="544.25 501.82 540.38 496.31 541.19 495.74 545.06 501.25 544.25 501.82"/><polygon class="cls-12" points="533.85 508.08 532.95 507.65 537.66 497.74 538.56 498.17 533.85 508.08"/><path class="cls-12" d="M523.21,513.43l-1-.1c.08-.86,2.78-5.07,3.93-6.84l.84.55A50.19,50.19,0,0,0,523.21,513.43Z"/><polygon class="cls-12" points="514.31 516.43 513.52 515.82 520.63 506.46 521.42 507.07 514.31 516.43"/><rect class="cls-12" x="506.98" y="505.99" width="9.92" height="0.99" transform="translate(-17.17 995.01) rotate(-87.41)"/><polygon class="cls-12" points="528.8 507.88 527.95 503 528.92 502.82 529.78 507.71 528.8 507.88"/><polygon class="cls-12" points="486.92 516.33 486.02 515.92 488.14 511.24 489.04 511.65 486.92 516.33"/><polygon class="cls-12" points="481.29 520.17 480.34 519.86 482.44 513.22 483.38 513.52 481.29 520.17"/><rect class="cls-12" x="491.36" y="513.79" width="0.99" height="7.57"/><polygon class="cls-12" points="502.61 521.52 501.67 521.19 503.48 515.96 504.42 516.29 502.61 521.52"/><polygon class="cls-12" points="509.19 519.02 503.53 510.34 504.37 509.79 510.02 518.47 509.19 519.02"/><polygon class="cls-12" points="508.24 509.02 504.3 502.34 505.15 501.83 509.1 508.5 508.24 509.02"/><polygon class="cls-12" points="494.04 510.32 491.16 505.3 492.02 504.8 494.9 509.82 494.04 510.32"/><polygon class="cls-12" points="501.79 508.36 496.64 503.26 497.34 502.55 502.49 507.65 501.79 508.36"/><polygon class="cls-12" points="496.21 518.87 495.25 518.62 496.51 513.66 497.47 513.91 496.21 518.87"/><polygon class="cls-12" points="485.75 512.36 482.05 503.48 482.97 503.09 486.67 511.97 485.75 512.36"/><polygon class="cls-12" points="474.34 484 470.98 480.07 471.74 479.42 475.09 483.34 474.34 484"/><polygon class="cls-12" points="480.17 493.97 479.22 493.67 482.19 484.12 483.14 484.42 480.17 493.97"/><polygon class="cls-12" points="482.25 501.81 478.3 495.75 479.13 495.2 483.08 501.26 482.25 501.81"/><polygon class="cls-12" points="488.15 481.46 485.56 476.71 486.43 476.24 489.02 480.99 488.15 481.46"/><polygon class="cls-12" points="494.2 504.88 493.44 504.24 498.57 498.18 499.33 498.83 494.2 504.88"/><polygon class="cls-12" points="489.9 513.46 488.89 507.35 489.87 507.18 490.88 513.29 489.9 513.46"/><polygon class="cls-12" points="490.36 503.05 489.41 502.77 491.38 495.89 492.33 496.16 490.36 503.05"/><rect class="cls-12" x="465.76" y="499.04" width="0.99" height="7.06" transform="translate(-49.42 50.85) rotate(-5.93)"/><polygon class="cls-12" points="447.05 509.02 446.07 508.84 446.8 504.96 447.77 505.14 447.05 509.02"/><rect class="cls-12" x="434.56" y="500.48" width="0.99" height="4.08"/><polygon class="cls-12" points="468.57 496.25 465.82 490.69 466.7 490.24 469.46 495.8 468.57 496.25"/><polygon class="cls-12" points="481.62 500.52 480.74 500.06 482.93 495.8 483.81 496.25 481.62 500.52"/><polygon class="cls-12" points="503.03 505.57 500.24 499.68 501.13 499.25 503.92 505.14 503.03 505.57"/><path class="cls-12" d="M507.18,507.49l-1-.26c.67-2.5,1.37-5.32,1.38-5.7h1C508.59,502.21,507.41,506.62,507.18,507.49Z"/><polygon class="cls-12" points="500.2 515.31 499.08 510.18 500.05 509.96 501.17 515.1 500.2 515.31"/><polygon class="cls-12" points="461.37 518.87 459.92 513.5 460.88 513.24 462.33 518.61 461.37 518.87"/><polygon class="cls-12" points="522.33 507.08 518.07 501.85 518.84 501.22 523.1 506.45 522.33 507.08"/><polygon class="cls-12" points="515.05 510.12 514.49 504.61 515.48 504.51 516.04 510.02 515.05 510.12"/><rect class="cls-12" x="442.62" y="501.08" width="0.99" height="7.68" transform="translate(-20.67 18.92) rotate(-2.39)"/><polygon class="cls-12" points="458.45 507.68 457.49 507.44 459 501.41 459.97 501.66 458.45 507.68"/><polygon class="cls-12" points="456.94 410.15 456.03 409.77 461.94 395.42 462.86 395.81 456.94 410.15"/><polygon class="cls-12" points="443.82 410.46 442.98 409.94 447.29 402.83 448.14 403.35 443.82 410.46"/><polygon class="cls-12" points="433.58 407.8 432.8 407.19 437.75 400.76 438.54 401.37 433.58 407.8"/><polygon class="cls-12" points="419.55 410.89 418.68 410.42 424.03 400.28 424.91 400.75 419.55 410.89"/><polygon class="cls-12" points="403.81 417.27 402.95 416.77 407.36 409.09 408.22 409.59 403.81 417.27"/><polygon class="cls-12" points="415.34 417.46 414.36 417.28 416.49 405.91 417.46 406.1 415.34 417.46"/><polygon class="cls-12" points="426.6 415.22 425.69 414.81 429.86 405.38 430.76 405.79 426.6 415.22"/><rect class="cls-12" x="455.95" y="400.49" width="0.99" height="7.21" transform="translate(-10.98 12.75) rotate(-1.58)"/><rect class="cls-12" x="466.78" y="401.35" width="0.99" height="8.98" transform="translate(-10.97 12.99) rotate(-1.57)"/><polygon class="cls-12" points="441.07 411.36 440.14 411.01 445.04 397.9 445.97 398.25 441.07 411.36"/><polygon class="cls-12" points="458.13 416.21 457.22 415.81 460.84 407.35 461.75 407.75 458.13 416.21"/><polygon class="cls-12" points="448.49 416.39 447.5 416.25 448.36 410.13 449.35 410.27 448.49 416.39"/><polygon class="cls-12" points="432.79 418.74 431.88 418.33 434.6 412.25 435.51 412.66 432.79 418.74"/><polygon class="cls-12" points="414.19 423.88 413.41 423.26 419.36 415.63 420.14 416.25 414.19 423.88"/><polygon class="cls-12" points="404.95 427.25 403.98 427.02 406.22 417.51 407.19 417.74 404.95 427.25"/><rect class="cls-12" x="411.94" y="413.18" width="0.99" height="10.44" transform="translate(-11.33 11.48) rotate(-1.57)"/><polygon class="cls-12" points="438.13 417.74 435.36 410.23 436.29 409.88 439.06 417.39 438.13 417.74"/><rect class="cls-12" x="423.31" y="410.44" width="0.99" height="7.59" transform="translate(-11.23 11.81) rotate(-1.58)"/><polygon class="cls-12" points="502.98 410.15 497.06 395.81 497.98 395.42 503.9 409.77 502.98 410.15"/><polygon class="cls-12" points="516.18 410.56 507.55 402.19 508.24 401.47 516.87 409.84 516.18 410.56"/><polygon class="cls-12" points="526.34 407.8 521.39 401.37 522.17 400.76 527.13 407.19 526.34 407.8"/><polygon class="cls-12" points="541.03 410.1 534.02 401.04 534.81 400.43 541.82 409.49 541.03 410.1"/><polygon class="cls-12" points="556.11 417.27 551.7 409.59 552.56 409.09 556.97 416.77 556.11 417.27"/><polygon class="cls-12" points="544.59 417.46 542.46 406.1 543.43 405.91 545.56 417.28 544.59 417.46"/><polygon class="cls-12" points="533.33 415.22 529.16 405.79 530.07 405.38 534.23 414.81 533.33 415.22"/><rect class="cls-12" x="499.87" y="403.6" width="7.21" height="0.99" transform="translate(85.71 896.28) rotate(-88.43)"/><polygon class="cls-12" points="489.16 407.76 488.26 400.55 489.25 400.43 490.14 407.64 489.16 407.76"/><polygon class="cls-12" points="492.01 413.31 491.02 413.21 492.27 401.3 493.26 401.41 492.01 413.31"/><polygon class="cls-12" points="518.85 411.36 513.95 398.25 514.88 397.9 519.78 411.01 518.85 411.36"/><polygon class="cls-12" points="501.79 416.21 498.17 407.75 499.08 407.35 502.7 415.81 501.79 416.21"/><polygon class="cls-12" points="511.43 416.39 510.58 410.27 511.56 410.13 512.42 416.25 511.43 416.39"/><polygon class="cls-12" points="527.13 418.74 524.41 412.66 525.32 412.25 528.04 418.33 527.13 418.74"/><polygon class="cls-12" points="545.73 423.88 539.78 416.25 540.56 415.63 546.51 423.26 545.73 423.88"/><polygon class="cls-12" points="554.97 427.25 552.73 417.74 553.7 417.51 555.94 427.02 554.97 427.25"/><rect class="cls-12" x="542.27" y="417.9" width="10.44" height="0.99" transform="translate(114.22 954.19) rotate(-88.43)"/><polygon class="cls-12" points="521.79 417.74 520.86 417.39 523.63 409.88 524.56 410.23 521.79 417.74"/><rect class="cls-12" x="532.32" y="413.74" width="7.59" height="0.99" transform="translate(107.32 938.78) rotate(-88.43)"/><path class="cls-12" d="M425.78,406.69l-.8-.59c.76-1,4.62-6.23,5.7-6.77l.44.9C430.54,400.52,428,403.74,425.78,406.69Z"/><polygon class="cls-12" points="426.56 418.87 425.82 418.21 431.17 412.13 431.91 412.79 426.56 418.87"/><rect class="cls-12" x="463.11" y="404.42" width="0.99" height="9.43"/><polygon class="cls-12" points="451.72 417.13 450.75 416.9 452.35 410.32 453.32 410.56 451.72 417.13"/><polygon class="cls-12" points="441.71 414.6 441.03 413.87 445.17 409.97 445.85 410.7 441.71 414.6"/><rect class="cls-12" x="495.7" y="403.09" width="0.99" height="7.36"/><rect class="cls-12" x="507.4" y="406.77" width="0.99" height="5.69"/><polygon class="cls-12" points="517.88 416.65 515.19 413.51 515.94 412.85 518.64 415.99 517.88 416.65"/><polygon class="cls-12" points="534.29 407.51 529.49 402.44 530.22 401.75 535.01 406.82 534.29 407.51"/><polygon class="cls-12" points="550.62 413.87 548.57 406.53 549.53 406.26 551.58 413.59 550.62 413.87"/><polygon class="cls-12" points="450.88 407.29 449.91 407.09 451.55 399.08 452.52 399.29 450.88 407.29"/><polygon class="cls-12" points="466.79 398.2 465.82 397.96 468.29 387.99 469.26 388.23 466.79 398.2"/><polygon class="cls-12" points="455.26 398.41 454.51 397.75 459.71 391.74 460.46 392.4 455.26 398.41"/><polygon class="cls-12" points="490.57 399.17 488.46 387.52 489.44 387.34 491.55 398.99 490.57 399.17"/><rect class="cls-12" x="494.17" y="392.02" width="0.99" height="7.81" transform="translate(-57.04 84.36) rotate(-9.22)"/><polygon class="cls-12" points="509.02 400.06 506.52 396.2 507.35 395.65 509.86 399.51 509.02 400.06"/><polygon class="cls-12" points="529.16 416.54 526.28 410.55 527.18 410.12 530.06 416.1 529.16 416.54"/><polygon class="cls-12" points="521.76 412.6 519.35 404.42 520.31 404.14 522.71 412.32 521.76 412.6"/><polygon class="cls-12" points="538.4 417.7 537.44 417.43 539.08 411.55 540.04 411.82 538.4 417.7"/><polygon class="cls-12" points="436.01 408.06 435.32 407.34 441.84 401 442.53 401.72 436.01 408.06"/><rect class="cls-12" x="420.72" y="412.28" width="0.99" height="6.25"/><polygon class="cls-12" points="409.38 417.5 408.42 417.23 410.35 410.35 411.3 410.62 409.38 417.5"/><rect class="cls-12" x="464.7" y="399.83" width="10.53" height="0.99" transform="translate(41.73 845.01) rotate(-86.51)"/><path class="cls-6" d="M667.63,578.62a30.6,30.6,0,1,1,30.6-30.6A30.63,30.63,0,0,1,667.63,578.62Zm0-60A29.4,29.4,0,1,0,697,548,29.43,29.43,0,0,0,667.63,518.62Z"/><rect x="227.95" y="120.6" width="5.58" height="5.58"/><rect x="229.75" y="122.89" width="269.11" height="1"/><rect x="498.36" y="16.7" width="1" height="122.43"/><path class="cls-13" d="M302.64,106.08H260.41l-7.74,17.31h-11.8l42-93,38.56,93H309.85Zm-4.2-10.23-16-38.55L265,95.85Z"/><path class="cls-13" d="M393.77,98c0,14-11,25.44-26.23,25.44H332.93V31.59h28.19c15.08,0,26.09,11.41,26.09,25.58a25.06,25.06,0,0,1-7.6,18A25.54,25.54,0,0,1,393.77,98ZM343.15,72.38h17.71c9.18,0,15.73-6.82,15.73-15.21s-6.29-15.35-16-15.35H343.15Zm40,25.57c0-8.52-6.43-15.34-16-15.34h-24v30.55h24.13C376.59,113.16,383.15,106.34,383.15,98Z"/><path class="cls-13" d="M431.27,121.29a46.86,46.86,0,0,1-15.08-10.1A45.89,45.89,0,0,1,406,96,46.78,46.78,0,0,1,402,77.49,47.3,47.3,0,0,1,406,59a45.36,45.36,0,0,1,10.23-15.08,47.25,47.25,0,0,1,67.14,0A45.22,45.22,0,0,1,493.56,59a47.31,47.31,0,0,1,3.94,18.49A46.79,46.79,0,0,1,493.56,96a45.74,45.74,0,0,1-10.23,15.21,47.29,47.29,0,0,1-52.06,10.1Zm-7.86-70.16a37.83,37.83,0,0,0,0,52.85,37.11,37.11,0,0,0,63.46-26.49,37.18,37.18,0,0,0-63.46-26.36Z"/><path d="M747.46,609.23H218.89V6.13H747.46Zm-527.82-.75H746.71V6.88H219.64Z"/><rect class="cls-6" x="213.27" y="0.5" width="12" height="12"/><path d="M225.77,13h-13V0h13Zm-12-1h11V1h-11Z"/><rect class="cls-6" x="477.18" y="0.5" width="12" height="12"/><path d="M489.68,13h-13V0h13Zm-12-1h11V1h-11Z"/><rect class="cls-6" x="741.08" y="0.5" width="12" height="12"/><path d="M753.58,13h-13V0h13Zm-12-1h11V1h-11Z"/><rect class="cls-6" x="213.27" y="324.51" width="12" height="12"/><path d="M225.77,337h-13V324h13Zm-12-1h11V325h-11Z"/><rect class="cls-6" x="741.08" y="324.51" width="12" height="12"/><path d="M753.58,337h-13V324h13Zm-12-1h11V325h-11Z"/><rect class="cls-6" x="213.27" y="602.86" width="12" height="12"/><path d="M225.77,615.36h-13v-13h13Zm-12-1h11v-11h-11Z"/><rect class="cls-6" x="477.18" y="602.86" width="12" height="12"/><path d="M489.68,615.36h-13v-13h13Zm-12-1h11v-11h-11Z"/><rect class="cls-6" x="741.08" y="602.86" width="12" height="12"/><path d="M753.58,615.36h-13v-13h13Zm-12-1h11v-11h-11Z"/><polygon points="749.46 328.01 749.46 359.8 758.03 350.59 769.97 350.91 749.46 328.01"/><path class="cls-14" d="M748.86,361.32V326.44l22.49,25.11-13.07-.35Zm1.2-31.74v28.69l7.72-8.29,10.82.29Z"/><rect class="cls-2" x="48.64" y="145.94" width="162.79" height="1" transform="translate(-42.8 54.35) rotate(-20.35)"/><rect class="cls-6" x="127.24" y="143.65" width="5.58" height="5.58"/><path class="cls-2" d="M133.33,149.73h-6.59v-6.58h6.59Zm-5.59-1h4.59v-4.58h-4.59Z"/><path d="M148.7,158.45c.18,3.43,1.34,11.35,1.34,11.35l-4.68,2.7-4.68,2.71s-6.28-5-9.16-6.84c.36-3.48-.2-17.39-.27-19.25,0-.05.06-.07.09,0l8.29,14.36a.87.87,0,1,0,1.51,0,.86.86,0,0,0-.75-.43l-8.29-14.35a.06.06,0,0,1,.08-.07C133.78,149.61,145.51,157,148.7,158.45Z"/><path class="cls-6" d="M140.62,175.93l-.31-.25c-.07-.05-6.29-5-9.12-6.81l-.3-.2,0-.36c.36-3.46-.21-17.56-.27-19.16l0-.47.88-.29.19-.22a.65.65,0,0,1,.8-.08c1.35.85,13.28,8.39,16.44,9.81l.34.15,0,.37c.17,3.36,1.32,11.21,1.34,11.29l.06.41Zm-8.47-7.87c2.61,1.74,7.3,5.42,8.58,6.42l8.66-5c-.23-1.61-1.07-7.51-1.27-10.64-2.92-1.41-10.56-6.15-14.39-8.56l7,12.19a1.44,1.44,0,0,1,.9.68,1.48,1.48,0,0,1,.11,1.25,1.46,1.46,0,0,1-.89.88,1.48,1.48,0,0,1-1.62-.43,1.46,1.46,0,0,1-.29-1.34l-7-12.19C132.09,155.68,132.38,164.83,132.15,168.06Zm8.08-4.44-.08.13a.27.27,0,0,0,.32.4.26.26,0,0,0,.17-.17.24.24,0,0,0,0-.23.25.25,0,0,0-.23-.13Zm-7.61-15.26h0Z"/><polygon points="147.99 177.06 142.99 179.94 140.97 175.48 145.55 172.84 150.14 170.19 152.99 174.17 147.99 177.06"/><path class="cls-6" d="M142.71,180.8l-2.51-5.56,10.11-5.84,3.56,5Zm-1-5.07,1.52,3.36,8.86-5.11L150,171Z"/><path class="cls-2" d="M55.26,174.87a1.54,1.54,0,1,1-1.42-1.66A1.54,1.54,0,0,1,55.26,174.87Z"/><path class="cls-2" d="M207.89,118.25a1.54,1.54,0,1,1-1.42-1.66A1.54,1.54,0,0,1,207.89,118.25Z"/><rect class="cls-2" x="17.63" y="205.39" width="1" height="162.79" transform="translate(-58.04 9.7) rotate(-11.75)"/><path class="cls-2" d="M35.06,365a1.55,1.55,0,1,1-1.86,1.15A1.53,1.53,0,0,1,35.06,365Z"/><rect class="cls-6" x="15.54" y="286.17" width="5.58" height="5.58"/><path class="cls-2" d="M21.62,292.25H15v-6.58h6.58Zm-5.58-1h4.58v-4.58H16Z"/><path class="cls-2" d="M1.9,205.59A1.55,1.55,0,1,1,0,206.75,1.55,1.55,0,0,1,1.9,205.59Z"/></g></svg>