<svg xmlns="http://www.w3.org/2000/svg" xmlns:xlink="http://www.w3.org/1999/xlink" viewBox="0 0 921.74 647.75"><defs><style>.cls-1,.cls-42,.cls-43,.cls-44,.cls-47,.cls-51{fill:none;}.cls-2{fill:#fffaec;}.cls-3{fill:#d3dfc2;}.cls-4{clip-path:url(#clip-path);}.cls-5{fill:#fff;}.cls-6{fill:#d3e0cb;}.cls-7{fill:#e1efd8;}.cls-8{fill:#a8b9a4;}.cls-9{fill:#f0f6e1;}.cls-10{fill:url(#未命名漸層_22);}.cls-11{clip-path:url(#clip-path-2);}.cls-12{fill:url(#未命名漸層_24);}.cls-13{fill:url(#未命名漸層_22-2);}.cls-14{clip-path:url(#clip-path-3);}.cls-15{fill:url(#未命名漸層_24-2);}.cls-16{fill:url(#未命名漸層_22-3);}.cls-17{clip-path:url(#clip-path-4);}.cls-18{fill:url(#未命名漸層_24-3);}.cls-19{fill:url(#未命名漸層_25);}.cls-20{clip-path:url(#clip-path-5);}.cls-21{fill:url(#未命名漸層_29);}.cls-22{fill:url(#未命名漸層_27);}.cls-23{clip-path:url(#clip-path-6);}.cls-24{fill:url(#未命名漸層_28);}.cls-25{fill:url(#未命名漸層_26);}.cls-26{clip-path:url(#clip-path-7);}.cls-27{fill:url(#未命名漸層_30);}.cls-28{fill:#56b878;}.cls-29,.cls-53{fill:#f6faed;}.cls-29{stroke:#beb1a1;stroke-width:1.5px;}.cls-29,.cls-32,.cls-47,.cls-51{stroke-miterlimit:10;}.cls-30{fill:#beb1a1;}.cls-31{fill:#ef856d;}.cls-32{stroke:#ef856d;fill:url(#新增圖樣色票_1);}.cls-33{fill:#ecf4e3;}.cls-34{fill:#bac6ac;}.cls-35{fill:#f4ddd4;}.cls-36{fill:#bab991;}.cls-37{fill:#f6faf6;}.cls-38{clip-path:url(#clip-path-9);}.cls-39{fill:#dac5b2;}.cls-40{fill:#fdede4;}.cls-41{fill:url(#未命名漸層_20);}.cls-42{stroke:#c2ceb4;}.cls-42,.cls-43,.cls-44,.cls-51{stroke-linecap:round;}.cls-42,.cls-43,.cls-44{stroke-linejoin:round;}.cls-43{stroke:#e1eecf;}.cls-44{stroke:#e3cec2;}.cls-45{fill:#95a1a0;}.cls-46{fill:#fbdad1;}.cls-47{stroke:#9d8e81;stroke-width:1.3px;}.cls-48{fill:#869090;}.cls-49{fill:url(#未命名漸層_21);}.cls-50{clip-path:url(#clip-path-10);}.cls-51{stroke:#c1baa9;stroke-width:0.75px;}.cls-52{fill:#9d8e81;}.cls-54{fill:#859c63;}.cls-55{fill:#d4dcc4;}.cls-56{fill:#9fa993;}.cls-57{fill:#dfd1ca;}.cls-58{fill:#dde1d6;}.cls-59{fill:#b1bca4;}</style><clipPath id="clip-path"><path class="cls-1" d="M901.34,404.58c7,119.69-40.17,175.35-154,209C697.93,628.24,577.22,646.85,522,646.85c-49.64,0-205.7,4.48-275.17-6.53C129.56,621.74,28.56,606.49,3,478.76-17.93,374.39,78.12,351.63,78.12,287.15c0-89.43-4.63-121.06,54.92-178.7,57.05-55.22,191.17-75.38,276.84-75.38,76.85,0,178.09-29.34,233,16.15,43.81,36.32,87.21,79.08,115,130.07C807.75,271,893.21,265.59,901.34,404.58Z"/></clipPath><linearGradient id="未命名漸層_22" x1="97.8" y1="474.84" x2="23.09" y2="246.84" gradientUnits="userSpaceOnUse"><stop offset="0" stop-color="#cad8c4"/><stop offset="0.7" stop-color="#e1efd8"/></linearGradient><clipPath id="clip-path-2"><path class="cls-1" d="M109,488c-2.37,7.35-17.7.5-17.7.5s-25.26-24.36-27.47-39c-2.72-18,6.63-19.64-14.45-59.43-5.22-9.84-8.26-20.8-8.26-50s2-31.33-3.61-41.63-6.15-35.61-7.44-57.5c0,0,39.91,42.7,38.82,81.23-.63,22.37,25.55,39.78,27.48,79.47C97.55,425.75,119.52,455.39,109,488Z"/></clipPath><linearGradient id="未命名漸層_24" x1="89.22" y1="494.58" x2="19.54" y2="253.8" gradientUnits="userSpaceOnUse"><stop offset="0" stop-color="#b1bdac"/><stop offset="0.7" stop-color="#cad8c4"/></linearGradient><linearGradient id="未命名漸層_22-2" x1="106.18" y1="477.49" x2="129.02" y2="303.68" xlink:href="#未命名漸層_22"/><clipPath id="clip-path-3"><path class="cls-1" d="M134.72,364.74c.72,24.81-.59,34.42-3.55,43.3-11.95,35.91-6,36.36-7.12,51.95-.91,12.68-16,35.88-16,35.88s-9.42,7.34-11.16,1.33c-7.69-26.69,2.21-53.86,2.16-74.46-.1-33.94,7.06-47.4,7-68.13-.19-40.26,32.39-75.24,32.39-75.24.44,24.83-.56,49.18-3.92,56C131,342.45,134.48,356.48,134.72,364.74Z"/></clipPath><linearGradient id="未命名漸層_24-2" x1="116.96" y1="496.4" x2="153.1" y2="301.5" xlink:href="#未命名漸層_24"/><linearGradient id="未命名漸層_22-3" x1="49.33" y1="482.59" x2="-0.99" y2="321.94" xlink:href="#未命名漸層_22"/><clipPath id="clip-path-4"><path class="cls-1" d="M9.71,401c2.52,11.66,10.5,22.42,14.34,29.24,4.32,7.68,3.5,18,7.19,30.57,3,10.18,19.45,26.43,19.45,26.43s9,4.32,9.35-.9c1.52-23.16-11.41-43.58-15-60.4-6-27.72-14.22-37.43-17.84-54.38A175.18,175.18,0,0,0,3.3,314.37C-2.47,335.8,0,358.5,5.69,369.77,8.66,375.62,8.26,394.23,9.71,401Z"/></clipPath><linearGradient id="未命名漸層_24-3" x1="39.41" y1="488.57" x2="-0.07" y2="321.34" xlink:href="#未命名漸層_24"/><linearGradient id="未命名漸層_25" x1="-4242.86" y1="1295.63" x2="-4309.2" y2="1066.06" gradientTransform="matrix(-0.98, 0.31, 0.17, 0.97, -3536.82, 555.73)" gradientUnits="userSpaceOnUse"><stop offset="0.04" stop-color="#cad8c4"/><stop offset="0.7" stop-color="#e1efd8"/></linearGradient><clipPath id="clip-path-5"><path class="cls-1" d="M825.19,498.62c3.35,6.16,16.36-4.77,16.36-4.77s19.35-30.2,19.05-44.52c-.37-17.62-9.23-16.37,3.82-59.73,3.23-10.72,4.29-21.85-.35-49.07s-6.79-28.66-3.3-39.92,0-35.05-2.31-55.85c0,0-29.9,51.64-22.77,87.27,4.14,20.69-17.16,44.67-12.62,82.28C825.83,437.14,810.34,471.3,825.19,498.62Z"/></clipPath><linearGradient id="未命名漸層_29" x1="-4252.18" y1="1302.04" x2="-4319.27" y2="1070.22" gradientTransform="matrix(-0.98, 0.31, 0.17, 0.97, -3536.82, 555.73)" gradientUnits="userSpaceOnUse"><stop offset="0.1" stop-color="#b1bdac"/><stop offset="0.7" stop-color="#cad8c4"/></linearGradient><linearGradient id="未命名漸層_27" x1="-3815.25" y1="-488.54" x2="-3784.21" y2="-688.84" gradientTransform="matrix(-0.94, -0.41, -0.51, 0.84, -3000.95, -675.22)" gradientUnits="userSpaceOnUse"><stop offset="0.13" stop-color="#cad8c4"/><stop offset="0.7" stop-color="#e1efd8"/></linearGradient><clipPath id="clip-path-6"><path class="cls-1" d="M879.62,368.1c-12.83,19.7-16.38,27.94-18.11,36.22-7,33.49-12.51,31.58-19.17,44.55-5.42,10.55-3.38,35-3.38,35s4.78,9.53,9.28,5.35c20-18.53,24.48-44.2,34.65-60.76,16.75-27.28,17-40.86,27.26-57.51,19.94-32.33,8.12-73,8.12-73-12.59,19.82-23.66,39.8-24,46.61C893.85,351.58,883.88,361.55,879.62,368.1Z"/></clipPath><linearGradient id="未命名漸層_28" x1="-3800.22" y1="-487.85" x2="-3765.52" y2="-675.02" gradientTransform="matrix(-0.94, -0.41, -0.51, 0.84, -3000.95, -675.22)" gradientUnits="userSpaceOnUse"><stop offset="0.08" stop-color="#b1bdac"/><stop offset="0.7" stop-color="#cad8c4"/></linearGradient><linearGradient id="未命名漸層_26" x1="-4015.2" y1="2120" x2="-4063.64" y2="1967.24" gradientTransform="matrix(-0.81, 0.62, 0.49, 0.86, -3464.31, 1200.23)" gradientUnits="userSpaceOnUse"><stop offset="0.08" stop-color="#cad8c4"/><stop offset="0.7" stop-color="#e1efd8"/></linearGradient><clipPath id="clip-path-7"><path class="cls-1" d="M824.23,421.69c3.55,11.12,2.5,24.72,2.77,32.62.3,8.88,5.78,17,8.83,29.49,2.48,10.19-2.45,33.31-2.45,33.31s-4.84,8.86-7.54,4.75c-12-18.25-11.7-42.74-16.81-58.78-8.41-26.43-6.68-39.32-11.85-55.45-10-31.33-8.57-61.31-8.57-61.31,14.41,14.32,23.18,34.51,24.09,47.21C813.17,400.1,822.19,415.26,824.23,421.69Z"/></clipPath><linearGradient id="未命名漸層_30" x1="-4019.56" y1="2126.37" x2="-4071.73" y2="1964.65" gradientTransform="matrix(-0.81, 0.62, 0.49, 0.86, -3464.31, 1200.23)" gradientUnits="userSpaceOnUse"><stop offset="0.12" stop-color="#b1bdac"/><stop offset="0.7" stop-color="#cad8c4"/></linearGradient><pattern id="新增圖樣色票_1" data-name="新增圖樣色票 1" width="138.97" height="138.97" patternUnits="userSpaceOnUse" viewBox="0 0 138.97 138.97"><rect class="cls-1" width="138.97" height="138.97"/><circle class="cls-2" cx="69.48" cy="69.48" r="69.48" transform="translate(-28.78 69.48) rotate(-45)"/></pattern><clipPath id="clip-path-9"><ellipse class="cls-1" cx="508.21" cy="412.29" rx="21.59" ry="5.48"/></clipPath><linearGradient id="未命名漸層_20" x1="478.01" y1="261.29" x2="477.52" y2="303.89" gradientUnits="userSpaceOnUse"><stop offset="0.3" stop-color="#ebd7cb"/><stop offset="0.93" stop-color="#fdede4"/></linearGradient><linearGradient id="未命名漸層_21" x1="477.49" y1="258.76" x2="477.23" y2="265.21" gradientUnits="userSpaceOnUse"><stop offset="0" stop-color="#d5a3a0"/><stop offset="1" stop-color="#f0c1bc"/></linearGradient><clipPath id="clip-path-10"><path class="cls-1" d="M477.5,266.26c8.37,0,11.34-4.62,11.27-5.13s-.9-1.52-1.09-1.45-.71-.1-2.07,0-6.57.37-8.22.37-6.87-.28-8.22-.37-1.87.06-2.07,0-1,.93-1.09,1.45,2.9,5.13,11.27,5.13"/></clipPath></defs><title>me</title><g id="圖層_2" data-name="圖層 2"><path class="cls-3" d="M901.34,404.58c7,119.69-40.17,175.35-154,209C697.93,628.24,577.22,646.85,522,646.85c-49.64,0-205.7,4.48-275.17-6.53C129.56,621.74,28.56,606.49,3,478.76-17.93,374.39,78.12,351.63,78.12,287.15c0-89.43-4.63-121.06,54.92-178.7,57.05-55.22,191.17-75.38,276.84-75.38,76.85,0,178.09-29.34,233,16.15,43.81,36.32,87.21,79.08,115,130.07C807.75,271,893.21,265.59,901.34,404.58Z"/><g class="cls-4"><rect class="cls-5" x="644.76" y="186.48" width="206.09" height="123.76"/><rect class="cls-6" x="652.29" y="193.1" width="191.03" height="110.52"/><path class="cls-7" d="M843.32,303.62V220.24s-131.53,6.74-191,44.81v38.57Z"/><path class="cls-8" d="M652.29,241.37s23.67-21.1,38.76-21.1,39.88,24.82,47.23,28.09,16.84-9.51,27.29-9.51c10.26,0,22.84,16.36,30.58,19,9.55,3.22,47.17,3.29,47.17,3.29v42.51h-191Z"/><path class="cls-7" d="M690,220.31s-12.87,13-8.81,20.58,20.33,14.61,21,20.61-10.89,42.12-10.89,42.12h39s-2.46-33.4-7.65-42.8c-2.58-4.67-15.63-13-20.55-15.43s-8.38-4.57-13.16-7.24c-3.39-1.91-4.45-5.36-1.13-11.52a39.73,39.73,0,0,1,4.31-6.32A9.27,9.27,0,0,0,690,220.31Z"/><path class="cls-9" d="M805.47,261.4c-.1-.48.87-17.9,1.26-18.19a.65.65,0,0,1,.77,0l1.84,18.19Z"/><path class="cls-9" d="M820.57,261.84c-.13-.64,1.15-23.74,1.67-24.12a.86.86,0,0,1,1,0l2.44,24.12Z"/><path class="cls-9" d="M812.4,263.15c-.19-1,1.71-35.18,2.47-35.75a1.3,1.3,0,0,1,1.52,0L820,263.15Z"/><path class="cls-9" d="M806.73,260.6v4.22l.45.42L807,260.6Z"/><polygon class="cls-9" points="815.18 261.95 815.02 268.31 816.63 268.31 816.19 262.08 815.18 261.95"/><polygon class="cls-9" points="822.86 260.98 822.63 265.24 823.38 265.44 823.38 260.68 822.86 260.98"/></g><path class="cls-10" d="M109,488c-2.37,7.35-17.7.5-17.7.5s-25.26-24.36-27.47-39c-2.72-18,6.63-19.64-14.45-59.43-5.22-9.84-8.26-20.8-8.26-50s2-31.33-3.61-41.63-6.15-35.61-7.44-57.5c0,0,39.91,42.7,38.82,81.23-.63,22.37,25.55,39.78,27.48,79.47C97.55,425.75,119.52,455.39,109,488Z"/><g class="cls-11"><path class="cls-12" d="M30.08,241s14.24,35.36,16,43.1,12.39,46.26,12.59,52.45,6.19,39.87,9.67,50.13,14.13,47.22,19,58.84,13.92,35,15.87,41.8a29.62,29.62,0,0,1,1.13,11.81l-19.71-5L60.16,455.73,40.84,377.15,30.08,273.21l-2.6-29.81Z"/></g><path class="cls-13" d="M134.72,364.74c.72,24.81-.59,34.42-3.55,43.3-11.95,35.91-6,36.36-7.12,51.95-.91,12.68-16,35.88-16,35.88s-9.42,7.34-11.16,1.33c-7.69-26.69,2.21-53.86,2.16-74.46-.1-33.94,7.06-47.4,7-68.13-.19-40.26,32.39-75.24,32.39-75.24.44,24.83-.56,49.18-3.92,56C131,342.45,134.48,356.48,134.72,364.74Z"/><g class="cls-14"><path class="cls-15" d="M138.4,279.37s-8.79,28.35-9.56,33.58-7.55,26.51-7.55,29.61-2.32,43.95-3.68,52.17-7.35,18.67-7.35,30.28-2.52,19.16-2.71,34.07S99,502.24,98.84,503.21s22.84,5.8,22.84,5.8l28.45-60.58-4.65-158.71Z"/></g><path class="cls-16" d="M9.71,401c2.52,11.66,10.5,22.42,14.34,29.24,4.32,7.68,3.5,18,7.19,30.57,3,10.18,19.45,26.43,19.45,26.43s9,4.32,9.35-.9c1.52-23.16-11.41-43.58-15-60.4-6-27.72-14.22-37.43-17.84-54.38A175.18,175.18,0,0,0,3.3,314.37C-2.47,335.8,0,358.5,5.69,369.77,8.66,375.62,8.26,394.23,9.71,401Z"/><g class="cls-17"><path class="cls-18" d="M3.3,314.37s8.7,29.87,8.7,34.9,3.1,24.44,7,35S33.48,425.34,35.23,430s11,20.13,12.19,27.87,10.26,36.39,10.26,36.39l-15.49-3.87-38.89-83-6.78-63.68L-1,317Z"/></g><path class="cls-19" d="M825.19,498.62c3.35,6.16,16.36-4.77,16.36-4.77s19.35-30.2,19.05-44.52c-.37-17.62-9.23-16.37,3.82-59.73,3.23-10.72,4.29-21.85-.35-49.07s-6.79-28.66-3.3-39.92,0-35.05-2.31-55.85c0,0-29.9,51.64-22.77,87.27,4.14,20.69-17.16,44.67-12.62,82.28C825.83,437.14,810.34,471.3,825.19,498.62Z"/><g class="cls-20"><path class="cls-21" d="M858.46,244.76S851,282,850.62,289.7s-4,46.83-3.22,52.66.64,39-.93,49.64-5.47,48.24-8.07,60.51-7.24,36.75-7.95,43.7a28.67,28.67,0,0,0,.84,11.35L848.61,497l16.36-43,5.26-79-6.64-100.16-2.35-28.58Z"/></g><path class="cls-22" d="M879.62,368.1c-12.83,19.7-16.38,27.94-18.11,36.22-7,33.49-12.51,31.58-19.17,44.55-5.42,10.55-3.38,35-3.38,35s4.78,9.53,9.28,5.35c20-18.53,24.48-44.2,34.65-60.76,16.75-27.28,17-40.86,27.26-57.51,19.94-32.33,8.12-73,8.12-73-12.59,19.82-23.66,39.8-24,46.61C893.85,351.58,883.88,361.55,879.62,368.1Z"/><g class="cls-23"><path class="cls-24" d="M918.27,298s-6.1,26.19-8,30.69-6.3,24.24-7.83,26.73S883,391.67,880.12,398.81s-2.62,17.84-8.33,27.19-7.17,16.39-14.31,28.46-13.62,38-13.92,38.86-23.19-4.08-23.19-4.08l4.43-59.67,82.08-126Z"/></g><path class="cls-25" d="M824.23,421.69c3.55,11.12,2.5,24.72,2.77,32.62.3,8.88,5.78,17,8.83,29.49,2.48,10.19-2.45,33.31-2.45,33.31s-4.84,8.86-7.54,4.75c-12-18.25-11.7-42.74-16.81-58.78-8.41-26.43-6.68-39.32-11.85-55.45-10-31.33-8.57-61.31-8.57-61.31,14.41,14.32,23.18,34.51,24.09,47.21C813.17,400.1,822.19,415.26,824.23,421.69Z"/><g class="cls-26"><path class="cls-27" d="M788.61,346.32s7.34,29.81,9.7,34,9.07,22,11.05,33,8.17,42.53,9,47.4,1,23.13,3.75,30.21S831.34,527,831.34,527l10-12.31-9.23-91.54-24.62-56.63-14.41-20.6Z"/></g><g class="cls-4"><path class="cls-8" d="M1.41,469.63s279-2.9,291.11-2.9c26.1,0,217.68-5.25,217.68-5.25L660,460.32H900.14l13,76.65L700.65,660.06,290.15,674S67.75,653.09,41,593.87-14.7,481.22-14.7,481.22Z"/></g><path class="cls-28" d="M335.77,152.68a47.15,47.15,0,0,1-21.44-4.81c-11.73-6.05-18.19-17.19-18.19-31.38,0-21.3,11.2-33.54,20.6-40,14.15-9.8,34.57-13.1,48.55-7.85a1.65,1.65,0,1,1-1.16,3.08c-11.19-4.2-30.41-3-45.51,7.48-8.75,6.07-19.18,17.46-19.18,37.34,0,16.53,8.92,24.59,16.4,28.45,14,7.23,34.64,5.55,47.92-3.91a1.65,1.65,0,1,1,1.91,2.69C357.39,149.62,346.44,152.68,335.77,152.68Z"/><path class="cls-28" d="M380.68,146.64a1.5,1.5,0,0,1-.62-.13,1.65,1.65,0,0,1-.91-2.15l34.06-83.57a4.68,4.68,0,0,1,4.14-2.87,3.71,3.71,0,0,1,3.57,2.1l33.44,71.63a3.87,3.87,0,0,1-.13,3.56,4.41,4.41,0,0,1-3.28,2.32,3.65,3.65,0,0,1-3.83-1.94L437,114.31a1.16,1.16,0,0,0-1.24-.51l-36.36,5a1.65,1.65,0,1,1-.45-3.27l36.36-5a4.42,4.42,0,0,1,4.65,2.33l10.1,21.28c.08.15.34.13.42.12a1.1,1.1,0,0,0,.82-.6.69.69,0,0,0,.07-.59L418,61.45c0-.05-.12-.25-.51-.24a1.37,1.37,0,0,0-1.18.85L382.2,145.61A1.64,1.64,0,0,1,380.68,146.64Z"/><path class="cls-28" d="M482.41,132.53a4.9,4.9,0,0,1-3.25-1.18,4.74,4.74,0,0,1-1.62-3.65V51a1.65,1.65,0,1,1,3.29,0V127.7a1.49,1.49,0,0,0,.49,1.16,1.7,1.7,0,0,0,1.38.35l32.42-4.46a1.65,1.65,0,1,1,.45,3.26l-32.42,4.47A6.27,6.27,0,0,1,482.41,132.53Z"/><path class="cls-28" d="M545.19,123.88a5,5,0,0,1-3.25-1.18,4.77,4.77,0,0,1-1.62-3.64V42.38a1.65,1.65,0,0,1,3.3,0v76.68a1.48,1.48,0,0,0,.49,1.15,1.66,1.66,0,0,0,1.36.35l32.44-4.47a1.65,1.65,0,0,1,.45,3.27l-32.44,4.47A6,6,0,0,1,545.19,123.88Z"/><path class="cls-28" d="M624.47,113a1.37,1.37,0,0,1-.34,0,1.64,1.64,0,0,1-1.28-1.94l16.57-80.48A4.6,4.6,0,0,1,643.48,27a3.75,3.75,0,0,1,3.85,2.28l20.8,56.21a1.45,1.45,0,0,0,1.48.94,2.72,2.72,0,0,0,2.47-1.88l20.54-61.8a4.57,4.57,0,0,1,4.49-3,3.68,3.68,0,0,1,3.45,2.84l16.74,75.9a1.66,1.66,0,0,1-1.26,2,1.64,1.64,0,0,1-2-1.26L697.34,23.25c0-.09-.06-.27-.41-.29a1.23,1.23,0,0,0-1.2.84L675.21,85.55a6,6,0,0,1-5.54,4.13A4.72,4.72,0,0,1,665,86.59L644.26,30.44s-.09-.22-.5-.2a1.28,1.28,0,0,0-1.12,1l-16.56,80.45A1.65,1.65,0,0,1,624.47,113Z"/><path class="cls-28" d="M846.14,61a1.65,1.65,0,0,1-1.65-1.65V1.65a1.65,1.65,0,1,1,3.3,0V59.37A1.65,1.65,0,0,1,846.14,61Z"/><path class="cls-28" d="M846.14,82.67a1.65,1.65,0,0,1-.22-3.28,2,2,0,0,0,1.64-1.8,1,1,0,0,0-.3-.73,1.11,1.11,0,0,0-.89-.22,2,2,0,0,0-1.53,1.22,1.65,1.65,0,0,1-3.05-1.25,5.34,5.34,0,0,1,4.13-3.23,4.35,4.35,0,0,1,3.5,1,4.15,4.15,0,0,1,1.43,3.21,5.22,5.22,0,0,1-4.48,5.06A.9.9,0,0,1,846.14,82.67Z"/><path class="cls-28" d="M740.84,97a1.65,1.65,0,0,1-.22-3.28l37-5.1a1.19,1.19,0,0,0,1-1.06.41.41,0,0,0-.12-.32.51.51,0,0,0-.42-.08L744.9,91.68a5.08,5.08,0,0,1-4.06-1.15,4.87,4.87,0,0,1-1.65-3.72V59.52a6.15,6.15,0,0,1,5.29-6L777.56,49a1.27,1.27,0,0,0,1.05-1.14.48.48,0,0,0-.13-.35.6.6,0,0,0-.47-.1L744.77,52a5,5,0,0,1-4-1.13,4.71,4.71,0,0,1-1.61-3.62V19.82A6,6,0,0,1,744.35,14L780,9.1a1.65,1.65,0,1,1,.45,3.26L744.8,17.28a2.73,2.73,0,0,0-2.31,2.54V47.25a1.47,1.47,0,0,0,.48,1.14,1.7,1.7,0,0,0,1.35.34l33.24-4.58a3.88,3.88,0,0,1,3.08.88,3.78,3.78,0,0,1,1.27,2.84,4.55,4.55,0,0,1-3.9,4.4l-33.08,4.56a2.88,2.88,0,0,0-2.44,2.69V86.81A1.56,1.56,0,0,0,743,88a1.75,1.75,0,0,0,1.44.37l33.17-4.57a3.81,3.81,0,0,1,3,.87,3.71,3.71,0,0,1,1.25,2.8,4.47,4.47,0,0,1-3.84,4.32l-37,5.1Z"/><circle class="cls-29" cx="226.63" cy="207.29" r="62.95"/><polygon class="cls-30" points="268.2 203.46 226.76 208.55 226.47 206.08 267.91 200.99 268.2 203.46"/><rect class="cls-30" x="176.11" y="217.29" width="52.84" height="1.66" transform="translate(476.64 334.14) rotate(155.82)"/><polygon class="cls-31" points="224.61 220.11 229.35 159.56 227.2 220.25 224.61 220.11"/><path class="cls-32" d="M228.27,207.43a1.66,1.66,0,0,1-1.75,1.56,1.65,1.65,0,1,1,1.75-1.56Z"/><path class="cls-33" d="M567.13,586.77c-1.16-1.29-22.06-4-22.58-4s-25-3.87-28.77-5.29-25.68-4.26-25.68-4.26l-36.51-5.29L437.2,584.45s-6.84,8.52-8.65,9.42-5.93,6.45-5.93,6.45l.51,1.29,34.2,7.23s39.48,10.19,40,10.19,40.9,7.23,41.29,7.23h4.13Z"/><path class="cls-34" d="M614.62,574.39c-1.16-1.3-22.07-4-22.58-4s-25-3.88-28.78-5.3-25.67-4.25-25.67-4.25l-36.52-5.29-16.39,16.51s-6.84,8.52-8.64,9.42-5.94,6.45-5.94,6.45l.52,1.29,34.19,7.23s39.49,10.19,40,10.19,40.91,7.23,41.29,7.23h4.13Z"/><path class="cls-35" d="M506.63,234.09l1.24,2.43,1.83,4.9s1.2,3.33,1.23,3.78.41,1.17.27,1.6a3.56,3.56,0,0,1-1.06,2.19,4.75,4.75,0,0,1-2.33,1.26c-1.15.25-1.23.19-1.23.19Z"/><path class="cls-35" d="M443,230.63l-1.26,6.21a34.66,34.66,0,0,0-.69,4.21c-.06,1.33-.35,3.95,1.15,5.91a7.14,7.14,0,0,0,1.37,1.38,11,11,0,0,0,3.35,1.81c1.31.34,1.4.18,1.58.16a.83.83,0,0,0,.3-.07l-1.94-20Z"/><path class="cls-36" d="M424.33,289c-1.09.52-37.53,12.16-43.23,16.77s-20.74,31.16-20.74,40.11-10.77,48-10.77,48-7.32,11.67-8.68,24.42-2.44,28.22,0,33.92,16.82,30.12,26.86,30.12,43.15-6.51,48-7.33,38-10.31,38-10.31l101.26-2.36s2.52-33.7,2.71-35.22c.62-5.1.77-32.43.77-32.43V380l-2.17-23.06s7.23-32.11,29.75-41.61c0,0-3.23-8.49-7.3-10.94s-13.91-7.91-17.73-9.19S530,287.68,530,287.68l-28.65-2.1H457.13Z"/><path class="cls-34" d="M532.12,411.84c0,2.43-1.52,35-9,49.58-3.08,5-10.81,4.28-14.94,4.28s-12.07.45-14.83-4.07c-7.51-14.57-9.08-47.34-9.08-49.79,0-3.55,10.71-6.43,23.91-6.43S532.12,408.29,532.12,411.84Z"/><ellipse class="cls-37" cx="508.21" cy="412.29" rx="21.59" ry="5.48"/><g class="cls-38"><ellipse class="cls-39" cx="508.21" cy="415.67" rx="21.59" ry="5.48"/></g><path class="cls-34" d="M490.31,454a21.92,21.92,0,0,1-8.16-1.63c-8-3.28-10.4-21.44-10-24.32.69-4.83,3.62-7.71,7.86-7.71h6.41v4.77H480c-.71,0-2.64,0-3.15,3.61-.39,2.68,2.43,17.33,7.08,19.24a16.61,16.61,0,0,0,6.94,1.25l.43,4.75S490.92,454,490.31,454Z"/><path class="cls-40" d="M455.94,459.73c-6.45-2.29-8.72-7.25-10.66-13.22-1.44-4.41-3.71-12.19,1.76-14.32,2.64-.75,5.34-1.35,8-2.11.88-2.56,1.31-5.94,3.59-7.69s5.35-2.54,7.67-4.21a3.17,3.17,0,0,1,1.38,0c1.39.32,10,1.12,11.54,1.12,3.05,0,2.35,2,2.16,2.72a2.86,2.86,0,0,1-2.08,1.68,26.64,26.64,0,0,1-3.21.3c-.76,0-5.63.18-5.63.18l5.1.46,4.86.79s2.32,1.42,2.69,2.61c.1.3.75,1.51,0,4.24,2.36,2.15,2.22,5.37,1.33,7.92,1.39.91,2,3.13,1.39,5.83,1.66,1.46.77,4.19.78,4.37.07.71-2.55,2.36-2.78,2.54s-4.14.95-4.14.95-7.9,1.48-10.85,1.27C468.13,455.16,455.94,459.73,455.94,459.73Z"/><path class="cls-3" d="M393.36,434.06h11.71s.29-12,.39-13.22-1.27-5.21-1.27-5.21l.44-14.23Z"/><path class="cls-41" d="M454.13,285.93,457,265.29h42.55l1.6,20.29s11.38,19.48-21.16,19.48C441.72,305.06,454.13,285.93,454.13,285.93Z"/><path class="cls-36" d="M558.22,304.73c-1,1.5-.72,1,2,1.25s28-2.61,28-2.61l1-.71-2.38-.6,2.94.41.45,4.83s6.21,29.3,6.63,33.77,7.84,53.91,8.79,59.71,1,13.33-2,16.35S593.13,424.49,590,425c0,0-14,2.38-19.41-1s-10.39-4.56-10.89-6.67-4.58-18.64-4.19-19.95,0-40.05,0-40.05l.94-50.19S556.07,305.35,558.22,304.73Z"/><path class="cls-40" d="M568.75,250.42a.29.29,0,0,1-.25-.22c-.12-.68-2.22-2.09-2.9-2s-2.6,3.34-4,5c-1.21,1.48-3.83,3.79-3.66,4.67.71,3.65.52,7.23-1,12.92-.68,2.53,2.39,8.29,2.78,9.36s4,5.45,4,5.45l3,19.22.61,1.59a24.21,24.21,0,0,0,11,1,45.38,45.38,0,0,0,9.52-2.55l1.19-1.71-1.29-6.81-.93-11.05-.81-6.54,2-20.15-2.16-4.81-.24-11.66,1.19-18.48s-2.7-1.68-4.7.52-2.13,6.64-2.13,6.64l-2.62,15.55-.65,5.49-4.66-1C570.52,250.68,568.75,250.42,568.75,250.42Z"/><path class="cls-42" d="M566.62,264.55a37.81,37.81,0,0,1-1.36-3.68c-.1-1.9,2-2.51,2-2.51l9.74-1.54a17.63,17.63,0,0,1,4.34-1.31"/><path class="cls-42" d="M578.44,260.53a19.8,19.8,0,0,0-3.14,1.88l-8.06,1.86a2.35,2.35,0,0,0-1.46,2.44c0,.47,1.24,3.59,1.24,3.59s.06.49,1.14.65l3-.22"/><path class="cls-42" d="M566.62,258.43s.6-4.46.7-5.72a2.53,2.53,0,0,1,2.21-2.49l7.8,1.66,8.62,1.89,2.06,4.81-1.9,20.49,3,24.06"/><path class="cls-42" d="M573.36,257.43a3,3,0,0,1-2.24-1.92"/><line class="cls-42" x1="571.86" y1="256.66" x2="571.77" y2="257.51"/><path class="cls-42" d="M583.91,259a2.56,2.56,0,0,1,.92,3.51"/><path class="cls-42" d="M580.64,262.66s1.89,2.1.92,3.51"/><path class="cls-42" d="M571.41,262c.09.21.41,1.06,1.29,1"/><line class="cls-42" x1="571.65" y1="262.77" x2="571.31" y2="263.31"/><path class="cls-42" d="M576.78,251.88l2.52-16.54s1.22-7.67,1.24-7.76,1-4.44,3.79-4.54,2.56.59,2.56.59l-1,15.72L586,254"/><path class="cls-42" d="M568.5,250.2s-1.27-2-2.9-2c-.12,0-7.63,8.05-7.47,9.24C558.92,263.22,557,272,557,272l3.67,9.64,3.36,4,3.38,20.81"/><path class="cls-42" d="M569.77,267.78a4.41,4.41,0,0,1,2.89,1.17l.19-.05a4,4,0,0,1,2.45-2.11"/><path class="cls-42" d="M572.74,269.07a3.91,3.91,0,0,1,.21.95s-.61-.41-1.54.64"/><path class="cls-42" d="M576,270.72a17.73,17.73,0,0,1-3-.73s-3.09,4.14.56,11.27"/><polyline class="cls-42" points="571.77 268.31 572.66 268.44 573.62 267.8"/><path class="cls-42" d="M566.46,258.73a7.24,7.24,0,0,1-3.13.2,8.11,8.11,0,0,1-1.84-.84"/><path class="cls-42" d="M566.23,265.06s-1.77-.65-4.74,2.58"/><path class="cls-43" d="M398.42,317.55c6.19,7.62,11.1,40.39,11.1,40.39s-5.71,46.64-5.71,47.22-10,28.64-10,28.64"/><path class="cls-43" d="M383.49,428.71s9.48,4.43,10.35,5.92l22.1-.57,29.49-2.24"/><path class="cls-43" d="M560.62,305.61l6-.55,1.22,1.65-8.64-.78s-1.9,43.29-1.9,47-1.81,24.78-1.81,24.78l2.84,33.87"/><polyline class="cls-43" points="454.98 459.84 455.75 463.93 451.1 457.85 454.4 459.65 454.55 461.48"/><line class="cls-44" x1="500.01" y1="270.59" x2="501.36" y2="285.58"/><line class="cls-44" x1="454.13" y1="285.93" x2="456.07" y2="269.87"/><path class="cls-40" d="M508.91,216.45v11.16s-1.23,35.05-8.56,42.42S483,279.72,483,279.72H472.31s-10-2.31-17.36-9.69-8.56-42.42-8.56-42.42V216.45s6.84-25.84,31-25.84S508.91,216.45,508.91,216.45Z"/><path class="cls-45" d="M471.71,219.91a12.88,12.88,0,0,1,1.45,1,6,6,0,0,1,0,2.58,16.85,16.85,0,0,1-2.75.31L456,221.44,449,223l-.39-.41c-.29-.66,7.09-4.06,7.55-4.14,2.71-.49,13.16,1.06,13.16,1.06S471.41,219.81,471.71,219.91Z"/><path class="cls-45" d="M482.77,219.91a12.88,12.88,0,0,0-1.45,1,6,6,0,0,0,0,2.58,17.06,17.06,0,0,0,2.76.31l14.35-2.38,7,1.53.39-.41c.29-.66-7.09-4.06-7.55-4.14-2.71-.49-13.16,1.06-13.16,1.06S483.07,219.81,482.77,219.91Z"/><path class="cls-46" d="M480.85,227.69a2.38,2.38,0,0,0-.57,2.12c1.16,5.75,4.28,21.24,4.28,21.48s.78,1.26-1.36,2.32a18.55,18.55,0,0,1-11.84,0c-2.13-1.06-1.35-2-1.35-2.32s3.09-15.6,4.26-21.41a2.53,2.53,0,0,0-.56-2.19"/><path class="cls-47" d="M451.55,225.39a71.32,71.32,0,0,1,10.07-.71,28.65,28.65,0,0,1,9,1.25,4.87,4.87,0,0,1,3.07,3.31,6.25,6.25,0,0,1,.24,2.35c-.18,1.32-.83,4.07-1.23,5.69a4.66,4.66,0,0,1-1.65,2.59,6.24,6.24,0,0,1-3.83,1.46c-3.1,0-10.13.31-10.13.31s-5.74.33-8.29-4.57a14.79,14.79,0,0,1-1.52-7.07,4.74,4.74,0,0,1,4.16-4.59Z"/><path class="cls-47" d="M503,225.39a71.14,71.14,0,0,0-10.07-.71,28.65,28.65,0,0,0-9,1.25,4.84,4.84,0,0,0-3.06,3.31,6.06,6.06,0,0,0-.25,2.35c.18,1.32.83,4.07,1.23,5.69a4.72,4.72,0,0,0,1.65,2.59,6.24,6.24,0,0,0,3.83,1.46c3.1,0,10.13.31,10.13.31s5.74.33,8.29-4.57a14.79,14.79,0,0,0,1.52-7.07,4.73,4.73,0,0,0-4.16-4.59Z"/><path class="cls-47" d="M473.38,228.4s.33-.75,3.69-.75,4.11.75,4.11.75"/><path class="cls-48" d="M478.26,198.51s-7.39-4.65-11.52.9-11.44,20.78-15.32,25.68-9.67,11.75-9.67,11.75-1.68,6.32,0,9.42c1.32,2.43,5.25,4.4,6.76,4.05.16.81.14,1,.3,1.87.75,4,3.27,12.22,5.32,15.62s6.46,16.65,6.59,19.62-1.43,10-5.62,11.69-3.29,3.4-8.71,2.63-9.29-.9-11.22-3.61-7.1-5.42-5-7.23,4.91-1.13,4.52-5.72,2.19-4.13-.39-7.09-5.52-6.9-5.93-11.58c-.68-7.65.39-16.64,2.71-19.61s2.58-15.22,3.74-19.35,8.26-22.71,14.32-30.2S461,184.19,467.55,183.8s8.24.87,10.53,1.52c4.75-.95,6.6-1.77,10.38-1.77,2.32,0,6.06-.52,10.58,4s12.64,19,15.09,24,8.78,23.35,9.29,29.29S523,268.45,522,272.32s-3.1,6.15-3.49,7.4,5.68,12.47,8.78,13.5-1.42,3-2.46,3.87-15.48,5.16-18.58,5-7.35-5.61-9.42-9.09-3.48-7.29-2.32-11.71,4.9-11.27,4.9-11.27a12.4,12.4,0,0,0,4-5.44c1.06-3.28,3.32-14.15,3.32-14.15s3.74-.08,4.41-3.42c.38-1.84-4.66-13.24-5.17-15.95s-4-11.61-4.65-13.68-5.59-14-8.39-16.71-6.48-4.51-8.42-4.32c-3.73.37-5,1.07-5,1.07Z"/><path class="cls-49" d="M477.5,266.26c8.37,0,11.34-4.62,11.27-5.13s-.9-1.52-1.09-1.45-.71-.1-2.07,0-6.57.37-8.22.37-6.87-.28-8.22-.37-1.87.06-2.07,0-1,.93-1.09,1.45,2.9,5.13,11.27,5.13"/><g class="cls-50"><path class="cls-5" d="M465.82,259.24c.05.39,0,1.41.32,1.8l.31.38a96,96,0,0,0,10.77.58,103.79,103.79,0,0,0,11-.58l.42-.29v-2.08Z"/></g><line class="cls-51" x1="466" y1="256.39" x2="465.55" y2="257.49"/><line class="cls-51" x1="468.59" y1="256.59" x2="468.14" y2="257.69"/><line class="cls-51" x1="471.1" y1="256.81" x2="470.8" y2="257.95"/><line class="cls-51" x1="473.58" y1="256.98" x2="473.51" y2="258.14"/><line class="cls-51" x1="476.16" y1="257.12" x2="476.09" y2="258.27"/><line class="cls-51" x1="488.84" y1="256.39" x2="489.29" y2="257.49"/><line class="cls-51" x1="486.25" y1="256.59" x2="486.7" y2="257.69"/><line class="cls-51" x1="483.74" y1="256.81" x2="484.04" y2="257.95"/><line class="cls-51" x1="481.27" y1="256.98" x2="481.34" y2="258.14"/><line class="cls-51" x1="478.68" y1="257.12" x2="478.75" y2="258.27"/><path class="cls-51" d="M466,276s-.42,1.93,0,2.37,2.16-2.18,2.14-2,.75,3.41,1.33,3.51.92-4.57,1.33-4.52,2,5.34,2.42,5.44,1.45-6.36,1.86-6.11.88,6.89,1.8,7,.77-9,1.73-9.35c.35-.11-.35,9.13,1.39,9.37s.9-7.19,1.26-7.19,1,6.58,2,6.68.39-4.86.75-5,1.4,4,1.84,4,0-3.5.64-3.5,1.1,2.21,1.58,2.16.32-2.66.7-2.63,2.6,2.79,2.11,0"/><path class="cls-52" d="M463.79,230.15a2.5,2.5,0,1,1-2.49-2.5A2.49,2.49,0,0,1,463.79,230.15Z"/><path class="cls-52" d="M494.79,230.15a2.5,2.5,0,1,1-2.5-2.5A2.5,2.5,0,0,1,494.79,230.15Z"/><path class="cls-53" d="M585.18,554.36l-74.54-6a3.13,3.13,0,0,1-2.86-3.37h0a2.9,2.9,0,0,1,3.13-2.66l75,6c1.6.13,2.19,1.26,2.06,2.86h0C587.81,553,586.89,554.5,585.18,554.36Z"/><path class="cls-54" d="M585.16,554.36l-18.73-1.5c-1.77-.14-2.14-1.63-2-3.4h0c.12-1.54.51-2.77,2.05-2.65l19.43,1.56c1.58.13,2.16,1.26,2,2.84h0C587.81,552.94,586.88,554.5,585.16,554.36Z"/><path class="cls-54" d="M508.75,545c.13-1.66.92-2.74,2.58-2.61l.71.06-.1,0-1.57-.12c-1.66-.14-2.45.94-2.59,2.6s.45,3.27,2.11,3.41l.88.07C509.18,548.22,508.62,546.64,508.75,545Z"/><path class="cls-53" d="M634.65,584.63l-72.51-18.25a3.13,3.13,0,0,1-2.27-3.79h0a2.92,2.92,0,0,1,3.53-2.11l72.94,18.36c1.56.39,1.95,1.61,1.56,3.16h0C637.48,583.67,636.32,585.05,634.65,584.63Z"/><path class="cls-31" d="M634.63,584.63,616.41,580c-1.72-.43-1.84-2-1.41-3.68h0c.38-1.5,1-2.65,2.47-2.27l18.89,4.76c1.55.38,1.93,1.59,1.54,3.13h0C637.48,583.66,636.31,585.05,634.63,584.63Z"/><path class="cls-31" d="M560.83,562.74c.4-1.61,1.36-2.54,3-2.13l.68.17-.09,0-1.53-.39c-1.61-.41-2.57.53-3,2.14s-.11,3.3,1.51,3.71l.86.22C560.72,566,560.43,564.33,560.83,562.74Z"/><path class="cls-55" d="M643.69,526.28l-51.28-25.54c-.41-.2-.5-3.36.11-3.15L620,493.67a2.11,2.11,0,0,1,1.38.17l51.16,23.25c.59.33.39,3.12.1,3.17l-27.55,6.18A2,2,0,0,1,643.69,526.28Z"/><path class="cls-53" d="M643.69,524l-51.28-25.53a.49.49,0,0,1,.11-.91L620,491.35a2,2,0,0,1,1.38.17l51.16,25.59a.47.47,0,0,1-.11.88l-27.34,6.13A2,2,0,0,1,643.69,524Z"/><polygon class="cls-56" points="641.94 522.26 595.9 499.35 623.12 493.21 669.01 516.16 641.94 522.26"/><polygon class="cls-57" points="654.44 521.05 653.42 520.54 660.22 519 661.09 519.55 654.44 521.05"/><path class="cls-57" d="M611.56,494.92l-3.9.85a2.72,2.72,0,0,1-1.56,0h0c-.89-.21-.46-.32-.07-.41l3.89-.85a2.59,2.59,0,0,1,1.47.1h0C612.28,494.78,612,494.83,611.56,494.92Z"/><path class="cls-58" d="M263.62,528.59V522.4l90.58-32.64a9.86,9.86,0,0,1,4.65,0c2.9.58,100.38,23.76,100.38,23.76s1.45,3,0,4.2-71.74,41.22-71.74,41.22Z"/><polygon class="cls-56" points="277.8 527.44 349.99 499.72 428.9 517.69 368.38 551.82 277.8 527.44"/><path class="cls-37" d="M263.62,528.59,230.9,439s-1.92-4.79,2.19-4.38S341.67,451.5,341.67,451.5s5.89-.55,8.77,6.57,37.65,99.14,37.65,99.14.82,1.63-1.95,1.73S263.62,528.59,263.62,528.59Z"/><polygon class="cls-59" points="286.27 496.37 285.35 490.37 289.42 490.99 293.83 497.52 286.27 496.37"/><polygon class="cls-59" points="290.87 491.21 295.48 497.77 300.32 498.5 295.07 491.85 290.87 491.21"/><polygon class="cls-59" points="296.62 492.08 302.7 493 303.52 498.99 301.68 498.71 296.62 492.08"/><polygon class="cls-59" points="304.03 493.21 304.95 499.21 308.35 499.72 305.68 493.46 304.03 493.21"/><path class="cls-42" d="M446.24,432.57l8.77-2.49a53,53,0,0,1,2.18-6.11c.57-.78,4.85-3.53,4.85-3.53s3.33-2.21,4.23-2.26,13.42,1.17,13.52,1.19,3.52.41.85,3.68c0,0-1.3,1.05-4.4,1a47.35,47.35,0,0,0-6.68.45"/><path class="cls-42" d="M474,424.22s5.59.76,6.83,1.59c1.07.7,2.36.69,2.85,3.52a6.45,6.45,0,0,1-1.15,3.34c2.53-.22,3.74,5.95,1.37,7.64,2.71.41,2.68,4.15,1.71,5.6a3.14,3.14,0,0,1,.94,4.14,13.9,13.9,0,0,1-2.44,2.73c-.55.3-9.79,2.3-12,2.27a12.23,12.23,0,0,0-4.32.42c-1.19.39-12.05,4.26-12.05,4.26"/><line class="cls-42" x1="482.7" y1="431.97" x2="478.53" y2="433.1"/><line class="cls-42" x1="484.32" y1="440.43" x2="479.77" y2="441"/><line class="cls-42" x1="483.08" y1="432.73" x2="478.45" y2="433.1"/><line class="cls-42" x1="484.3" y1="439.38" x2="479.99" y2="440.94"/><line class="cls-42" x1="485.39" y1="446.32" x2="481.31" y2="447.42"/></g></svg>