<?xml version="1.0" encoding="utf-8"?>
<!-- Generator: Adobe Illustrator 22.1.0, SVG Export Plug-In . SVG Version: 6.00 Build 0)  -->
<svg version="1.1" id="圖層_1" xmlns="http://www.w3.org/2000/svg" xmlns:xlink="http://www.w3.org/1999/xlink" x="0px" y="0px"
	 viewBox="0 0 512 512" style="enable-background:new 0 0 512 512;" xml:space="preserve" fill="#967958">
<path class="st0" d="M10.1,107.6c-3.9,0-7.1-3.2-7.1-7.1V10.1C3,6.2,6.2,3,10.1,3h491.4c3.9,0,7.1,3.2,7.1,7.1v90.5
	c0,3.9-3.2,7.1-7.1,7.1H10.1z M17.1,93.5h477.2V17.1H17.1V93.5z"/>
<path class="st0" d="M58.4,80.7c-14.6,0-26.5-11.9-26.5-26.5c0-14.6,11.9-26.5,26.5-26.5c14.6,0,26.5,11.9,26.5,26.5
	C84.9,68.9,73,80.7,58.4,80.7z M58.4,41.9c-6.8,0-12.4,5.5-12.4,12.4c0,6.8,5.5,12.4,12.4,12.4c6.8,0,12.4-5.5,12.4-12.4
	C70.8,47.4,65.2,41.9,58.4,41.9z"/>
<path class="st0" d="M121.3,80.7c-14.6,0-26.5-11.9-26.5-26.5c0-14.6,11.9-26.5,26.5-26.5c14.6,0,26.5,11.9,26.5,26.5
	C147.8,68.9,135.9,80.7,121.3,80.7z M121.3,41.9c-6.8,0-12.4,5.5-12.4,12.4c0,6.8,5.5,12.4,12.4,12.4c6.8,0,12.4-5.5,12.4-12.4
	C133.6,47.4,128.1,41.9,121.3,41.9z"/>
<path class="st0" d="M184.1,80.7c-14.6,0-26.5-11.9-26.5-26.5c0-14.6,11.9-26.5,26.5-26.5c14.6,0,26.5,11.9,26.5,26.5
	C210.6,68.9,198.7,80.7,184.1,80.7z M184.1,41.9c-6.8,0-12.4,5.5-12.4,12.4c0,6.8,5.5,12.4,12.4,12.4c6.8,0,12.4-5.5,12.4-12.4
	C196.5,47.4,191,41.9,184.1,41.9z"/>
<path class="st0" d="M280.6,255.1c-3.9,0-7.1-3.2-7.1-7.1V141.2c0-3.9,3.2-7.1,7.1-7.1h221.3c3.9,0,7.1,3.2,7.1,7.1V248
	c0,3.9-3.2,7.1-7.1,7.1H280.6z M287.7,241h207.2v-92.7H287.7V241z"/>
<path class="st0" d="M10.1,379.2c-3.9,0-7.1-3.2-7.1-7.1v-231c0-3.9,3.2-7.1,7.1-7.1h228c3.9,0,7.1,3.2,7.1,7.1v231
	c0,3.9-3.2,7.1-7.1,7.1H10.1z M16.7,365.1H231v-44.3l-61.1-64.9l-46.4,69.9c-1.1,1.6-2.7,2.7-4.6,3c-0.4,0.1-0.8,0.1-1.3,0.1
	c-1.5,0-2.9-0.5-4.1-1.3L74,299.3L16.7,365.1z M17.1,343.2l50.5-58c1.3-1.5,3.3-2.4,5.3-2.4c1.5,0,2.9,0.5,4.1,1.3l38.8,27.8
	l47.3-71.2c1.2-1.8,3.1-2.9,5.3-3.1c0.2,0,0.4,0,0.6,0c0.3,0,0.7,0,1,0.1c1.6,0.2,3.1,1,4.2,2.2l56.9,60.5V148.2H17.1V343.2z"/>
<path class="st0" d="M85.4,249.5c-23.2,0-42-18.8-42-42s18.8-42,42-42s42,18.8,42,42S108.5,249.5,85.4,249.5z M85.4,179.6
	c-15.4,0-27.9,12.5-27.9,27.9s12.5,27.9,27.9,27.9s27.9-12.5,27.9-27.9S100.8,179.6,85.4,179.6z"/>
<path class="st0" d="M280.6,296.1c-3.9,0-7.1-3.2-7.1-7.1s3.2-7.1,7.1-7.1h221.3c3.9,0,7.1,3.2,7.1,7.1s-3.2,7.1-7.1,7.1H280.6z"/>
<path class="st0" d="M280.6,337.4c-3.9,0-7.1-3.2-7.1-7.1s3.2-7.1,7.1-7.1h134.1c3.9,0,7.1,3.2,7.1,7.1s-3.2,7.1-7.1,7.1H280.6z"/>
<path class="st0" d="M280.6,378.8c-3.9,0-7.1-3.2-7.1-7.1s3.2-7.1,7.1-7.1h83.5c3.9,0,7.1,3.2,7.1,7.1s-3.2,7.1-7.1,7.1H280.6z"/>
<path class="st0" d="M10.1,508.4c-3.9,0-7.1-3.2-7.1-7.1V412c0-3.9,3.2-7.1,7.1-7.1h491.9c3.9,0,7.1,3.2,7.1,7.1v89.3
	c0,3.9-3.2,7.1-7.1,7.1H10.1z M17.1,494.3h477.8V419H17.1V494.3z"/>
<path class="st0" d="M39.2,463.7c-3.9,0-7.1-3.2-7.1-7.1s3.2-7.1,7.1-7.1h46.3c3.9,0,7.1,3.2,7.1,7.1s-3.2,7.1-7.1,7.1H39.2z"/>
<path class="st0" d="M135.6,463.7c-3.9,0-7.1-3.2-7.1-7.1s3.2-7.1,7.1-7.1h46.3c3.9,0,7.1,3.2,7.1,7.1s-3.2,7.1-7.1,7.1H135.6z"/>
<path class="st0" d="M231.9,463.7c-3.9,0-7.1-3.2-7.1-7.1s3.2-7.1,7.1-7.1h46.3c3.9,0,7.1,3.2,7.1,7.1s-3.2,7.1-7.1,7.1H231.9z"/>
<path class="st0" d="M328.2,463.7c-3.9,0-7.1-3.2-7.1-7.1s3.2-7.1,7.1-7.1h46.3c3.9,0,7.1,3.2,7.1,7.1s-3.2,7.1-7.1,7.1H328.2z"/>
<path class="st0" d="M424.5,463.7c-3.9,0-7.1-3.2-7.1-7.1s3.2-7.1,7.1-7.1h46.3c3.9,0,7.1,3.2,7.1,7.1s-3.2,7.1-7.1,7.1H424.5z"/>
<path class="st0" d="M460.2,337.5c-3.3,0-6.1-2.2-6.9-5.4c-0.4-1.8-0.1-3.7,0.9-5.3s2.5-2.7,4.4-3.2l0.5-0.1
	c0.5-0.1,1.1-0.2,1.6-0.2c3.3,0,6.1,2.2,6.9,5.4c0.9,3.8-1.5,7.6-5.3,8.5l-0.5,0.1C461.2,337.4,460.7,337.5,460.2,337.5z"/>
<path class="st0" d="M368.4,61.4c-3.3,0-6.1-2.2-6.9-5.4c-0.9-3.8,1.5-7.6,5.3-8.5l0.5-0.1c0.5-0.1,1.1-0.2,1.6-0.2
	c3.3,0,6.1,2.2,6.9,5.4c0.9,3.8-1.5,7.6-5.3,8.5l-0.5,0.1C369.4,61.3,368.9,61.4,368.4,61.4z"/>
<path class="st0" d="M238.1,62.4c-3.9,0-7.1-3.2-7.1-7.1s3.2-7.1,7.1-7.1h84.8c3.9,0,7.1,3.2,7.1,7.1s-3.2,7.1-7.1,7.1H238.1z"/>
</svg>
